STARTFONT 2.1
FONT -FontForge-Rajdhani-Book-R-Normal--12-120-72-72-P-73-ISO10646-1
SIZE 12 72 72
FONTBOUNDINGBOX 29 15 -5 -4
COMMENT "Generated by fontforge, http://fontforge.sourceforge.net"
COMMENT "Copyright (c) 2014 Indian Type Foundry (info@indiantypefoundry.com)"
STARTPROPERTIES 40
FOUNDRY "FontForge"
FAMILY_NAME "Rajdhani"
WEIGHT_NAME "Book"
SLANT "R"
SETWIDTH_NAME "Normal"
ADD_STYLE_NAME ""
PIXEL_SIZE 12
POINT_SIZE 120
RESOLUTION_X 72
RESOLUTION_Y 72
SPACING "P"
AVERAGE_WIDTH 73
CHARSET_REGISTRY "ISO10646"
CHARSET_ENCODING "1"
FONTNAME_REGISTRY ""
CHARSET_COLLECTIONS "ISO8859-2 ISO8859-9 ISO8859-4 ISO10646-1"
FONT_NAME "Rajdhani-Regular"
FACE_NAME "Rajdhani Regular"
COPYRIGHT "Copyright (c) 2014 Indian Type Foundry (info@indiantypefoundry.com)"
FONT_VERSION "1.201;PS 1.0;hotconv 1.0.78;makeotf.lib2.5.61930; ttfautohint (v1.1) -l 7 -r 28 -G 50 -x 13 -D latn -f deva -w G"
FONT_ASCENT 10
FONT_DESCENT 2
UNDERLINE_POSITION -1
UNDERLINE_THICKNESS 1
X_HEIGHT 5
CAP_HEIGHT 7
DEFAULT_CHAR 3
RAW_ASCENT 800
RAW_DESCENT 200
NORM_SPACE 3
RELATIVE_WEIGHT 40
RELATIVE_SETWIDTH 50
SUPERSCRIPT_X 0
SUPERSCRIPT_Y 4
SUPERSCRIPT_SIZE 7
SUBSCRIPT_X 0
SUBSCRIPT_Y 0
SUBSCRIPT_SIZE 7
AVG_LOWERCASE_WIDTH 54
AVG_UPPERCASE_WIDTH 63
ENDPROPERTIES
CHARS 1043
STARTCHAR NULL.dup1
ENCODING 0
SWIDTH 0 0
DWIDTH 0 0
BBX 1 1 0 0
BITMAP
00
ENDCHAR
STARTCHAR CR
ENCODING 13
SWIDTH 0 0
DWIDTH 0 0
BBX 1 1 0 0
BITMAP
00
ENDCHAR
STARTCHAR space
ENCODING 32
SWIDTH 267 0
DWIDTH 3 0
BBX 1 1 0 0
BITMAP
00
ENDCHAR
STARTCHAR exclam
ENCODING 33
SWIDTH 237 0
DWIDTH 3 0
BBX 1 8 1 0
BITMAP
80
80
80
80
80
00
80
80
ENDCHAR
STARTCHAR quotedbl
ENCODING 34
SWIDTH 330 0
DWIDTH 4 0
BBX 2 2 1 6
BITMAP
C0
C0
ENDCHAR
STARTCHAR numbersign
ENCODING 35
SWIDTH 677 0
DWIDTH 8 0
BBX 6 8 1 0
BITMAP
24
24
FC
48
48
FC
90
90
ENDCHAR
STARTCHAR dollar
ENCODING 36
SWIDTH 504 0
DWIDTH 6 0
BBX 4 10 1 -1
BITMAP
20
F0
90
90
80
F0
10
90
F0
20
ENDCHAR
STARTCHAR percent
ENCODING 37
SWIDTH 717 0
DWIDTH 9 0
BBX 7 8 1 0
BITMAP
C8
A8
B0
D0
1E
2A
2A
4E
ENDCHAR
STARTCHAR ampersand
ENCODING 38
SWIDTH 597 0
DWIDTH 7 0
BBX 5 8 1 0
BITMAP
70
90
90
40
B8
90
90
F8
ENDCHAR
STARTCHAR quotesingle
ENCODING 39
SWIDTH 186 0
DWIDTH 2 0
BBX 1 2 1 6
BITMAP
80
80
ENDCHAR
STARTCHAR parenleft
ENCODING 40
SWIDTH 283 0
DWIDTH 3 0
BBX 2 9 1 -1
BITMAP
C0
80
80
80
80
80
80
80
C0
ENDCHAR
STARTCHAR parenright
ENCODING 41
SWIDTH 283 0
DWIDTH 3 0
BBX 2 9 1 -1
BITMAP
80
40
40
40
40
40
40
40
80
ENDCHAR
STARTCHAR asterisk
ENCODING 42
SWIDTH 406 0
DWIDTH 5 0
BBX 3 3 1 5
BITMAP
40
E0
A0
ENDCHAR
STARTCHAR plus
ENCODING 43
SWIDTH 523 0
DWIDTH 6 0
BBX 4 5 1 1
BITMAP
20
20
F0
20
20
ENDCHAR
STARTCHAR comma
ENCODING 44
SWIDTH 191 0
DWIDTH 2 0
BBX 1 3 1 -1
BITMAP
80
80
80
ENDCHAR
STARTCHAR hyphen
ENCODING 45
SWIDTH 312 0
DWIDTH 4 0
BBX 3 1 0 3
BITMAP
E0
ENDCHAR
STARTCHAR period
ENCODING 46
SWIDTH 191 0
DWIDTH 2 0
BBX 1 2 1 0
BITMAP
80
80
ENDCHAR
STARTCHAR slash
ENCODING 47
SWIDTH 396 0
DWIDTH 5 0
BBX 3 8 1 0
BITMAP
20
20
40
40
40
80
80
80
ENDCHAR
STARTCHAR zero
ENCODING 48
SWIDTH 514 0
DWIDTH 6 0
BBX 4 8 1 0
BITMAP
F0
90
90
90
90
90
90
F0
ENDCHAR
STARTCHAR one
ENCODING 49
SWIDTH 317 0
DWIDTH 4 0
BBX 3 8 0 0
BITMAP
60
A0
20
20
20
20
20
20
ENDCHAR
STARTCHAR two
ENCODING 50
SWIDTH 478 0
DWIDTH 6 0
BBX 4 8 1 0
BITMAP
F0
90
10
10
60
80
80
F0
ENDCHAR
STARTCHAR three
ENCODING 51
SWIDTH 496 0
DWIDTH 6 0
BBX 4 8 1 0
BITMAP
F0
90
90
10
20
10
90
F0
ENDCHAR
STARTCHAR four
ENCODING 52
SWIDTH 520 0
DWIDTH 6 0
BBX 5 8 1 0
BITMAP
10
30
50
50
90
90
F8
10
ENDCHAR
STARTCHAR five
ENCODING 53
SWIDTH 482 0
DWIDTH 6 0
BBX 4 8 1 0
BITMAP
F0
80
80
E0
10
10
90
F0
ENDCHAR
STARTCHAR six
ENCODING 54
SWIDTH 497 0
DWIDTH 6 0
BBX 4 8 1 0
BITMAP
F0
80
80
E0
90
90
90
F0
ENDCHAR
STARTCHAR seven
ENCODING 55
SWIDTH 380 0
DWIDTH 5 0
BBX 4 8 0 0
BITMAP
F0
10
10
20
20
20
40
40
ENDCHAR
STARTCHAR eight
ENCODING 56
SWIDTH 519 0
DWIDTH 6 0
BBX 4 8 1 0
BITMAP
F0
90
90
90
70
90
90
F0
ENDCHAR
STARTCHAR nine
ENCODING 57
SWIDTH 497 0
DWIDTH 6 0
BBX 4 8 1 0
BITMAP
F0
90
90
90
F0
10
10
F0
ENDCHAR
STARTCHAR colon
ENCODING 58
SWIDTH 191 0
DWIDTH 2 0
BBX 1 6 1 0
BITMAP
80
80
00
00
80
80
ENDCHAR
STARTCHAR semicolon
ENCODING 59
SWIDTH 191 0
DWIDTH 2 0
BBX 1 7 1 -1
BITMAP
80
80
00
00
80
80
80
ENDCHAR
STARTCHAR less
ENCODING 60
SWIDTH 513 0
DWIDTH 6 0
BBX 4 4 1 2
BITMAP
10
60
C0
30
ENDCHAR
STARTCHAR equal
ENCODING 61
SWIDTH 531 0
DWIDTH 6 0
BBX 4 3 1 2
BITMAP
F0
00
F0
ENDCHAR
STARTCHAR greater
ENCODING 62
SWIDTH 531 0
DWIDTH 6 0
BBX 4 4 1 2
BITMAP
80
60
30
C0
ENDCHAR
STARTCHAR question
ENCODING 63
SWIDTH 473 0
DWIDTH 6 0
BBX 4 8 1 0
BITMAP
E0
90
10
20
40
00
40
40
ENDCHAR
STARTCHAR at
ENCODING 64
SWIDTH 753 0
DWIDTH 9 0
BBX 7 8 1 -1
BITMAP
7C
BA
AA
CA
AA
B4
80
78
ENDCHAR
STARTCHAR A
ENCODING 65
SWIDTH 533 0
DWIDTH 6 0
BBX 6 8 0 0
BITMAP
10
30
28
28
48
78
44
84
ENDCHAR
STARTCHAR B
ENCODING 66
SWIDTH 546 0
DWIDTH 7 0
BBX 5 8 1 0
BITMAP
F0
88
88
88
F0
88
88
F0
ENDCHAR
STARTCHAR C
ENCODING 67
SWIDTH 542 0
DWIDTH 7 0
BBX 5 8 1 0
BITMAP
F0
88
88
80
80
88
88
F0
ENDCHAR
STARTCHAR D
ENCODING 68
SWIDTH 557 0
DWIDTH 7 0
BBX 5 8 1 0
BITMAP
F0
88
88
88
88
88
88
F0
ENDCHAR
STARTCHAR E
ENCODING 69
SWIDTH 481 0
DWIDTH 6 0
BBX 4 8 1 0
BITMAP
F0
80
80
80
F0
80
80
F0
ENDCHAR
STARTCHAR F
ENCODING 70
SWIDTH 459 0
DWIDTH 6 0
BBX 4 8 1 0
BITMAP
F0
80
80
80
F0
80
80
80
ENDCHAR
STARTCHAR G
ENCODING 71
SWIDTH 539 0
DWIDTH 6 0
BBX 5 8 1 0
BITMAP
F0
88
88
80
B8
88
88
F0
ENDCHAR
STARTCHAR H
ENCODING 72
SWIDTH 570 0
DWIDTH 7 0
BBX 5 8 1 0
BITMAP
88
88
88
88
F8
88
88
88
ENDCHAR
STARTCHAR I
ENCODING 73
SWIDTH 230 0
DWIDTH 3 0
BBX 1 8 1 0
BITMAP
80
80
80
80
80
80
80
80
ENDCHAR
STARTCHAR J
ENCODING 74
SWIDTH 499 0
DWIDTH 6 0
BBX 5 8 0 0
BITMAP
08
08
08
08
08
88
88
78
ENDCHAR
STARTCHAR K
ENCODING 75
SWIDTH 530 0
DWIDTH 6 0
BBX 5 8 1 0
BITMAP
88
90
A0
C0
A0
90
90
88
ENDCHAR
STARTCHAR L
ENCODING 76
SWIDTH 451 0
DWIDTH 5 0
BBX 4 8 1 0
BITMAP
80
80
80
80
80
80
80
F0
ENDCHAR
STARTCHAR M
ENCODING 77
SWIDTH 696 0
DWIDTH 8 0
BBX 6 8 1 0
BITMAP
84
84
CC
AC
B4
94
84
84
ENDCHAR
STARTCHAR N
ENCODING 78
SWIDTH 579 0
DWIDTH 7 0
BBX 5 8 1 0
BITMAP
88
88
C8
A8
A8
98
88
88
ENDCHAR
STARTCHAR O
ENCODING 79
SWIDTH 553 0
DWIDTH 7 0
BBX 5 8 1 0
BITMAP
F0
88
88
88
88
88
88
F0
ENDCHAR
STARTCHAR P
ENCODING 80
SWIDTH 524 0
DWIDTH 6 0
BBX 5 8 1 0
BITMAP
F0
88
88
88
F0
80
80
80
ENDCHAR
STARTCHAR Q
ENCODING 81
SWIDTH 556 0
DWIDTH 7 0
BBX 5 10 1 -2
BITMAP
F0
88
88
88
88
88
88
F0
10
10
ENDCHAR
STARTCHAR R
ENCODING 82
SWIDTH 534 0
DWIDTH 6 0
BBX 5 8 1 0
BITMAP
F0
88
88
88
F0
90
90
88
ENDCHAR
STARTCHAR S
ENCODING 83
SWIDTH 562 0
DWIDTH 7 0
BBX 5 8 1 0
BITMAP
F0
88
80
C0
30
08
88
F0
ENDCHAR
STARTCHAR T
ENCODING 84
SWIDTH 420 0
DWIDTH 5 0
BBX 5 8 0 0
BITMAP
F8
20
20
20
20
20
20
20
ENDCHAR
STARTCHAR U
ENCODING 85
SWIDTH 552 0
DWIDTH 7 0
BBX 5 8 1 0
BITMAP
88
88
88
88
88
88
88
F0
ENDCHAR
STARTCHAR V
ENCODING 86
SWIDTH 500 0
DWIDTH 6 0
BBX 6 8 0 0
BITMAP
84
48
48
48
48
30
30
30
ENDCHAR
STARTCHAR W
ENCODING 87
SWIDTH 794 0
DWIDTH 10 0
BBX 9 8 0 0
BITMAP
8880
8880
4C80
5480
5500
5300
2300
2300
ENDCHAR
STARTCHAR X
ENCODING 88
SWIDTH 504 0
DWIDTH 6 0
BBX 6 8 0 0
BITMAP
4C
48
30
30
30
28
48
84
ENDCHAR
STARTCHAR Y
ENCODING 89
SWIDTH 493 0
DWIDTH 6 0
BBX 6 8 0 0
BITMAP
84
48
48
30
20
20
20
20
ENDCHAR
STARTCHAR Z
ENCODING 90
SWIDTH 482 0
DWIDTH 6 0
BBX 5 8 0 0
BITMAP
78
08
10
10
20
40
40
F8
ENDCHAR
STARTCHAR bracketleft
ENCODING 91
SWIDTH 287 0
DWIDTH 3 0
BBX 2 9 1 -1
BITMAP
C0
80
80
80
80
80
80
80
C0
ENDCHAR
STARTCHAR backslash
ENCODING 92
SWIDTH 396 0
DWIDTH 5 0
BBX 3 8 1 0
BITMAP
80
80
80
40
40
40
20
20
ENDCHAR
STARTCHAR bracketright
ENCODING 93
SWIDTH 287 0
DWIDTH 3 0
BBX 2 9 1 -1
BITMAP
C0
40
40
40
40
40
40
40
C0
ENDCHAR
STARTCHAR asciicircum
ENCODING 94
SWIDTH 465 0
DWIDTH 6 0
BBX 4 3 1 5
BITMAP
40
A0
90
ENDCHAR
STARTCHAR underscore
ENCODING 95
SWIDTH 372 0
DWIDTH 4 0
BBX 4 1 0 -1
BITMAP
F0
ENDCHAR
STARTCHAR grave
ENCODING 96
SWIDTH 269 0
DWIDTH 3 0
BBX 1 1 1 7
BITMAP
80
ENDCHAR
STARTCHAR a
ENCODING 97
SWIDTH 502 0
DWIDTH 6 0
BBX 4 6 1 0
BITMAP
F0
90
90
90
90
F0
ENDCHAR
STARTCHAR b
ENCODING 98
SWIDTH 504 0
DWIDTH 6 0
BBX 4 8 1 0
BITMAP
80
80
F0
90
90
90
90
F0
ENDCHAR
STARTCHAR c
ENCODING 99
SWIDTH 394 0
DWIDTH 5 0
BBX 3 6 1 0
BITMAP
E0
80
80
80
80
E0
ENDCHAR
STARTCHAR d
ENCODING 100
SWIDTH 504 0
DWIDTH 6 0
BBX 4 8 1 0
BITMAP
10
10
F0
90
90
90
90
F0
ENDCHAR
STARTCHAR e
ENCODING 101
SWIDTH 492 0
DWIDTH 6 0
BBX 4 6 1 0
BITMAP
F0
90
90
F0
80
F0
ENDCHAR
STARTCHAR f
ENCODING 102
SWIDTH 303 0
DWIDTH 4 0
BBX 3 8 0 0
BITMAP
20
40
E0
40
40
40
40
40
ENDCHAR
STARTCHAR g
ENCODING 103
SWIDTH 506 0
DWIDTH 6 0
BBX 4 8 1 -2
BITMAP
F0
90
90
90
90
70
10
F0
ENDCHAR
STARTCHAR h
ENCODING 104
SWIDTH 507 0
DWIDTH 6 0
BBX 4 8 1 0
BITMAP
80
80
F0
90
90
90
90
90
ENDCHAR
STARTCHAR i
ENCODING 105
SWIDTH 210 0
DWIDTH 3 0
BBX 1 8 1 0
BITMAP
80
00
80
80
80
80
80
80
ENDCHAR
STARTCHAR j
ENCODING 106
SWIDTH 210 0
DWIDTH 3 0
BBX 3 10 -1 -2
BITMAP
20
00
20
20
20
20
20
20
20
C0
ENDCHAR
STARTCHAR k
ENCODING 107
SWIDTH 431 0
DWIDTH 5 0
BBX 4 8 1 0
BITMAP
80
80
90
A0
C0
C0
A0
90
ENDCHAR
STARTCHAR l
ENCODING 108
SWIDTH 210 0
DWIDTH 3 0
BBX 1 8 1 0
BITMAP
80
80
80
80
80
80
80
80
ENDCHAR
STARTCHAR m
ENCODING 109
SWIDTH 769 0
DWIDTH 9 0
BBX 7 6 1 0
BITMAP
FE
92
92
92
92
92
ENDCHAR
STARTCHAR n
ENCODING 110
SWIDTH 507 0
DWIDTH 6 0
BBX 4 6 1 0
BITMAP
F0
90
90
90
90
90
ENDCHAR
STARTCHAR o
ENCODING 111
SWIDTH 496 0
DWIDTH 6 0
BBX 4 6 1 0
BITMAP
F0
90
90
90
90
F0
ENDCHAR
STARTCHAR p
ENCODING 112
SWIDTH 504 0
DWIDTH 6 0
BBX 4 8 1 -2
BITMAP
F0
90
90
90
90
F0
80
80
ENDCHAR
STARTCHAR q
ENCODING 113
SWIDTH 502 0
DWIDTH 6 0
BBX 4 8 1 -2
BITMAP
F0
90
90
90
90
F0
10
10
ENDCHAR
STARTCHAR r
ENCODING 114
SWIDTH 313 0
DWIDTH 4 0
BBX 2 6 1 0
BITMAP
C0
80
80
80
80
80
ENDCHAR
STARTCHAR s
ENCODING 115
SWIDTH 431 0
DWIDTH 5 0
BBX 4 6 1 0
BITMAP
E0
80
C0
20
10
E0
ENDCHAR
STARTCHAR t
ENCODING 116
SWIDTH 347 0
DWIDTH 4 0
BBX 4 7 0 0
BITMAP
40
F0
40
40
40
40
30
ENDCHAR
STARTCHAR u
ENCODING 117
SWIDTH 507 0
DWIDTH 6 0
BBX 4 6 1 0
BITMAP
90
90
90
90
90
F0
ENDCHAR
STARTCHAR v
ENCODING 118
SWIDTH 416 0
DWIDTH 5 0
BBX 5 6 0 0
BITMAP
88
90
50
50
50
20
ENDCHAR
STARTCHAR w
ENCODING 119
SWIDTH 683 0
DWIDTH 8 0
BBX 8 6 0 0
BITMAP
89
99
5A
56
66
24
ENDCHAR
STARTCHAR x
ENCODING 120
SWIDTH 413 0
DWIDTH 5 0
BBX 5 6 0 0
BITMAP
98
50
20
20
50
88
ENDCHAR
STARTCHAR y
ENCODING 121
SWIDTH 459 0
DWIDTH 6 0
BBX 5 8 0 -2
BITMAP
88
48
48
50
30
20
20
40
ENDCHAR
STARTCHAR z
ENCODING 122
SWIDTH 405 0
DWIDTH 5 0
BBX 4 6 0 0
BITMAP
F0
10
20
20
40
F0
ENDCHAR
STARTCHAR braceleft
ENCODING 123
SWIDTH 298 0
DWIDTH 4 0
BBX 3 9 0 -1
BITMAP
20
40
40
40
80
40
40
40
20
ENDCHAR
STARTCHAR bar
ENCODING 124
SWIDTH 207 0
DWIDTH 2 0
BBX 1 8 1 0
BITMAP
80
80
80
80
80
80
80
80
ENDCHAR
STARTCHAR braceright
ENCODING 125
SWIDTH 298 0
DWIDTH 4 0
BBX 3 9 0 -1
BITMAP
C0
40
40
40
20
40
40
40
80
ENDCHAR
STARTCHAR asciitilde
ENCODING 126
SWIDTH 523 0
DWIDTH 6 0
BBX 4 1 1 3
BITMAP
F0
ENDCHAR
STARTCHAR uni00A0
ENCODING 160
SWIDTH 267 0
DWIDTH 3 0
BBX 1 1 0 0
BITMAP
00
ENDCHAR
STARTCHAR exclamdown
ENCODING 161
SWIDTH 237 0
DWIDTH 3 0
BBX 1 8 1 0
BITMAP
80
80
00
80
80
80
80
80
ENDCHAR
STARTCHAR cent
ENCODING 162
SWIDTH 414 0
DWIDTH 5 0
BBX 4 8 1 -1
BITMAP
20
F0
80
80
80
80
F0
20
ENDCHAR
STARTCHAR sterling
ENCODING 163
SWIDTH 528 0
DWIDTH 6 0
BBX 6 8 0 0
BITMAP
38
44
40
40
F0
40
40
FC
ENDCHAR
STARTCHAR yen
ENCODING 165
SWIDTH 499 0
DWIDTH 6 0
BBX 6 8 0 0
BITMAP
84
48
48
30
FC
FC
20
20
ENDCHAR
STARTCHAR brokenbar
ENCODING 166
SWIDTH 201 0
DWIDTH 2 0
BBX 1 8 1 0
BITMAP
80
80
80
00
00
80
80
80
ENDCHAR
STARTCHAR section
ENCODING 167
SWIDTH 454 0
DWIDTH 5 0
BBX 4 8 1 0
BITMAP
E0
80
C0
B0
90
70
10
E0
ENDCHAR
STARTCHAR dieresis
ENCODING 168
SWIDTH 345 0
DWIDTH 4 0
BBX 2 2 1 6
BITMAP
C0
C0
ENDCHAR
STARTCHAR copyright
ENCODING 169
SWIDTH 723 0
DWIDTH 9 0
BBX 7 8 1 0
BITMAP
FC
82
BA
CA
C2
CA
B2
FC
ENDCHAR
STARTCHAR guillemotleft
ENCODING 171
SWIDTH 431 0
DWIDTH 5 0
BBX 3 4 1 1
BITMAP
60
E0
A0
60
ENDCHAR
STARTCHAR registered
ENCODING 174
SWIDTH 439 0
DWIDTH 5 0
BBX 3 3 1 5
BITMAP
E0
E0
E0
ENDCHAR
STARTCHAR macron
ENCODING 175
SWIDTH 358 0
DWIDTH 4 0
BBX 3 1 1 7
BITMAP
E0
ENDCHAR
STARTCHAR degree
ENCODING 176
SWIDTH 298 0
DWIDTH 4 0
BBX 2 3 1 5
BITMAP
C0
C0
80
ENDCHAR
STARTCHAR plusminus
ENCODING 177
SWIDTH 523 0
DWIDTH 6 0
BBX 4 5 1 1
BITMAP
20
F0
20
00
F0
ENDCHAR
STARTCHAR acute
ENCODING 180
SWIDTH 269 0
DWIDTH 3 0
BBX 1 1 1 7
BITMAP
80
ENDCHAR
STARTCHAR paragraph
ENCODING 182
SWIDTH 513 0
DWIDTH 6 0
BBX 4 8 1 0
BITMAP
F0
D0
D0
D0
50
50
50
50
ENDCHAR
STARTCHAR periodcentered
ENCODING 183
SWIDTH 207 0
DWIDTH 2 0
BBX 1 2 1 3
BITMAP
80
80
ENDCHAR
STARTCHAR cedilla
ENCODING 184
SWIDTH 257 0
DWIDTH 3 0
BBX 1 3 1 -2
BITMAP
80
80
80
ENDCHAR
STARTCHAR guillemotright
ENCODING 187
SWIDTH 431 0
DWIDTH 5 0
BBX 3 4 1 1
BITMAP
C0
60
60
C0
ENDCHAR
STARTCHAR questiondown
ENCODING 191
SWIDTH 473 0
DWIDTH 6 0
BBX 4 8 1 0
BITMAP
40
40
00
40
40
80
90
E0
ENDCHAR
STARTCHAR Agrave
ENCODING 192
SWIDTH 532 0
DWIDTH 6 0
BBX 6 10 0 0
BITMAP
20
10
10
30
28
28
48
78
44
84
ENDCHAR
STARTCHAR Aacute
ENCODING 193
SWIDTH 532 0
DWIDTH 6 0
BBX 6 10 0 0
BITMAP
18
10
10
30
28
28
48
78
44
84
ENDCHAR
STARTCHAR Acircumflex
ENCODING 194
SWIDTH 532 0
DWIDTH 6 0
BBX 6 10 0 0
BITMAP
10
28
10
30
28
28
48
78
44
84
ENDCHAR
STARTCHAR Atilde
ENCODING 195
SWIDTH 532 0
DWIDTH 6 0
BBX 6 10 0 0
BITMAP
30
28
10
30
28
28
48
78
44
84
ENDCHAR
STARTCHAR Adieresis
ENCODING 196
SWIDTH 532 0
DWIDTH 6 0
BBX 6 10 0 0
BITMAP
28
28
10
30
28
28
48
78
44
84
ENDCHAR
STARTCHAR Aring
ENCODING 197
SWIDTH 532 0
DWIDTH 6 0
BBX 6 11 0 0
BITMAP
10
30
30
10
30
28
28
48
78
44
84
ENDCHAR
STARTCHAR AE
ENCODING 198
SWIDTH 773 0
DWIDTH 9 0
BBX 9 8 0 0
BITMAP
0F80
1800
1800
2800
2700
7800
4800
8780
ENDCHAR
STARTCHAR Ccedilla
ENCODING 199
SWIDTH 542 0
DWIDTH 7 0
BBX 5 10 1 -2
BITMAP
F0
88
88
80
80
88
88
F0
20
20
ENDCHAR
STARTCHAR Egrave
ENCODING 200
SWIDTH 481 0
DWIDTH 6 0
BBX 4 10 1 0
BITMAP
40
20
F0
80
80
80
F0
80
80
F0
ENDCHAR
STARTCHAR Eacute
ENCODING 201
SWIDTH 481 0
DWIDTH 6 0
BBX 4 10 1 0
BITMAP
20
40
F0
80
80
80
F0
80
80
F0
ENDCHAR
STARTCHAR Ecircumflex
ENCODING 202
SWIDTH 481 0
DWIDTH 6 0
BBX 4 10 1 0
BITMAP
60
60
F0
80
80
80
F0
80
80
F0
ENDCHAR
STARTCHAR Edieresis
ENCODING 203
SWIDTH 481 0
DWIDTH 6 0
BBX 4 10 1 0
BITMAP
60
60
F0
80
80
80
F0
80
80
F0
ENDCHAR
STARTCHAR Igrave
ENCODING 204
SWIDTH 230 0
DWIDTH 3 0
BBX 2 10 0 0
BITMAP
80
40
40
40
40
40
40
40
40
40
ENDCHAR
STARTCHAR Iacute
ENCODING 205
SWIDTH 231 0
DWIDTH 3 0
BBX 2 10 1 0
BITMAP
40
80
80
80
80
80
80
80
80
80
ENDCHAR
STARTCHAR Icircumflex
ENCODING 206
SWIDTH 229 0
DWIDTH 3 0
BBX 3 10 0 0
BITMAP
40
A0
40
40
40
40
40
40
40
40
ENDCHAR
STARTCHAR Idieresis
ENCODING 207
SWIDTH 230 0
DWIDTH 3 0
BBX 3 10 0 0
BITMAP
A0
A0
40
40
40
40
40
40
40
40
ENDCHAR
STARTCHAR Eth
ENCODING 208
SWIDTH 514 0
DWIDTH 6 0
BBX 6 8 0 0
BITMAP
78
44
44
44
F4
44
44
78
ENDCHAR
STARTCHAR Ntilde
ENCODING 209
SWIDTH 579 0
DWIDTH 7 0
BBX 5 10 1 0
BITMAP
70
50
88
88
C8
A8
A8
98
88
88
ENDCHAR
STARTCHAR Ograve
ENCODING 210
SWIDTH 553 0
DWIDTH 7 0
BBX 5 10 1 0
BITMAP
40
20
F0
88
88
88
88
88
88
F0
ENDCHAR
STARTCHAR Oacute
ENCODING 211
SWIDTH 553 0
DWIDTH 7 0
BBX 5 10 1 0
BITMAP
30
20
F0
88
88
88
88
88
88
F0
ENDCHAR
STARTCHAR Ocircumflex
ENCODING 212
SWIDTH 553 0
DWIDTH 7 0
BBX 5 10 1 0
BITMAP
20
50
F0
88
88
88
88
88
88
F0
ENDCHAR
STARTCHAR Otilde
ENCODING 213
SWIDTH 553 0
DWIDTH 7 0
BBX 5 10 1 0
BITMAP
60
50
F0
88
88
88
88
88
88
F0
ENDCHAR
STARTCHAR Odieresis
ENCODING 214
SWIDTH 553 0
DWIDTH 7 0
BBX 5 10 1 0
BITMAP
50
50
F0
88
88
88
88
88
88
F0
ENDCHAR
STARTCHAR multiply
ENCODING 215
SWIDTH 493 0
DWIDTH 6 0
BBX 4 4 1 2
BITMAP
90
60
60
90
ENDCHAR
STARTCHAR Oslash
ENCODING 216
SWIDTH 559 0
DWIDTH 7 0
BBX 5 8 1 0
BITMAP
F8
88
98
A8
C8
C8
88
F0
ENDCHAR
STARTCHAR Ugrave
ENCODING 217
SWIDTH 552 0
DWIDTH 7 0
BBX 5 10 1 0
BITMAP
40
20
88
88
88
88
88
88
88
F0
ENDCHAR
STARTCHAR Uacute
ENCODING 218
SWIDTH 552 0
DWIDTH 7 0
BBX 5 10 1 0
BITMAP
30
20
88
88
88
88
88
88
88
F0
ENDCHAR
STARTCHAR Ucircumflex
ENCODING 219
SWIDTH 552 0
DWIDTH 7 0
BBX 5 10 1 0
BITMAP
20
50
88
88
88
88
88
88
88
F0
ENDCHAR
STARTCHAR Udieresis
ENCODING 220
SWIDTH 552 0
DWIDTH 7 0
BBX 5 10 1 0
BITMAP
50
50
88
88
88
88
88
88
88
F0
ENDCHAR
STARTCHAR Yacute
ENCODING 221
SWIDTH 493 0
DWIDTH 6 0
BBX 6 10 0 0
BITMAP
10
20
84
48
48
30
20
20
20
20
ENDCHAR
STARTCHAR Thorn
ENCODING 222
SWIDTH 501 0
DWIDTH 6 0
BBX 4 8 1 0
BITMAP
80
80
F0
90
90
90
E0
80
ENDCHAR
STARTCHAR germandbls
ENCODING 223
SWIDTH 540 0
DWIDTH 6 0
BBX 5 8 1 0
BITMAP
F0
88
88
88
B0
88
88
B0
ENDCHAR
STARTCHAR agrave
ENCODING 224
SWIDTH 502 0
DWIDTH 6 0
BBX 4 8 1 0
BITMAP
40
20
F0
90
90
90
90
F0
ENDCHAR
STARTCHAR aacute
ENCODING 225
SWIDTH 502 0
DWIDTH 6 0
BBX 4 8 1 0
BITMAP
20
00
F0
90
90
90
90
F0
ENDCHAR
STARTCHAR acircumflex
ENCODING 226
SWIDTH 502 0
DWIDTH 6 0
BBX 4 8 1 0
BITMAP
60
00
F0
90
90
90
90
F0
ENDCHAR
STARTCHAR atilde
ENCODING 227
SWIDTH 504 0
DWIDTH 6 0
BBX 4 8 1 0
BITMAP
60
50
F0
90
90
90
90
F0
ENDCHAR
STARTCHAR adieresis
ENCODING 228
SWIDTH 502 0
DWIDTH 6 0
BBX 4 8 1 0
BITMAP
50
50
F0
90
90
90
90
F0
ENDCHAR
STARTCHAR aring
ENCODING 229
SWIDTH 502 0
DWIDTH 6 0
BBX 4 9 1 0
BITMAP
60
60
60
F0
90
90
90
90
F0
ENDCHAR
STARTCHAR ae
ENCODING 230
SWIDTH 795 0
DWIDTH 10 0
BBX 8 6 1 0
BITMAP
FE
11
71
9F
90
FF
ENDCHAR
STARTCHAR ccedilla
ENCODING 231
SWIDTH 394 0
DWIDTH 5 0
BBX 3 8 1 -2
BITMAP
E0
80
80
80
80
E0
40
60
ENDCHAR
STARTCHAR egrave
ENCODING 232
SWIDTH 492 0
DWIDTH 6 0
BBX 4 8 1 0
BITMAP
40
00
F0
90
90
F0
80
F0
ENDCHAR
STARTCHAR eacute
ENCODING 233
SWIDTH 492 0
DWIDTH 6 0
BBX 4 8 1 0
BITMAP
20
00
F0
90
90
F0
80
F0
ENDCHAR
STARTCHAR ecircumflex
ENCODING 234
SWIDTH 492 0
DWIDTH 6 0
BBX 4 8 1 0
BITMAP
60
00
F0
90
90
F0
80
F0
ENDCHAR
STARTCHAR edieresis
ENCODING 235
SWIDTH 492 0
DWIDTH 6 0
BBX 4 8 1 0
BITMAP
60
60
F0
90
90
F0
80
F0
ENDCHAR
STARTCHAR igrave
ENCODING 236
SWIDTH 210 0
DWIDTH 3 0
BBX 2 8 0 0
BITMAP
80
00
40
40
40
40
40
40
ENDCHAR
STARTCHAR iacute
ENCODING 237
SWIDTH 208 0
DWIDTH 3 0
BBX 2 8 1 0
BITMAP
C0
00
80
80
80
80
80
80
ENDCHAR
STARTCHAR icircumflex
ENCODING 238
SWIDTH 210 0
DWIDTH 3 0
BBX 2 8 0 0
BITMAP
40
80
40
40
40
40
40
40
ENDCHAR
STARTCHAR idieresis
ENCODING 239
SWIDTH 210 0
DWIDTH 3 0
BBX 3 8 0 0
BITMAP
A0
A0
40
40
40
40
40
40
ENDCHAR
STARTCHAR eth
ENCODING 240
SWIDTH 488 0
DWIDTH 6 0
BBX 4 8 1 0
BITMAP
70
60
90
F0
90
90
90
F0
ENDCHAR
STARTCHAR ntilde
ENCODING 241
SWIDTH 507 0
DWIDTH 6 0
BBX 4 8 1 0
BITMAP
A0
50
F0
90
90
90
90
90
ENDCHAR
STARTCHAR ograve
ENCODING 242
SWIDTH 496 0
DWIDTH 6 0
BBX 4 8 1 0
BITMAP
40
00
F0
90
90
90
90
F0
ENDCHAR
STARTCHAR oacute
ENCODING 243
SWIDTH 496 0
DWIDTH 6 0
BBX 4 8 1 0
BITMAP
20
00
F0
90
90
90
90
F0
ENDCHAR
STARTCHAR ocircumflex
ENCODING 244
SWIDTH 496 0
DWIDTH 6 0
BBX 4 8 1 0
BITMAP
60
00
F0
90
90
90
90
F0
ENDCHAR
STARTCHAR otilde
ENCODING 245
SWIDTH 496 0
DWIDTH 6 0
BBX 4 8 1 0
BITMAP
A0
50
F0
90
90
90
90
F0
ENDCHAR
STARTCHAR odieresis
ENCODING 246
SWIDTH 496 0
DWIDTH 6 0
BBX 4 8 1 0
BITMAP
A0
A0
F0
90
90
90
90
F0
ENDCHAR
STARTCHAR divide
ENCODING 247
SWIDTH 510 0
DWIDTH 6 0
BBX 4 4 1 2
BITMAP
20
00
F0
20
ENDCHAR
STARTCHAR oslash
ENCODING 248
SWIDTH 521 0
DWIDTH 6 0
BBX 6 6 0 0
BITMAP
7C
48
54
64
44
F8
ENDCHAR
STARTCHAR ugrave
ENCODING 249
SWIDTH 507 0
DWIDTH 6 0
BBX 4 8 1 0
BITMAP
40
00
90
90
90
90
90
F0
ENDCHAR
STARTCHAR uacute
ENCODING 250
SWIDTH 507 0
DWIDTH 6 0
BBX 4 8 1 0
BITMAP
20
00
90
90
90
90
90
F0
ENDCHAR
STARTCHAR ucircumflex
ENCODING 251
SWIDTH 507 0
DWIDTH 6 0
BBX 4 8 1 0
BITMAP
60
00
90
90
90
90
90
F0
ENDCHAR
STARTCHAR udieresis
ENCODING 252
SWIDTH 507 0
DWIDTH 6 0
BBX 4 8 1 0
BITMAP
60
60
90
90
90
90
90
F0
ENDCHAR
STARTCHAR yacute
ENCODING 253
SWIDTH 459 0
DWIDTH 6 0
BBX 5 10 0 -2
BITMAP
10
00
88
48
48
50
30
20
20
40
ENDCHAR
STARTCHAR thorn
ENCODING 254
SWIDTH 508 0
DWIDTH 6 0
BBX 4 10 1 -2
BITMAP
80
80
F0
90
90
90
90
F0
80
80
ENDCHAR
STARTCHAR ydieresis
ENCODING 255
SWIDTH 459 0
DWIDTH 6 0
BBX 5 10 0 -2
BITMAP
50
50
88
48
48
50
30
20
20
40
ENDCHAR
STARTCHAR Amacron
ENCODING 256
SWIDTH 532 0
DWIDTH 6 0
BBX 6 10 0 0
BITMAP
38
00
10
30
28
28
48
78
44
84
ENDCHAR
STARTCHAR amacron
ENCODING 257
SWIDTH 502 0
DWIDTH 6 0
BBX 4 8 1 0
BITMAP
70
00
F0
90
90
90
90
F0
ENDCHAR
STARTCHAR Abreve
ENCODING 258
SWIDTH 532 0
DWIDTH 6 0
BBX 6 10 0 0
BITMAP
28
30
10
30
28
28
48
78
44
84
ENDCHAR
STARTCHAR abreve
ENCODING 259
SWIDTH 502 0
DWIDTH 6 0
BBX 4 8 1 0
BITMAP
50
20
F0
90
90
90
90
F0
ENDCHAR
STARTCHAR Aogonek
ENCODING 260
SWIDTH 532 0
DWIDTH 6 0
BBX 6 10 0 -2
BITMAP
10
30
28
28
48
78
44
84
04
04
ENDCHAR
STARTCHAR aogonek
ENCODING 261
SWIDTH 502 0
DWIDTH 6 0
BBX 4 8 1 -2
BITMAP
F0
90
90
90
90
F0
10
10
ENDCHAR
STARTCHAR Cacute
ENCODING 262
SWIDTH 542 0
DWIDTH 7 0
BBX 5 10 1 0
BITMAP
30
20
F0
88
88
80
80
88
88
F0
ENDCHAR
STARTCHAR cacute
ENCODING 263
SWIDTH 394 0
DWIDTH 5 0
BBX 3 8 1 0
BITMAP
20
40
E0
80
80
80
80
E0
ENDCHAR
STARTCHAR Cdotaccent
ENCODING 266
SWIDTH 542 0
DWIDTH 7 0
BBX 5 10 1 0
BITMAP
20
00
F0
88
88
80
80
88
88
F0
ENDCHAR
STARTCHAR cdotaccent
ENCODING 267
SWIDTH 394 0
DWIDTH 5 0
BBX 3 8 1 0
BITMAP
40
00
E0
80
80
80
80
E0
ENDCHAR
STARTCHAR Ccaron
ENCODING 268
SWIDTH 542 0
DWIDTH 7 0
BBX 5 10 1 0
BITMAP
70
20
F0
88
88
80
80
88
88
F0
ENDCHAR
STARTCHAR ccaron
ENCODING 269
SWIDTH 394 0
DWIDTH 5 0
BBX 3 8 1 0
BITMAP
60
00
E0
80
80
80
80
E0
ENDCHAR
STARTCHAR Dcaron
ENCODING 270
SWIDTH 557 0
DWIDTH 7 0
BBX 5 10 1 0
BITMAP
60
20
F0
88
88
88
88
88
88
F0
ENDCHAR
STARTCHAR dcaron
ENCODING 271
SWIDTH 534 0
DWIDTH 6 0
BBX 5 8 1 0
BITMAP
18
18
F8
90
90
90
90
F0
ENDCHAR
STARTCHAR Dcroat
ENCODING 272
SWIDTH 514 0
DWIDTH 6 0
BBX 6 8 0 0
BITMAP
78
44
44
F4
44
44
44
78
ENDCHAR
STARTCHAR dcroat
ENCODING 273
SWIDTH 539 0
DWIDTH 6 0
BBX 5 8 1 0
BITMAP
10
78
10
F0
90
90
90
F0
ENDCHAR
STARTCHAR Emacron
ENCODING 274
SWIDTH 481 0
DWIDTH 6 0
BBX 4 10 1 0
BITMAP
60
00
F0
80
80
80
F0
80
80
F0
ENDCHAR
STARTCHAR emacron
ENCODING 275
SWIDTH 492 0
DWIDTH 6 0
BBX 4 8 1 0
BITMAP
60
00
F0
90
90
F0
80
F0
ENDCHAR
STARTCHAR Ebreve
ENCODING 276
SWIDTH 481 0
DWIDTH 6 0
BBX 4 10 1 0
BITMAP
A0
60
F0
80
80
80
F0
80
80
F0
ENDCHAR
STARTCHAR ebreve
ENCODING 277
SWIDTH 492 0
DWIDTH 6 0
BBX 4 8 1 0
BITMAP
A0
60
F0
90
90
F0
80
F0
ENDCHAR
STARTCHAR Edotaccent
ENCODING 278
SWIDTH 496 0
DWIDTH 6 0
BBX 4 10 1 0
BITMAP
40
00
F0
80
80
80
F0
80
80
F0
ENDCHAR
STARTCHAR edotaccent
ENCODING 279
SWIDTH 492 0
DWIDTH 6 0
BBX 4 8 1 0
BITMAP
40
00
F0
90
90
F0
80
F0
ENDCHAR
STARTCHAR Eogonek
ENCODING 280
SWIDTH 481 0
DWIDTH 6 0
BBX 4 10 1 -2
BITMAP
F0
80
80
80
F0
80
80
F0
20
20
ENDCHAR
STARTCHAR eogonek
ENCODING 281
SWIDTH 492 0
DWIDTH 6 0
BBX 4 8 1 -2
BITMAP
F0
90
90
F0
80
F0
20
20
ENDCHAR
STARTCHAR Ecaron
ENCODING 282
SWIDTH 481 0
DWIDTH 6 0
BBX 4 10 1 0
BITMAP
60
20
F0
80
80
80
F0
80
80
F0
ENDCHAR
STARTCHAR ecaron
ENCODING 283
SWIDTH 492 0
DWIDTH 6 0
BBX 4 8 1 0
BITMAP
60
00
F0
90
90
F0
80
F0
ENDCHAR
STARTCHAR Gcircumflex
ENCODING 284
SWIDTH 539 0
DWIDTH 6 0
BBX 5 10 1 0
BITMAP
20
50
F0
88
88
80
B8
88
88
F0
ENDCHAR
STARTCHAR gcircumflex
ENCODING 285
SWIDTH 506 0
DWIDTH 6 0
BBX 4 10 1 -2
BITMAP
60
00
F0
90
90
90
90
70
10
F0
ENDCHAR
STARTCHAR Gbreve
ENCODING 286
SWIDTH 539 0
DWIDTH 6 0
BBX 5 10 1 0
BITMAP
50
60
F0
88
88
80
B8
88
88
F0
ENDCHAR
STARTCHAR gbreve
ENCODING 287
SWIDTH 506 0
DWIDTH 6 0
BBX 4 10 1 -2
BITMAP
50
20
F0
90
90
90
90
70
10
F0
ENDCHAR
STARTCHAR Gdotaccent
ENCODING 288
SWIDTH 539 0
DWIDTH 6 0
BBX 5 10 1 0
BITMAP
20
00
F0
88
88
80
B8
88
88
F0
ENDCHAR
STARTCHAR gdotaccent
ENCODING 289
SWIDTH 506 0
DWIDTH 6 0
BBX 4 10 1 -2
BITMAP
20
00
F0
90
90
90
90
70
10
F0
ENDCHAR
STARTCHAR uni0122
ENCODING 290
SWIDTH 539 0
DWIDTH 6 0
BBX 5 11 1 -3
BITMAP
F0
88
88
80
B8
88
88
F0
00
20
20
ENDCHAR
STARTCHAR uni0123
ENCODING 291
SWIDTH 506 0
DWIDTH 6 0
BBX 4 11 1 -2
BITMAP
20
20
00
F0
90
90
90
90
70
10
F0
ENDCHAR
STARTCHAR hcircumflex
ENCODING 293
SWIDTH 507 0
DWIDTH 6 0
BBX 4 9 1 0
BITMAP
20
D0
80
F0
90
90
90
90
90
ENDCHAR
STARTCHAR Hbar
ENCODING 294
SWIDTH 523 0
DWIDTH 6 0
BBX 7 8 0 0
BITMAP
44
44
FE
44
7C
44
44
44
ENDCHAR
STARTCHAR hbar
ENCODING 295
SWIDTH 544 0
DWIDTH 7 0
BBX 6 8 0 0
BITMAP
40
F0
40
78
44
44
44
44
ENDCHAR
STARTCHAR Itilde
ENCODING 296
SWIDTH 230 0
DWIDTH 3 0
BBX 3 10 0 0
BITMAP
C0
A0
40
40
40
40
40
40
40
40
ENDCHAR
STARTCHAR itilde
ENCODING 297
SWIDTH 210 0
DWIDTH 3 0
BBX 3 8 0 0
BITMAP
C0
A0
40
40
40
40
40
40
ENDCHAR
STARTCHAR Imacron
ENCODING 298
SWIDTH 230 0
DWIDTH 3 0
BBX 3 10 0 0
BITMAP
E0
00
40
40
40
40
40
40
40
40
ENDCHAR
STARTCHAR imacron
ENCODING 299
SWIDTH 208 0
DWIDTH 3 0
BBX 3 8 0 0
BITMAP
E0
00
40
40
40
40
40
40
ENDCHAR
STARTCHAR Ibreve
ENCODING 300
SWIDTH 231 0
DWIDTH 3 0
BBX 3 10 0 0
BITMAP
A0
40
40
40
40
40
40
40
40
40
ENDCHAR
STARTCHAR ibreve
ENCODING 301
SWIDTH 211 0
DWIDTH 3 0
BBX 2 8 0 0
BITMAP
C0
40
40
40
40
40
40
40
ENDCHAR
STARTCHAR Iogonek
ENCODING 302
SWIDTH 230 0
DWIDTH 3 0
BBX 2 10 0 -2
BITMAP
40
40
40
40
40
40
40
40
80
C0
ENDCHAR
STARTCHAR iogonek
ENCODING 303
SWIDTH 210 0
DWIDTH 3 0
BBX 2 10 0 -2
BITMAP
40
00
40
40
40
40
40
40
80
80
ENDCHAR
STARTCHAR Idotaccent
ENCODING 304
SWIDTH 230 0
DWIDTH 3 0
BBX 1 9 1 0
BITMAP
80
80
80
80
80
80
80
80
80
ENDCHAR
STARTCHAR dotlessi
ENCODING 305
SWIDTH 212 0
DWIDTH 3 0
BBX 1 6 1 0
BITMAP
80
80
80
80
80
80
ENDCHAR
STARTCHAR IJ
ENCODING 306
SWIDTH 721 0
DWIDTH 9 0
BBX 7 8 1 0
BITMAP
82
82
82
82
82
A2
A2
9C
ENDCHAR
STARTCHAR ij
ENCODING 307
SWIDTH 419 0
DWIDTH 5 0
BBX 3 10 1 -2
BITMAP
A0
00
A0
A0
A0
A0
A0
A0
20
60
ENDCHAR
STARTCHAR Jcircumflex
ENCODING 308
SWIDTH 494 0
DWIDTH 6 0
BBX 6 10 0 0
BITMAP
08
14
08
08
08
08
08
88
88
78
ENDCHAR
STARTCHAR jcircumflex
ENCODING 309
SWIDTH 209 0
DWIDTH 3 0
BBX 3 10 -1 -2
BITMAP
20
40
20
20
20
20
20
20
20
C0
ENDCHAR
STARTCHAR uni0136
ENCODING 310
SWIDTH 530 0
DWIDTH 6 0
BBX 5 11 1 -3
BITMAP
88
90
A0
C0
A0
90
90
88
20
20
20
ENDCHAR
STARTCHAR uni0137
ENCODING 311
SWIDTH 431 0
DWIDTH 5 0
BBX 4 11 1 -3
BITMAP
80
80
90
A0
C0
C0
A0
90
00
40
40
ENDCHAR
STARTCHAR Lacute
ENCODING 313
SWIDTH 451 0
DWIDTH 5 0
BBX 4 10 1 0
BITMAP
40
80
80
80
80
80
80
80
80
F0
ENDCHAR
STARTCHAR lacute
ENCODING 314
SWIDTH 207 0
DWIDTH 2 0
BBX 2 11 1 0
BITMAP
40
80
00
80
80
80
80
80
80
80
80
ENDCHAR
STARTCHAR uni013B
ENCODING 315
SWIDTH 451 0
DWIDTH 5 0
BBX 4 11 1 -3
BITMAP
80
80
80
80
80
80
80
F0
00
20
40
ENDCHAR
STARTCHAR uni013C
ENCODING 316
SWIDTH 211 0
DWIDTH 3 0
BBX 1 11 1 -3
BITMAP
80
80
80
80
80
80
80
80
00
80
80
ENDCHAR
STARTCHAR Lcaron
ENCODING 317
SWIDTH 451 0
DWIDTH 5 0
BBX 4 8 1 0
BITMAP
90
A0
A0
80
80
80
80
F0
ENDCHAR
STARTCHAR lcaron
ENCODING 318
SWIDTH 274 0
DWIDTH 3 0
BBX 2 8 1 0
BITMAP
C0
C0
C0
80
80
80
80
80
ENDCHAR
STARTCHAR Ldot
ENCODING 319
SWIDTH 500 0
DWIDTH 6 0
BBX 4 8 1 0
BITMAP
80
80
80
A0
A0
80
80
F0
ENDCHAR
STARTCHAR ldot
ENCODING 320
SWIDTH 314 0
DWIDTH 4 0
BBX 2 8 1 0
BITMAP
80
80
80
C0
C0
80
80
80
ENDCHAR
STARTCHAR Lslash
ENCODING 321
SWIDTH 504 0
DWIDTH 6 0
BBX 5 8 0 0
BITMAP
40
40
60
C0
40
40
40
78
ENDCHAR
STARTCHAR lslash
ENCODING 322
SWIDTH 296 0
DWIDTH 4 0
BBX 3 8 0 0
BITMAP
40
40
60
C0
40
40
40
40
ENDCHAR
STARTCHAR Nacute
ENCODING 323
SWIDTH 579 0
DWIDTH 7 0
BBX 5 10 1 0
BITMAP
10
20
88
88
C8
A8
A8
98
88
88
ENDCHAR
STARTCHAR nacute
ENCODING 324
SWIDTH 507 0
DWIDTH 6 0
BBX 4 8 1 0
BITMAP
20
00
F0
90
90
90
90
90
ENDCHAR
STARTCHAR uni0145
ENCODING 325
SWIDTH 579 0
DWIDTH 7 0
BBX 5 11 1 -3
BITMAP
88
88
C8
A8
A8
98
88
88
00
20
20
ENDCHAR
STARTCHAR uni0146
ENCODING 326
SWIDTH 505 0
DWIDTH 6 0
BBX 4 9 1 -3
BITMAP
F0
90
90
90
90
90
00
20
40
ENDCHAR
STARTCHAR Ncaron
ENCODING 327
SWIDTH 579 0
DWIDTH 7 0
BBX 5 10 1 0
BITMAP
50
20
88
88
C8
A8
A8
98
88
88
ENDCHAR
STARTCHAR ncaron
ENCODING 328
SWIDTH 507 0
DWIDTH 6 0
BBX 4 8 1 0
BITMAP
60
00
F0
90
90
90
90
90
ENDCHAR
STARTCHAR Eng
ENCODING 330
SWIDTH 519 0
DWIDTH 6 0
BBX 5 10 1 -2
BITMAP
88
88
C8
A8
A8
98
88
88
08
18
ENDCHAR
STARTCHAR eng
ENCODING 331
SWIDTH 507 0
DWIDTH 6 0
BBX 4 8 1 -2
BITMAP
F0
90
90
90
90
90
10
30
ENDCHAR
STARTCHAR Omacron
ENCODING 332
SWIDTH 553 0
DWIDTH 7 0
BBX 5 10 1 0
BITMAP
70
00
F0
88
88
88
88
88
88
F0
ENDCHAR
STARTCHAR omacron
ENCODING 333
SWIDTH 496 0
DWIDTH 6 0
BBX 4 8 1 0
BITMAP
60
00
F0
90
90
90
90
F0
ENDCHAR
STARTCHAR Obreve
ENCODING 334
SWIDTH 553 0
DWIDTH 7 0
BBX 5 10 1 0
BITMAP
50
20
F0
88
88
88
88
88
88
F0
ENDCHAR
STARTCHAR obreve
ENCODING 335
SWIDTH 496 0
DWIDTH 6 0
BBX 4 8 1 0
BITMAP
A0
60
F0
90
90
90
90
F0
ENDCHAR
STARTCHAR Ohungarumlaut
ENCODING 336
SWIDTH 553 0
DWIDTH 7 0
BBX 5 10 1 0
BITMAP
30
50
F0
88
88
88
88
88
88
F0
ENDCHAR
STARTCHAR ohungarumlaut
ENCODING 337
SWIDTH 496 0
DWIDTH 6 0
BBX 4 8 1 0
BITMAP
70
60
F0
90
90
90
90
F0
ENDCHAR
STARTCHAR OE
ENCODING 338
SWIDTH 775 0
DWIDTH 9 0
BBX 7 8 1 0
BITMAP
FE
90
90
90
9E
90
90
FE
ENDCHAR
STARTCHAR oe
ENCODING 339
SWIDTH 812 0
DWIDTH 10 0
BBX 8 6 1 0
BITMAP
FF
91
91
8F
90
FF
ENDCHAR
STARTCHAR Racute
ENCODING 340
SWIDTH 534 0
DWIDTH 6 0
BBX 5 10 1 0
BITMAP
20
40
F0
88
88
88
F0
90
90
88
ENDCHAR
STARTCHAR racute
ENCODING 341
SWIDTH 313 0
DWIDTH 4 0
BBX 2 8 1 0
BITMAP
40
00
C0
80
80
80
80
80
ENDCHAR
STARTCHAR uni0156
ENCODING 342
SWIDTH 534 0
DWIDTH 6 0
BBX 5 11 1 -3
BITMAP
F0
88
88
88
F0
90
90
88
00
20
20
ENDCHAR
STARTCHAR uni0157
ENCODING 343
SWIDTH 313 0
DWIDTH 4 0
BBX 2 9 1 -3
BITMAP
C0
80
80
80
80
80
00
80
80
ENDCHAR
STARTCHAR Rcaron
ENCODING 344
SWIDTH 534 0
DWIDTH 6 0
BBX 5 10 1 0
BITMAP
60
20
F0
88
88
88
F0
90
90
88
ENDCHAR
STARTCHAR rcaron
ENCODING 345
SWIDTH 313 0
DWIDTH 4 0
BBX 2 8 1 0
BITMAP
C0
00
C0
80
80
80
80
80
ENDCHAR
STARTCHAR Sacute
ENCODING 346
SWIDTH 562 0
DWIDTH 7 0
BBX 5 10 1 0
BITMAP
30
20
F0
88
80
C0
30
08
88
F0
ENDCHAR
STARTCHAR sacute
ENCODING 347
SWIDTH 427 0
DWIDTH 5 0
BBX 4 8 1 0
BITMAP
60
00
E0
80
C0
20
10
E0
ENDCHAR
STARTCHAR Scircumflex
ENCODING 348
SWIDTH 562 0
DWIDTH 7 0
BBX 5 10 1 0
BITMAP
20
50
F0
88
80
C0
30
08
88
F0
ENDCHAR
STARTCHAR scircumflex
ENCODING 349
SWIDTH 427 0
DWIDTH 5 0
BBX 4 8 1 0
BITMAP
40
A0
E0
80
C0
20
10
E0
ENDCHAR
STARTCHAR uni015E
ENCODING 350
SWIDTH 562 0
DWIDTH 7 0
BBX 5 10 1 -2
BITMAP
F0
88
80
C0
30
08
88
F0
20
20
ENDCHAR
STARTCHAR uni015F
ENCODING 351
SWIDTH 427 0
DWIDTH 5 0
BBX 4 8 1 -2
BITMAP
E0
80
C0
20
10
E0
40
40
ENDCHAR
STARTCHAR Scaron
ENCODING 352
SWIDTH 562 0
DWIDTH 7 0
BBX 5 10 1 0
BITMAP
70
20
F0
88
80
C0
30
08
88
F0
ENDCHAR
STARTCHAR scaron
ENCODING 353
SWIDTH 427 0
DWIDTH 5 0
BBX 4 8 1 0
BITMAP
A0
40
E0
80
C0
20
10
E0
ENDCHAR
STARTCHAR uni0162
ENCODING 354
SWIDTH 420 0
DWIDTH 5 0
BBX 5 11 0 -3
BITMAP
F8
20
20
20
20
20
20
20
20
20
20
ENDCHAR
STARTCHAR uni0163
ENCODING 355
SWIDTH 347 0
DWIDTH 4 0
BBX 4 10 0 -3
BITMAP
40
F0
40
40
40
40
30
20
20
20
ENDCHAR
STARTCHAR Tcaron
ENCODING 356
SWIDTH 420 0
DWIDTH 5 0
BBX 5 10 0 0
BITMAP
50
20
F8
20
20
20
20
20
20
20
ENDCHAR
STARTCHAR tcaron
ENCODING 357
SWIDTH 396 0
DWIDTH 5 0
BBX 5 8 0 0
BITMAP
48
48
F0
40
40
40
40
30
ENDCHAR
STARTCHAR Tbar
ENCODING 358
SWIDTH 501 0
DWIDTH 6 0
BBX 5 8 0 0
BITMAP
F8
20
20
70
20
20
20
20
ENDCHAR
STARTCHAR tbar
ENCODING 359
SWIDTH 350 0
DWIDTH 4 0
BBX 4 7 0 0
BITMAP
40
F0
40
F0
40
40
30
ENDCHAR
STARTCHAR Utilde
ENCODING 360
SWIDTH 552 0
DWIDTH 7 0
BBX 5 10 1 0
BITMAP
60
50
88
88
88
88
88
88
88
F0
ENDCHAR
STARTCHAR utilde
ENCODING 361
SWIDTH 507 0
DWIDTH 6 0
BBX 4 8 1 0
BITMAP
A0
50
90
90
90
90
90
F0
ENDCHAR
STARTCHAR Umacron
ENCODING 362
SWIDTH 552 0
DWIDTH 7 0
BBX 5 10 1 0
BITMAP
70
00
88
88
88
88
88
88
88
F0
ENDCHAR
STARTCHAR umacron
ENCODING 363
SWIDTH 507 0
DWIDTH 6 0
BBX 4 8 1 0
BITMAP
60
00
90
90
90
90
90
F0
ENDCHAR
STARTCHAR Ubreve
ENCODING 364
SWIDTH 552 0
DWIDTH 7 0
BBX 5 10 1 0
BITMAP
50
20
88
88
88
88
88
88
88
F0
ENDCHAR
STARTCHAR ubreve
ENCODING 365
SWIDTH 507 0
DWIDTH 6 0
BBX 4 8 1 0
BITMAP
60
60
90
90
90
90
90
F0
ENDCHAR
STARTCHAR Uring
ENCODING 366
SWIDTH 552 0
DWIDTH 7 0
BBX 5 11 1 0
BITMAP
20
50
50
A8
88
88
88
88
88
88
F0
ENDCHAR
STARTCHAR uring
ENCODING 367
SWIDTH 507 0
DWIDTH 6 0
BBX 4 9 1 0
BITMAP
60
60
60
90
90
90
90
90
F0
ENDCHAR
STARTCHAR Uhungarumlaut
ENCODING 368
SWIDTH 552 0
DWIDTH 7 0
BBX 5 10 1 0
BITMAP
30
60
88
88
88
88
88
88
88
F0
ENDCHAR
STARTCHAR uhungarumlaut
ENCODING 369
SWIDTH 507 0
DWIDTH 6 0
BBX 4 8 1 0
BITMAP
70
60
90
90
90
90
90
F0
ENDCHAR
STARTCHAR Uogonek
ENCODING 370
SWIDTH 552 0
DWIDTH 7 0
BBX 5 10 1 -2
BITMAP
88
88
88
88
88
88
88
F0
20
20
ENDCHAR
STARTCHAR uogonek
ENCODING 371
SWIDTH 503 0
DWIDTH 6 0
BBX 4 8 1 -2
BITMAP
90
90
90
90
90
F0
10
10
ENDCHAR
STARTCHAR Wcircumflex
ENCODING 372
SWIDTH 795 0
DWIDTH 10 0
BBX 9 10 0 0
BITMAP
0800
1400
8880
8880
4C80
5480
5500
5300
2300
2300
ENDCHAR
STARTCHAR wcircumflex
ENCODING 373
SWIDTH 682 0
DWIDTH 8 0
BBX 8 8 0 0
BITMAP
18
00
89
99
5A
56
66
24
ENDCHAR
STARTCHAR Ycircumflex
ENCODING 374
SWIDTH 493 0
DWIDTH 6 0
BBX 6 10 0 0
BITMAP
30
30
84
48
48
30
20
20
20
20
ENDCHAR
STARTCHAR ycircumflex
ENCODING 375
SWIDTH 459 0
DWIDTH 6 0
BBX 5 10 0 -2
BITMAP
30
00
88
48
48
50
30
20
20
40
ENDCHAR
STARTCHAR Ydieresis
ENCODING 376
SWIDTH 493 0
DWIDTH 6 0
BBX 6 10 0 0
BITMAP
50
50
84
48
48
30
20
20
20
20
ENDCHAR
STARTCHAR Zacute
ENCODING 377
SWIDTH 482 0
DWIDTH 6 0
BBX 5 10 0 0
BITMAP
10
10
78
08
10
10
20
40
40
F8
ENDCHAR
STARTCHAR zacute
ENCODING 378
SWIDTH 405 0
DWIDTH 5 0
BBX 4 8 0 0
BITMAP
10
20
F0
10
20
20
40
F0
ENDCHAR
STARTCHAR Zdotaccent
ENCODING 379
SWIDTH 482 0
DWIDTH 6 0
BBX 5 10 0 0
BITMAP
10
00
78
08
10
10
20
40
40
F8
ENDCHAR
STARTCHAR zdotaccent
ENCODING 380
SWIDTH 405 0
DWIDTH 5 0
BBX 4 8 0 0
BITMAP
20
00
F0
10
20
20
40
F0
ENDCHAR
STARTCHAR Zcaron
ENCODING 381
SWIDTH 482 0
DWIDTH 6 0
BBX 5 10 0 0
BITMAP
30
10
78
08
10
10
20
40
40
F8
ENDCHAR
STARTCHAR zcaron
ENCODING 382
SWIDTH 405 0
DWIDTH 5 0
BBX 4 8 0 0
BITMAP
30
00
F0
10
20
20
40
F0
ENDCHAR
STARTCHAR florin
ENCODING 402
SWIDTH 494 0
DWIDTH 6 0
BBX 6 10 0 -2
BITMAP
0C
10
10
38
20
20
20
20
20
C0
ENDCHAR
STARTCHAR AEacute
ENCODING 508
SWIDTH 773 0
DWIDTH 9 0
BBX 9 10 0 0
BITMAP
0400
0400
0F80
1800
1800
2800
2700
7800
4800
8780
ENDCHAR
STARTCHAR aeacute
ENCODING 509
SWIDTH 795 0
DWIDTH 10 0
BBX 8 8 1 0
BITMAP
08
00
FE
11
71
9F
90
FF
ENDCHAR
STARTCHAR Oslashacute
ENCODING 510
SWIDTH 558 0
DWIDTH 7 0
BBX 5 10 1 0
BITMAP
30
20
F8
88
98
A8
C8
C8
88
F0
ENDCHAR
STARTCHAR oslashacute
ENCODING 511
SWIDTH 521 0
DWIDTH 6 0
BBX 6 8 0 0
BITMAP
18
00
7C
48
54
64
44
F8
ENDCHAR
STARTCHAR uni0218
ENCODING 536
SWIDTH 562 0
DWIDTH 7 0
BBX 5 11 1 -3
BITMAP
F0
88
80
C0
30
08
88
F0
00
20
20
ENDCHAR
STARTCHAR uni0219
ENCODING 537
SWIDTH 427 0
DWIDTH 5 0
BBX 4 9 1 -3
BITMAP
E0
80
C0
20
10
E0
40
40
40
ENDCHAR
STARTCHAR circumflex
ENCODING 710
SWIDTH 326 0
DWIDTH 4 0
BBX 2 1 1 7
BITMAP
C0
ENDCHAR
STARTCHAR caron
ENCODING 711
SWIDTH 326 0
DWIDTH 4 0
BBX 2 1 1 7
BITMAP
C0
ENDCHAR
STARTCHAR uni02C9
ENCODING 713
SWIDTH 358 0
DWIDTH 4 0
BBX 3 1 1 7
BITMAP
E0
ENDCHAR
STARTCHAR breve
ENCODING 728
SWIDTH 332 0
DWIDTH 4 0
BBX 2 2 1 6
BITMAP
C0
C0
ENDCHAR
STARTCHAR dotaccent
ENCODING 729
SWIDTH 183 0
DWIDTH 2 0
BBX 1 1 1 7
BITMAP
80
ENDCHAR
STARTCHAR ring
ENCODING 730
SWIDTH 297 0
DWIDTH 4 0
BBX 2 3 1 6
BITMAP
80
C0
80
ENDCHAR
STARTCHAR ogonek
ENCODING 731
SWIDTH 243 0
DWIDTH 3 0
BBX 1 2 1 -2
BITMAP
80
80
ENDCHAR
STARTCHAR tilde
ENCODING 732
SWIDTH 369 0
DWIDTH 4 0
BBX 2 2 1 6
BITMAP
C0
C0
ENDCHAR
STARTCHAR hungarumlaut
ENCODING 733
SWIDTH 377 0
DWIDTH 5 0
BBX 3 2 1 6
BITMAP
A0
C0
ENDCHAR
STARTCHAR Mu
ENCODING 924
SWIDTH 527 0
DWIDTH 6 0
BBX 4 8 1 -1
BITMAP
90
90
90
90
90
90
F0
80
ENDCHAR
STARTCHAR Pi
ENCODING 928
SWIDTH 605 0
DWIDTH 7 0
BBX 7 8 0 0
BITMAP
FE
24
24
24
24
24
24
24
ENDCHAR
STARTCHAR Sigma
ENCODING 931
SWIDTH 481 0
DWIDTH 6 0
BBX 4 8 1 0
BITMAP
F0
80
40
40
40
40
80
F0
ENDCHAR
STARTCHAR uni0901
ENCODING 2305
SWIDTH 0 0
DWIDTH 0 0
BBX 4 3 -3 8
BITMAP
40
90
E0
ENDCHAR
STARTCHAR uni0902
ENCODING 2306
SWIDTH 0 0
DWIDTH 0 0
BBX 1 1 -2 9
BITMAP
80
ENDCHAR
STARTCHAR uni0903
ENCODING 2307
SWIDTH 247 0
DWIDTH 3 0
BBX 1 5 1 1
BITMAP
80
00
00
00
80
ENDCHAR
STARTCHAR uni0905
ENCODING 2309
SWIDTH 598 0
DWIDTH 7 0
BBX 7 8 0 0
BITMAP
66
14
14
64
1C
14
E4
04
ENDCHAR
STARTCHAR uni0906
ENCODING 2310
SWIDTH 828 0
DWIDTH 10 0
BBX 10 8 0 0
BITMAP
67C0
1480
1480
6480
1C80
1480
E480
0480
ENDCHAR
STARTCHAR uni0907
ENCODING 2311
SWIDTH 478 0
DWIDTH 6 0
BBX 6 8 0 0
BITMAP
FC
78
40
40
78
48
48
70
ENDCHAR
STARTCHAR uni0908
ENCODING 2312
SWIDTH 478 0
DWIDTH 6 0
BBX 6 11 0 0
BITMAP
18
10
10
FC
78
40
40
78
48
48
70
ENDCHAR
STARTCHAR uni0909
ENCODING 2313
SWIDTH 471 0
DWIDTH 6 0
BBX 6 8 0 0
BITMAP
FC
08
08
30
08
88
48
30
ENDCHAR
STARTCHAR uni090A
ENCODING 2314
SWIDTH 661 0
DWIDTH 8 0
BBX 8 8 0 0
BITMAP
FF
08
08
3E
09
89
49
36
ENDCHAR
STARTCHAR uni090B
ENCODING 2315
SWIDTH 753 0
DWIDTH 9 0
BBX 9 8 0 0
BITMAP
FF80
0800
7900
4F00
4B00
1A00
2A00
4900
ENDCHAR
STARTCHAR uni090C
ENCODING 2316
SWIDTH 676 0
DWIDTH 8 0
BBX 8 10 0 -2
BITMAP
FF
02
7E
52
52
42
62
06
04
07
ENDCHAR
STARTCHAR uni090D
ENCODING 2317
SWIDTH 521 0
DWIDTH 6 0
BBX 6 10 0 1
BITMAP
78
00
00
FC
44
44
58
40
40
38
ENDCHAR
STARTCHAR uni090E
ENCODING 2318
SWIDTH 522 0
DWIDTH 6 0
BBX 6 10 0 1
BITMAP
20
10
0C
FC
44
44
58
40
40
38
ENDCHAR
STARTCHAR uni090F
ENCODING 2319
SWIDTH 526 0
DWIDTH 6 0
BBX 6 7 0 1
BITMAP
FC
44
44
58
40
40
38
ENDCHAR
STARTCHAR uni0910
ENCODING 2320
SWIDTH 526 0
DWIDTH 6 0
BBX 6 10 0 1
BITMAP
10
08
08
FC
44
44
58
40
40
38
ENDCHAR
STARTCHAR uni0911
ENCODING 2321
SWIDTH 829 0
DWIDTH 10 0
BBX 10 11 0 0
BITMAP
0480
0380
0000
67C0
1480
1480
6480
1C80
1480
E480
0480
ENDCHAR
STARTCHAR uni0912
ENCODING 2322
SWIDTH 828 0
DWIDTH 10 0
BBX 10 11 0 0
BITMAP
0200
0300
0080
67C0
1480
1480
6480
1C80
1480
E480
0480
ENDCHAR
STARTCHAR uni0913
ENCODING 2323
SWIDTH 829 0
DWIDTH 10 0
BBX 10 11 0 0
BITMAP
0200
0100
0080
67C0
1480
1480
6480
1C80
1480
E480
0480
ENDCHAR
STARTCHAR uni0914
ENCODING 2324
SWIDTH 829 0
DWIDTH 10 0
BBX 10 11 0 0
BITMAP
0280
0180
0080
67C0
1480
1480
6480
1C80
1480
E480
0480
ENDCHAR
STARTCHAR uni0915
ENCODING 2325
SWIDTH 725 0
DWIDTH 9 0
BBX 9 8 0 0
BITMAP
FF80
6E00
4900
4900
4900
4900
7A00
0800
ENDCHAR
STARTCHAR uni0916
ENCODING 2326
SWIDTH 696 0
DWIDTH 8 0
BBX 9 8 0 0
BITMAP
FF80
2600
2A00
EA00
4A00
4600
2200
1200
ENDCHAR
STARTCHAR uni0917
ENCODING 2327
SWIDTH 494 0
DWIDTH 6 0
BBX 6 8 0 0
BITMAP
FC
48
48
48
C8
08
08
08
ENDCHAR
STARTCHAR uni0918
ENCODING 2328
SWIDTH 559 0
DWIDTH 7 0
BBX 7 8 0 0
BITMAP
FE
44
24
44
44
44
3C
04
ENDCHAR
STARTCHAR uni0919
ENCODING 2329
SWIDTH 505 0
DWIDTH 6 0
BBX 6 8 0 0
BITMAP
FC
78
40
44
70
08
48
30
ENDCHAR
STARTCHAR uni091A
ENCODING 2330
SWIDTH 563 0
DWIDTH 7 0
BBX 7 8 0 0
BITMAP
FE
04
F4
44
44
3C
04
04
ENDCHAR
STARTCHAR uni091B
ENCODING 2331
SWIDTH 581 0
DWIDTH 7 0
BBX 7 7 0 1
BITMAP
FE
44
4C
24
44
44
7C
ENDCHAR
STARTCHAR uni091C
ENCODING 2332
SWIDTH 547 0
DWIDTH 7 0
BBX 7 8 0 0
BITMAP
FE
04
78
24
14
24
E4
04
ENDCHAR
STARTCHAR uni091D
ENCODING 2333
SWIDTH 664 0
DWIDTH 8 0
BBX 8 8 0 0
BITMAP
FF
72
42
7E
0A
4A
72
42
ENDCHAR
STARTCHAR uni091E
ENCODING 2334
SWIDTH 592 0
DWIDTH 7 0
BBX 7 8 0 0
BITMAP
FE
64
14
1C
14
14
64
04
ENDCHAR
STARTCHAR uni091F
ENCODING 2335
SWIDTH 485 0
DWIDTH 6 0
BBX 6 7 0 1
BITMAP
FC
08
78
40
40
48
78
ENDCHAR
STARTCHAR uni0920
ENCODING 2336
SWIDTH 512 0
DWIDTH 6 0
BBX 6 7 0 1
BITMAP
FC
08
70
48
48
48
78
ENDCHAR
STARTCHAR uni0921
ENCODING 2337
SWIDTH 475 0
DWIDTH 6 0
BBX 6 8 0 0
BITMAP
FC
78
40
40
70
08
48
30
ENDCHAR
STARTCHAR uni0922
ENCODING 2338
SWIDTH 485 0
DWIDTH 6 0
BBX 6 7 0 1
BITMAP
FC
08
78
58
58
48
78
ENDCHAR
STARTCHAR uni0923
ENCODING 2339
SWIDTH 681 0
DWIDTH 8 0
BBX 8 8 0 0
BITMAP
FF
4A
4A
4A
32
02
02
02
ENDCHAR
STARTCHAR uni0924
ENCODING 2340
SWIDTH 496 0
DWIDTH 6 0
BBX 6 8 0 0
BITMAP
FC
08
78
48
48
48
48
28
ENDCHAR
STARTCHAR uni0925
ENCODING 2341
SWIDTH 593 0
DWIDTH 7 0
BBX 6 8 1 0
BITMAP
EC
A8
28
C8
88
F8
08
08
ENDCHAR
STARTCHAR uni0926
ENCODING 2342
SWIDTH 489 0
DWIDTH 6 0
BBX 6 8 0 0
BITMAP
FC
38
40
40
48
48
38
08
ENDCHAR
STARTCHAR uni0927
ENCODING 2343
SWIDTH 560 0
DWIDTH 7 0
BBX 7 8 0 0
BITMAP
EE
44
24
44
44
44
3C
04
ENDCHAR
STARTCHAR uni0928
ENCODING 2344
SWIDTH 473 0
DWIDTH 6 0
BBX 6 8 0 0
BITMAP
FC
08
78
88
88
08
08
08
ENDCHAR
STARTCHAR uni0928093C
ENCODING 2345
SWIDTH 473 0
DWIDTH 6 0
BBX 6 8 0 0
BITMAP
FC
08
78
88
88
08
08
28
ENDCHAR
STARTCHAR uni092A
ENCODING 2346
SWIDTH 503 0
DWIDTH 6 0
BBX 6 8 0 0
BITMAP
FC
48
48
48
38
08
08
08
ENDCHAR
STARTCHAR uni092B
ENCODING 2347
SWIDTH 739 0
DWIDTH 9 0
BBX 9 8 0 0
BITMAP
FF80
4E00
4900
4900
3900
0900
0A00
0800
ENDCHAR
STARTCHAR uni092C
ENCODING 2348
SWIDTH 491 0
DWIDTH 6 0
BBX 6 8 0 0
BITMAP
FC
68
48
68
58
48
38
08
ENDCHAR
STARTCHAR uni092D
ENCODING 2349
SWIDTH 491 0
DWIDTH 6 0
BBX 6 8 0 0
BITMAP
9C
48
48
78
48
08
08
08
ENDCHAR
STARTCHAR uni092E
ENCODING 2350
SWIDTH 490 0
DWIDTH 6 0
BBX 6 8 0 0
BITMAP
FC
48
48
78
48
08
08
08
ENDCHAR
STARTCHAR uni092F
ENCODING 2351
SWIDTH 564 0
DWIDTH 7 0
BBX 7 8 0 0
BITMAP
FE
24
64
44
44
3C
04
04
ENDCHAR
STARTCHAR uni0930
ENCODING 2352
SWIDTH 337 0
DWIDTH 4 0
BBX 4 8 0 0
BITMAP
F0
20
20
E0
40
40
20
20
ENDCHAR
STARTCHAR uni0930093C
ENCODING 2353
SWIDTH 347 0
DWIDTH 4 0
BBX 4 8 0 0
BITMAP
F0
20
20
60
40
40
20
90
ENDCHAR
STARTCHAR uni0932
ENCODING 2354
SWIDTH 676 0
DWIDTH 8 0
BBX 8 8 0 0
BITMAP
FF
02
7E
52
52
42
62
02
ENDCHAR
STARTCHAR uni0933
ENCODING 2355
SWIDTH 672 0
DWIDTH 8 0
BBX 8 7 0 1
BITMAP
FF
04
7E
4A
4A
52
7E
ENDCHAR
STARTCHAR uni0933093C
ENCODING 2356
SWIDTH 672 0
DWIDTH 8 0
BBX 8 8 0 0
BITMAP
FF
04
7E
4A
4A
52
7E
20
ENDCHAR
STARTCHAR uni0935
ENCODING 2357
SWIDTH 484 0
DWIDTH 6 0
BBX 6 8 0 0
BITMAP
FC
68
48
48
48
48
38
08
ENDCHAR
STARTCHAR uni0936
ENCODING 2358
SWIDTH 614 0
DWIDTH 7 0
BBX 7 8 1 0
BITMAP
E6
A8
28
C8
88
88
48
28
ENDCHAR
STARTCHAR uni0937
ENCODING 2359
SWIDTH 505 0
DWIDTH 6 0
BBX 6 8 0 0
BITMAP
FC
68
58
48
38
08
08
08
ENDCHAR
STARTCHAR uni0938
ENCODING 2360
SWIDTH 575 0
DWIDTH 7 0
BBX 7 8 0 0
BITMAP
FE
24
24
FC
44
44
24
24
ENDCHAR
STARTCHAR uni0939
ENCODING 2361
SWIDTH 481 0
DWIDTH 6 0
BBX 6 9 0 -1
BITMAP
FC
08
78
40
30
48
48
40
38
ENDCHAR
STARTCHAR uni093C
ENCODING 2364
SWIDTH 0 0
DWIDTH 0 0
BBX 1 1 -2 -1
BITMAP
80
ENDCHAR
STARTCHAR uni093D
ENCODING 2365
SWIDTH 529 0
DWIDTH 6 0
BBX 4 8 1 0
BITMAP
70
80
40
20
10
10
90
60
ENDCHAR
STARTCHAR uni093E
ENCODING 2366
SWIDTH 231 0
DWIDTH 3 0
BBX 3 8 0 0
BITMAP
E0
40
40
40
40
40
40
40
ENDCHAR
STARTCHAR uni093F
ENCODING 2367
SWIDTH 231 0
DWIDTH 3 0
BBX 8 11 0 0
BITMAP
7E
41
40
E0
40
40
40
40
40
40
40
ENDCHAR
STARTCHAR uni0940
ENCODING 2368
SWIDTH 231 0
DWIDTH 3 0
BBX 5 11 -2 0
BITMAP
60
90
10
38
10
10
10
10
10
10
10
ENDCHAR
STARTCHAR uni0941
ENCODING 2369
SWIDTH 0 0
DWIDTH 0 0
BBX 4 4 -4 -3
BITMAP
30
90
90
70
ENDCHAR
STARTCHAR uni0942
ENCODING 2370
SWIDTH 0 0
DWIDTH 0 0
BBX 4 3 -3 -3
BITMAP
E0
90
D0
ENDCHAR
STARTCHAR uni0943
ENCODING 2371
SWIDTH 0 0
DWIDTH 0 0
BBX 3 4 -3 -3
BITMAP
C0
80
A0
E0
ENDCHAR
STARTCHAR uni0945
ENCODING 2373
SWIDTH 0 0
DWIDTH 0 0
BBX 4 2 -3 9
BITMAP
90
E0
ENDCHAR
STARTCHAR uni0946
ENCODING 2374
SWIDTH 0 0
DWIDTH 0 0
BBX 3 3 -4 8
BITMAP
80
C0
20
ENDCHAR
STARTCHAR uni0947
ENCODING 2375
SWIDTH 0 0
DWIDTH 0 0
BBX 3 3 -4 8
BITMAP
80
40
20
ENDCHAR
STARTCHAR uni0948
ENCODING 2376
SWIDTH 0 0
DWIDTH 0 0
BBX 3 3 -4 8
BITMAP
A0
60
20
ENDCHAR
STARTCHAR uni0949
ENCODING 2377
SWIDTH 231 0
DWIDTH 3 0
BBX 3 11 0 0
BITMAP
A0
E0
00
E0
40
40
40
40
40
40
40
ENDCHAR
STARTCHAR uni094A
ENCODING 2378
SWIDTH 231 0
DWIDTH 3 0
BBX 4 11 -1 0
BITMAP
80
C0
20
70
20
20
20
20
20
20
20
ENDCHAR
STARTCHAR uni094B
ENCODING 2379
SWIDTH 231 0
DWIDTH 3 0
BBX 4 11 -1 0
BITMAP
80
40
20
70
20
20
20
20
20
20
20
ENDCHAR
STARTCHAR uni094C
ENCODING 2380
SWIDTH 231 0
DWIDTH 3 0
BBX 4 11 -1 0
BITMAP
A0
60
20
70
20
20
20
20
20
20
20
ENDCHAR
STARTCHAR uni094D
ENCODING 2381
SWIDTH 0 0
DWIDTH 0 0
BBX 2 2 -2 -3
BITMAP
80
40
ENDCHAR
STARTCHAR uni0950
ENCODING 2384
SWIDTH 847 0
DWIDTH 10 0
BBX 8 10 1 1
BITMAP
04
00
01
66
17
11
79
95
95
E7
ENDCHAR
STARTCHAR uni0951
ENCODING 2385
SWIDTH 0 0
DWIDTH 0 0
BBX 1 2 -2 9
BITMAP
80
80
ENDCHAR
STARTCHAR uni0952
ENCODING 2386
SWIDTH 0 0
DWIDTH 0 0
BBX 4 1 -5 -2
BITMAP
F0
ENDCHAR
STARTCHAR uni0953
ENCODING 2387
SWIDTH 0 0
DWIDTH 0 0
BBX 2 2 -3 9
BITMAP
80
40
ENDCHAR
STARTCHAR uni0954
ENCODING 2388
SWIDTH 0 0
DWIDTH 0 0
BBX 2 2 -2 9
BITMAP
40
C0
ENDCHAR
STARTCHAR uni0915093C
ENCODING 2392
SWIDTH 725 0
DWIDTH 9 0
BBX 9 8 0 0
BITMAP
FF80
6E00
4900
4900
4900
4900
7A00
2800
ENDCHAR
STARTCHAR uni0916093C
ENCODING 2393
SWIDTH 696 0
DWIDTH 8 0
BBX 9 8 0 0
BITMAP
FF80
2600
2A00
EA00
4A00
4600
2200
9200
ENDCHAR
STARTCHAR uni0917093C
ENCODING 2394
SWIDTH 494 0
DWIDTH 6 0
BBX 6 8 0 0
BITMAP
FC
48
48
48
C8
08
08
48
ENDCHAR
STARTCHAR uni091C093C
ENCODING 2395
SWIDTH 547 0
DWIDTH 7 0
BBX 7 8 0 0
BITMAP
FE
04
78
24
14
24
E4
44
ENDCHAR
STARTCHAR uni0921093C
ENCODING 2396
SWIDTH 475 0
DWIDTH 6 0
BBX 6 9 0 -1
BITMAP
FC
78
40
40
70
08
48
30
20
ENDCHAR
STARTCHAR uni0922093C
ENCODING 2397
SWIDTH 485 0
DWIDTH 6 0
BBX 6 9 0 -1
BITMAP
FC
08
78
58
58
48
78
00
10
ENDCHAR
STARTCHAR uni092B093C
ENCODING 2398
SWIDTH 739 0
DWIDTH 9 0
BBX 9 8 0 0
BITMAP
FF80
4E00
4900
4900
3900
0900
0A00
4800
ENDCHAR
STARTCHAR uni092F093C
ENCODING 2399
SWIDTH 564 0
DWIDTH 7 0
BBX 7 8 0 0
BITMAP
FE
24
64
44
44
3C
04
44
ENDCHAR
STARTCHAR uni0960
ENCODING 2400
SWIDTH 753 0
DWIDTH 9 0
BBX 9 9 0 -1
BITMAP
FF80
0800
7900
4B00
4F00
1A00
2B00
4A00
0300
ENDCHAR
STARTCHAR uni0961
ENCODING 2401
SWIDTH 676 0
DWIDTH 8 0
BBX 8 11 0 -3
BITMAP
FF
02
7E
52
52
52
64
04
06
04
06
ENDCHAR
STARTCHAR uni0964
ENCODING 2404
SWIDTH 286 0
DWIDTH 3 0
BBX 1 8 2 0
BITMAP
80
80
80
80
80
80
80
80
ENDCHAR
STARTCHAR uni0965
ENCODING 2405
SWIDTH 518 0
DWIDTH 6 0
BBX 3 8 2 0
BITMAP
A0
A0
A0
A0
A0
A0
A0
A0
ENDCHAR
STARTCHAR uni0966
ENCODING 2406
SWIDTH 519 0
DWIDTH 6 0
BBX 4 8 1 0
BITMAP
F0
90
90
90
90
90
90
60
ENDCHAR
STARTCHAR uni0967
ENCODING 2407
SWIDTH 288 0
DWIDTH 3 0
BBX 3 8 0 0
BITMAP
60
A0
20
20
20
20
20
20
ENDCHAR
STARTCHAR uni0968
ENCODING 2408
SWIDTH 453 0
DWIDTH 5 0
BBX 4 8 1 0
BITMAP
F0
90
10
20
40
80
80
F0
ENDCHAR
STARTCHAR uni0969
ENCODING 2409
SWIDTH 489 0
DWIDTH 6 0
BBX 4 8 1 0
BITMAP
F0
90
10
60
10
90
90
60
ENDCHAR
STARTCHAR uni096A
ENCODING 2410
SWIDTH 453 0
DWIDTH 5 0
BBX 5 8 0 0
BITMAP
10
28
28
48
88
F8
08
08
ENDCHAR
STARTCHAR uni096B
ENCODING 2411
SWIDTH 480 0
DWIDTH 6 0
BBX 4 8 1 0
BITMAP
F0
80
E0
10
10
90
90
60
ENDCHAR
STARTCHAR uni096C
ENCODING 2412
SWIDTH 495 0
DWIDTH 6 0
BBX 4 8 1 0
BITMAP
F0
80
F0
90
90
90
90
60
ENDCHAR
STARTCHAR uni096D
ENCODING 2413
SWIDTH 380 0
DWIDTH 5 0
BBX 4 8 0 0
BITMAP
F0
10
10
20
20
20
40
40
ENDCHAR
STARTCHAR uni096E
ENCODING 2414
SWIDTH 523 0
DWIDTH 6 0
BBX 4 8 1 0
BITMAP
F0
90
90
70
90
90
90
60
ENDCHAR
STARTCHAR uni096F
ENCODING 2415
SWIDTH 493 0
DWIDTH 6 0
BBX 4 8 1 0
BITMAP
F0
90
90
F0
10
10
10
E0
ENDCHAR
STARTCHAR uni0970
ENCODING 2416
SWIDTH 391 0
DWIDTH 5 0
BBX 4 5 0 2
BITMAP
60
90
90
90
60
ENDCHAR
STARTCHAR uni0972
ENCODING 2418
SWIDTH 598 0
DWIDTH 7 0
BBX 8 11 0 0
BITMAP
09
0E
00
66
14
14
64
1C
14
E4
04
ENDCHAR
STARTCHAR Wgrave
ENCODING 7808
SWIDTH 795 0
DWIDTH 10 0
BBX 9 10 0 0
BITMAP
1800
0800
8880
8880
4C80
5480
5500
5300
2300
2300
ENDCHAR
STARTCHAR wgrave
ENCODING 7809
SWIDTH 682 0
DWIDTH 8 0
BBX 8 8 0 0
BITMAP
10
00
89
99
5A
56
66
24
ENDCHAR
STARTCHAR Wacute
ENCODING 7810
SWIDTH 795 0
DWIDTH 10 0
BBX 9 10 0 0
BITMAP
0400
0800
8880
8880
4C80
5480
5500
5300
2300
2300
ENDCHAR
STARTCHAR wacute
ENCODING 7811
SWIDTH 682 0
DWIDTH 8 0
BBX 8 8 0 0
BITMAP
0C
00
89
99
5A
56
66
24
ENDCHAR
STARTCHAR Wdieresis
ENCODING 7812
SWIDTH 795 0
DWIDTH 10 0
BBX 9 10 0 0
BITMAP
1400
1400
8880
8880
4C80
5480
5500
5300
2300
2300
ENDCHAR
STARTCHAR wdieresis
ENCODING 7813
SWIDTH 682 0
DWIDTH 8 0
BBX 8 8 0 0
BITMAP
14
14
89
99
5A
56
66
24
ENDCHAR
STARTCHAR uni1E9E
ENCODING 7838
SWIDTH 542 0
DWIDTH 7 0
BBX 5 8 1 0
BITMAP
F8
90
90
90
88
88
88
B0
ENDCHAR
STARTCHAR Ygrave
ENCODING 7922
SWIDTH 493 0
DWIDTH 6 0
BBX 6 10 0 0
BITMAP
20
10
84
48
48
30
20
20
20
20
ENDCHAR
STARTCHAR ygrave
ENCODING 7923
SWIDTH 459 0
DWIDTH 6 0
BBX 5 10 0 -2
BITMAP
20
00
88
48
48
50
30
20
20
40
ENDCHAR
STARTCHAR uni200B
ENCODING 8203
SWIDTH 0 0
DWIDTH 0 0
BBX 1 1 0 0
BITMAP
00
ENDCHAR
STARTCHAR uni200C
ENCODING 8204
SWIDTH 0 0
DWIDTH 0 0
BBX 1 13 0 -3
BITMAP
80
80
80
80
80
80
80
80
80
80
80
80
80
ENDCHAR
STARTCHAR uni200D
ENCODING 8205
SWIDTH 0 0
DWIDTH 0 0
BBX 4 12 -2 -3
BITMAP
F0
60
D0
40
40
40
40
40
40
40
40
40
ENDCHAR
STARTCHAR endash
ENCODING 8211
SWIDTH 408 0
DWIDTH 5 0
BBX 4 1 0 3
BITMAP
F0
ENDCHAR
STARTCHAR emdash
ENCODING 8212
SWIDTH 537 0
DWIDTH 6 0
BBX 6 1 0 3
BITMAP
FC
ENDCHAR
STARTCHAR quoteleft
ENCODING 8216
SWIDTH 179 0
DWIDTH 2 0
BBX 1 3 1 5
BITMAP
80
80
80
ENDCHAR
STARTCHAR quoteright
ENCODING 8217
SWIDTH 179 0
DWIDTH 2 0
BBX 1 3 1 5
BITMAP
80
80
80
ENDCHAR
STARTCHAR quotesinglbase
ENCODING 8218
SWIDTH 187 0
DWIDTH 2 0
BBX 1 3 1 -1
BITMAP
80
80
80
ENDCHAR
STARTCHAR quotedblleft
ENCODING 8220
SWIDTH 329 0
DWIDTH 4 0
BBX 2 3 1 5
BITMAP
C0
C0
C0
ENDCHAR
STARTCHAR quotedblright
ENCODING 8221
SWIDTH 329 0
DWIDTH 4 0
BBX 2 3 1 5
BITMAP
C0
C0
C0
ENDCHAR
STARTCHAR quotedblbase
ENCODING 8222
SWIDTH 337 0
DWIDTH 4 0
BBX 2 3 1 -1
BITMAP
C0
C0
C0
ENDCHAR
STARTCHAR dagger
ENCODING 8224
SWIDTH 427 0
DWIDTH 5 0
BBX 4 8 1 0
BITMAP
40
40
F0
40
40
40
40
40
ENDCHAR
STARTCHAR daggerdbl
ENCODING 8225
SWIDTH 427 0
DWIDTH 5 0
BBX 4 8 1 0
BITMAP
40
40
F0
40
40
F0
40
40
ENDCHAR
STARTCHAR bullet
ENCODING 8226
SWIDTH 273 0
DWIDTH 3 0
BBX 1 2 1 3
BITMAP
80
80
ENDCHAR
STARTCHAR ellipsis
ENCODING 8230
SWIDTH 591 0
DWIDTH 7 0
BBX 5 2 1 0
BITMAP
A8
A8
ENDCHAR
STARTCHAR perthousand
ENCODING 8240
SWIDTH 1027 0
DWIDTH 12 0
BBX 11 8 1 0
BITMAP
C800
A800
B000
D000
1EC0
2AA0
2AA0
4EE0
ENDCHAR
STARTCHAR guilsinglleft
ENCODING 8249
SWIDTH 290 0
DWIDTH 3 0
BBX 2 4 1 1
BITMAP
40
80
80
40
ENDCHAR
STARTCHAR guilsinglright
ENCODING 8250
SWIDTH 290 0
DWIDTH 3 0
BBX 2 4 1 1
BITMAP
80
40
40
80
ENDCHAR
STARTCHAR fraction
ENCODING 8260
SWIDTH 117 0
DWIDTH 1 0
BBX 6 8 -2 0
BITMAP
04
08
10
10
20
40
80
80
ENDCHAR
STARTCHAR Euro
ENCODING 8364
SWIDTH 523 0
DWIDTH 6 0
BBX 5 8 0 0
BITMAP
38
48
40
F0
F0
40
48
38
ENDCHAR
STARTCHAR uni20B9
ENCODING 8377
SWIDTH 414 0
DWIDTH 5 0
BBX 5 8 0 0
BITMAP
F8
F8
20
E0
40
40
20
10
ENDCHAR
STARTCHAR trademark
ENCODING 8482
SWIDTH 591 0
DWIDTH 7 0
BBX 5 3 1 5
BITMAP
E8
98
A8
ENDCHAR
STARTCHAR uni2126
ENCODING 8486
SWIDTH 629 0
DWIDTH 8 0
BBX 7 8 0 0
BITMAP
3C
42
42
42
42
42
44
EE
ENDCHAR
STARTCHAR partialdiff
ENCODING 8706
SWIDTH 481 0
DWIDTH 6 0
BBX 4 9 1 0
BITMAP
C0
20
10
F0
90
90
90
90
60
ENDCHAR
STARTCHAR uni2206
ENCODING 8710
SWIDTH 594 0
DWIDTH 7 0
BBX 7 8 0 0
BITMAP
10
28
28
28
44
44
42
FE
ENDCHAR
STARTCHAR minus
ENCODING 8722
SWIDTH 523 0
DWIDTH 6 0
BBX 4 1 1 4
BITMAP
F0
ENDCHAR
STARTCHAR approxequal
ENCODING 8776
SWIDTH 523 0
DWIDTH 6 0
BBX 4 3 1 2
BITMAP
F0
00
F0
ENDCHAR
STARTCHAR notequal
ENCODING 8800
SWIDTH 523 0
DWIDTH 6 0
BBX 4 5 1 1
BITMAP
20
F0
20
F0
40
ENDCHAR
STARTCHAR lessequal
ENCODING 8804
SWIDTH 523 0
DWIDTH 6 0
BBX 4 5 1 1
BITMAP
30
C0
70
00
F0
ENDCHAR
STARTCHAR greaterequal
ENCODING 8805
SWIDTH 523 0
DWIDTH 6 0
BBX 4 5 1 1
BITMAP
C0
30
E0
00
F0
ENDCHAR
STARTCHAR uni25CC
ENCODING 9676
SWIDTH 701 0
DWIDTH 8 0
BBX 7 7 1 1
BITMAP
68
04
82
80
02
C4
30
ENDCHAR
STARTCHAR commaaccent
ENCODING 63171
SWIDTH 0 0
DWIDTH 0 0
BBX 1 3 2 -3
BITMAP
80
80
80
ENDCHAR
STARTCHAR .notdef
ENCODING -1
SWIDTH 600 0
DWIDTH 7 0
BBX 5 8 1 0
BITMAP
F8
88
88
88
88
88
88
F8
ENDCHAR
STARTCHAR .null
ENCODING -1
SWIDTH 0 0
DWIDTH 0 0
BBX 1 1 0 0
BITMAP
00
ENDCHAR
STARTCHAR nonmarkingreturn
ENCODING -1
SWIDTH 333 0
DWIDTH 4 0
BBX 1 1 0 0
BITMAP
00
ENDCHAR
STARTCHAR uni0915094D
ENCODING -1
SWIDTH 519 0
DWIDTH 6 0
BBX 8 8 0 0
BITMAP
FF
6E
49
48
48
48
78
08
ENDCHAR
STARTCHAR uni0916094D
ENCODING -1
SWIDTH 468 0
DWIDTH 6 0
BBX 7 8 0 0
BITMAP
FE
24
28
E8
48
46
20
10
ENDCHAR
STARTCHAR uni0917094D
ENCODING -1
SWIDTH 264 0
DWIDTH 3 0
BBX 3 5 0 3
BITMAP
E0
40
40
40
C0
ENDCHAR
STARTCHAR uni0918094D
ENCODING -1
SWIDTH 321 0
DWIDTH 4 0
BBX 5 7 0 1
BITMAP
F8
40
40
20
40
40
78
ENDCHAR
STARTCHAR uni0919094D
ENCODING -1
SWIDTH 505 0
DWIDTH 6 0
BBX 6 10 0 -2
BITMAP
FC
78
40
44
70
08
48
30
10
10
ENDCHAR
STARTCHAR uni091A094D
ENCODING -1
SWIDTH 330 0
DWIDTH 4 0
BBX 5 7 0 1
BITMAP
F8
00
F0
40
40
48
38
ENDCHAR
STARTCHAR uni091B094D
ENCODING -1
SWIDTH 581 0
DWIDTH 7 0
BBX 7 7 0 1
BITMAP
FE
4C
44
24
44
44
7C
ENDCHAR
STARTCHAR uni091C094D
ENCODING -1
SWIDTH 309 0
DWIDTH 4 0
BBX 5 7 0 1
BITMAP
F8
00
78
20
10
20
E0
ENDCHAR
STARTCHAR uni091D094D
ENCODING -1
SWIDTH 432 0
DWIDTH 5 0
BBX 6 8 0 0
BITMAP
FC
70
40
7C
08
48
70
40
ENDCHAR
STARTCHAR uni091E094D
ENCODING -1
SWIDTH 359 0
DWIDTH 4 0
BBX 6 7 0 1
BITMAP
FC
00
60
10
1C
10
60
ENDCHAR
STARTCHAR uni091F094D
ENCODING -1
SWIDTH 485 0
DWIDTH 6 0
BBX 6 10 0 -2
BITMAP
FC
08
78
40
40
48
78
00
10
10
ENDCHAR
STARTCHAR uni0920094D
ENCODING -1
SWIDTH 512 0
DWIDTH 6 0
BBX 6 10 0 -2
BITMAP
FC
08
70
48
48
48
78
00
10
10
ENDCHAR
STARTCHAR uni0921094D
ENCODING -1
SWIDTH 475 0
DWIDTH 6 0
BBX 6 10 0 -2
BITMAP
FC
78
40
40
70
08
48
30
10
10
ENDCHAR
STARTCHAR uni0922094D
ENCODING -1
SWIDTH 485 0
DWIDTH 6 0
BBX 6 10 0 -2
BITMAP
FC
08
78
58
58
48
78
00
10
10
ENDCHAR
STARTCHAR uni0923094D
ENCODING -1
SWIDTH 454 0
DWIDTH 5 0
BBX 6 6 0 2
BITMAP
FC
48
48
48
48
30
ENDCHAR
STARTCHAR uni0924094D
ENCODING -1
SWIDTH 263 0
DWIDTH 3 0
BBX 4 8 0 0
BITMAP
F0
00
70
40
40
40
40
20
ENDCHAR
STARTCHAR uni0925094D
ENCODING -1
SWIDTH 359 0
DWIDTH 4 0
BBX 5 7 1 1
BITMAP
E0
A0
20
C0
80
88
70
ENDCHAR
STARTCHAR uni0926094D
ENCODING -1
SWIDTH 489 0
DWIDTH 6 0
BBX 6 9 0 -1
BITMAP
FC
38
40
40
48
48
38
28
10
ENDCHAR
STARTCHAR uni0927094D
ENCODING -1
SWIDTH 321 0
DWIDTH 4 0
BBX 5 7 0 1
BITMAP
E8
40
40
20
40
40
78
ENDCHAR
STARTCHAR uni0928094D
ENCODING -1
SWIDTH 233 0
DWIDTH 3 0
BBX 4 6 0 2
BITMAP
F0
00
00
70
80
80
ENDCHAR
STARTCHAR uni092A094D
ENCODING -1
SWIDTH 269 0
DWIDTH 3 0
BBX 5 6 0 2
BITMAP
F8
40
40
40
48
30
ENDCHAR
STARTCHAR uni092B094D
ENCODING -1
SWIDTH 530 0
DWIDTH 6 0
BBX 8 8 0 0
BITMAP
FF
4F
48
48
38
08
08
08
ENDCHAR
STARTCHAR uni092C094D
ENCODING -1
SWIDTH 265 0
DWIDTH 3 0
BBX 5 7 0 1
BITMAP
F8
00
60
40
60
58
70
ENDCHAR
STARTCHAR uni092D094D
ENCODING -1
SWIDTH 261 0
DWIDTH 3 0
BBX 4 6 0 2
BITMAP
90
40
40
70
40
40
ENDCHAR
STARTCHAR uni092E094D
ENCODING -1
SWIDTH 261 0
DWIDTH 3 0
BBX 4 6 0 2
BITMAP
F0
40
40
70
40
40
ENDCHAR
STARTCHAR uni092F094D
ENCODING -1
SWIDTH 323 0
DWIDTH 4 0
BBX 5 7 0 1
BITMAP
F8
20
20
60
40
48
38
ENDCHAR
STARTCHAR uni0930094D
ENCODING -1
SWIDTH 337 0
DWIDTH 4 0
BBX 4 10 0 -2
BITMAP
F0
20
20
E0
40
40
20
20
20
20
ENDCHAR
STARTCHAR uni0932094D
ENCODING -1
SWIDTH 431 0
DWIDTH 5 0
BBX 7 7 0 1
BITMAP
FE
00
7C
52
50
40
60
ENDCHAR
STARTCHAR uni0933094D
ENCODING -1
SWIDTH 677 0
DWIDTH 8 0
BBX 8 7 0 1
BITMAP
FF
00
7E
4A
4A
52
7E
ENDCHAR
STARTCHAR uni0935094D
ENCODING -1
SWIDTH 255 0
DWIDTH 3 0
BBX 5 7 0 1
BITMAP
F8
00
60
40
40
48
70
ENDCHAR
STARTCHAR uni0936094D
ENCODING -1
SWIDTH 378 0
DWIDTH 5 0
BBX 3 8 1 0
BITMAP
E0
A0
20
C0
80
80
40
20
ENDCHAR
STARTCHAR uni0937094D
ENCODING -1
SWIDTH 282 0
DWIDTH 3 0
BBX 5 6 0 2
BITMAP
F8
40
60
50
48
30
ENDCHAR
STARTCHAR uni0938094D
ENCODING -1
SWIDTH 338 0
DWIDTH 4 0
BBX 5 8 0 0
BITMAP
F8
20
20
F8
40
40
20
20
ENDCHAR
STARTCHAR uni0939094D
ENCODING -1
SWIDTH 457 0
DWIDTH 5 0
BBX 7 9 0 -1
BITMAP
FC
08
78
40
3E
40
40
40
38
ENDCHAR
STARTCHAR uni0915093C094D
ENCODING -1
SWIDTH 519 0
DWIDTH 6 0
BBX 8 8 0 0
BITMAP
FF
6E
49
48
48
48
78
48
ENDCHAR
STARTCHAR uni0916093C094D
ENCODING -1
SWIDTH 463 0
DWIDTH 6 0
BBX 7 8 0 0
BITMAP
FE
24
28
E8
48
46
20
50
ENDCHAR
STARTCHAR uni0917093C094D
ENCODING -1
SWIDTH 264 0
DWIDTH 3 0
BBX 3 8 0 0
BITMAP
E0
40
40
40
C0
00
00
40
ENDCHAR
STARTCHAR uni091C093C094D
ENCODING -1
SWIDTH 314 0
DWIDTH 4 0
BBX 5 9 0 -1
BITMAP
F8
00
78
20
10
20
E0
00
40
ENDCHAR
STARTCHAR uni0928093C094D
ENCODING -1
SWIDTH 241 0
DWIDTH 3 0
BBX 4 8 0 0
BITMAP
F0
00
00
70
80
00
00
40
ENDCHAR
STARTCHAR uni092B093C094D
ENCODING -1
SWIDTH 530 0
DWIDTH 6 0
BBX 8 8 0 0
BITMAP
FF
4F
48
48
38
08
08
48
ENDCHAR
STARTCHAR uni092F093C094D
ENCODING -1
SWIDTH 325 0
DWIDTH 4 0
BBX 5 9 0 -1
BITMAP
F8
20
20
60
40
48
38
00
20
ENDCHAR
STARTCHAR uni09080902
ENCODING -1
SWIDTH 478 0
DWIDTH 6 0
BBX 6 11 0 0
BITMAP
18
18
10
FC
78
40
40
78
48
48
70
ENDCHAR
STARTCHAR uni09300941
ENCODING -1
SWIDTH 533 0
DWIDTH 6 0
BBX 7 8 0 0
BITMAP
FE
38
24
C4
44
48
20
20
ENDCHAR
STARTCHAR uni09300942
ENCODING -1
SWIDTH 645 0
DWIDTH 8 0
BBX 8 8 0 0
BITMAP
FF
2C
2A
EA
42
4C
20
20
ENDCHAR
STARTCHAR uni09390941
ENCODING -1
SWIDTH 495 0
DWIDTH 6 0
BBX 6 11 0 -3
BITMAP
FC
78
40
40
30
48
40
38
48
48
38
ENDCHAR
STARTCHAR uni09390942
ENCODING -1
SWIDTH 492 0
DWIDTH 6 0
BBX 6 11 0 -3
BITMAP
FC
08
78
40
30
48
40
70
48
48
64
ENDCHAR
STARTCHAR uni09260943
ENCODING -1
SWIDTH 390 0
DWIDTH 5 0
BBX 5 7 0 1
BITMAP
F8
70
40
40
20
40
70
ENDCHAR
STARTCHAR uni09390943
ENCODING -1
SWIDTH 519 0
DWIDTH 6 0
BBX 6 9 0 -1
BITMAP
FC
78
40
40
38
54
50
48
78
ENDCHAR
STARTCHAR uni094D0930
ENCODING -1
SWIDTH 0 0
DWIDTH 0 0
BBX 4 3 -5 -2
BITMAP
40
60
90
ENDCHAR
STARTCHAR uni0930094D.1
ENCODING -1
SWIDTH 192 0
DWIDTH 2 0
BBX 5 4 -1 4
BITMAP
60
00
88
70
ENDCHAR
STARTCHAR uni0930094D.2
ENCODING -1
SWIDTH 0 0
DWIDTH 0 0
BBX 2 4 -2 7
BITMAP
40
80
80
80
ENDCHAR
STARTCHAR uni0930094D0902
ENCODING -1
SWIDTH 0 0
DWIDTH 0 0
BBX 2 4 -2 7
BITMAP
40
C0
80
80
ENDCHAR
STARTCHAR uni093E0930094D
ENCODING -1
SWIDTH 231 0
DWIDTH 3 0
BBX 3 11 0 0
BITMAP
60
40
40
E0
40
40
40
40
40
40
40
ENDCHAR
STARTCHAR uni093E0930094D0902
ENCODING -1
SWIDTH 231 0
DWIDTH 3 0
BBX 3 11 0 0
BITMAP
60
60
40
E0
40
40
40
40
40
40
40
ENDCHAR
STARTCHAR uni0930094D.aMatraI
ENCODING -1
SWIDTH 0 0
DWIDTH 0 0
BBX 2 3 -1 8
BITMAP
40
80
80
ENDCHAR
STARTCHAR uni0902.aMatraI
ENCODING -1
SWIDTH 0 0
DWIDTH 0 0
BBX 1 1 0 9
BITMAP
80
ENDCHAR
STARTCHAR uni0930094D0902.aMatraI
ENCODING -1
SWIDTH 0 0
DWIDTH 0 0
BBX 2 3 -1 8
BITMAP
40
80
C0
ENDCHAR
STARTCHAR uni09400930094D
ENCODING -1
SWIDTH 231 0
DWIDTH 3 0
BBX 5 11 -2 0
BITMAP
68
90
10
38
10
10
10
10
10
10
10
ENDCHAR
STARTCHAR uni09400902
ENCODING -1
SWIDTH 231 0
DWIDTH 3 0
BBX 5 11 -2 0
BITMAP
68
90
10
38
10
10
10
10
10
10
10
ENDCHAR
STARTCHAR uni09400930094D0902
ENCODING -1
SWIDTH 231 0
DWIDTH 3 0
BBX 5 11 -2 0
BITMAP
78
98
10
38
10
10
10
10
10
10
10
ENDCHAR
STARTCHAR uni0940.aLong
ENCODING -1
SWIDTH 231 0
DWIDTH 3 0
BBX 8 11 -5 0
BITMAP
7C
82
02
07
02
02
02
02
02
02
02
ENDCHAR
STARTCHAR uni09400930094D.aLong
ENCODING -1
SWIDTH 231 0
DWIDTH 3 0
BBX 8 11 -5 0
BITMAP
7F
82
02
07
02
02
02
02
02
02
02
ENDCHAR
STARTCHAR uni09400902.aLong
ENCODING -1
SWIDTH 231 0
DWIDTH 3 0
BBX 8 11 -5 0
BITMAP
7D
82
02
07
02
02
02
02
02
02
02
ENDCHAR
STARTCHAR uni09400930094D0902.aLong
ENCODING -1
SWIDTH 231 0
DWIDTH 3 0
BBX 8 11 -5 0
BITMAP
7F
83
02
07
02
02
02
02
02
02
02
ENDCHAR
STARTCHAR uni09470930094D
ENCODING -1
SWIDTH 0 0
DWIDTH 0 0
BBX 4 3 -4 8
BITMAP
90
60
20
ENDCHAR
STARTCHAR uni09470902
ENCODING -1
SWIDTH 0 0
DWIDTH 0 0
BBX 4 3 -4 8
BITMAP
80
50
20
ENDCHAR
STARTCHAR uni09470901
ENCODING -1
SWIDTH 0 0
DWIDTH 0 0
BBX 6 3 -4 8
BITMAP
88
5C
20
ENDCHAR
STARTCHAR uni09470930094D0902
ENCODING -1
SWIDTH 0 0
DWIDTH 0 0
BBX 4 3 -4 8
BITMAP
90
70
20
ENDCHAR
STARTCHAR uni09480930094D
ENCODING -1
SWIDTH 0 0
DWIDTH 0 0
BBX 4 3 -4 8
BITMAP
B0
60
20
ENDCHAR
STARTCHAR uni09480902
ENCODING -1
SWIDTH 0 0
DWIDTH 0 0
BBX 4 3 -4 8
BITMAP
A0
70
20
ENDCHAR
STARTCHAR uni09480901
ENCODING -1
SWIDTH 0 0
DWIDTH 0 0
BBX 7 3 -4 8
BITMAP
A4
72
2E
ENDCHAR
STARTCHAR uni09480930094D0902
ENCODING -1
SWIDTH 0 0
DWIDTH 0 0
BBX 4 3 -4 8
BITMAP
B0
70
20
ENDCHAR
STARTCHAR uni094B0930094D
ENCODING -1
SWIDTH 231 0
DWIDTH 3 0
BBX 4 11 -1 0
BITMAP
B0
60
20
70
20
20
20
20
20
20
20
ENDCHAR
STARTCHAR uni094B0902
ENCODING -1
SWIDTH 231 0
DWIDTH 3 0
BBX 4 11 -1 0
BITMAP
90
40
20
70
20
20
20
20
20
20
20
ENDCHAR
STARTCHAR uni094B0930094D0902
ENCODING -1
SWIDTH 231 0
DWIDTH 3 0
BBX 4 11 -1 0
BITMAP
B0
70
20
70
20
20
20
20
20
20
20
ENDCHAR
STARTCHAR uni094C0930094D
ENCODING -1
SWIDTH 231 0
DWIDTH 3 0
BBX 4 11 -1 0
BITMAP
D0
60
20
70
20
20
20
20
20
20
20
ENDCHAR
STARTCHAR uni094C0902
ENCODING -1
SWIDTH 231 0
DWIDTH 3 0
BBX 4 11 -1 0
BITMAP
B0
60
20
70
20
20
20
20
20
20
20
ENDCHAR
STARTCHAR uni094C0930094D0902
ENCODING -1
SWIDTH 231 0
DWIDTH 3 0
BBX 4 11 -1 0
BITMAP
D0
70
20
70
20
20
20
20
20
20
20
ENDCHAR
STARTCHAR uni0915094D0937
ENCODING -1
SWIDTH 656 0
DWIDTH 8 0
BBX 7 8 1 0
BITMAP
66
94
FC
84
94
94
F4
14
ENDCHAR
STARTCHAR uni0915094D0937094D
ENCODING -1
SWIDTH 429 0
DWIDTH 5 0
BBX 6 8 1 0
BITMAP
60
90
FC
80
90
90
F0
10
ENDCHAR
STARTCHAR uni0915094D0937094D092E
ENCODING -1
SWIDTH 933 0
DWIDTH 11 0
BBX 10 8 1 0
BITMAP
67C0
9480
FC80
8780
9480
9080
F080
1080
ENDCHAR
STARTCHAR uni0915094D0937094D092E094D
ENCODING -1
SWIDTH 717 0
DWIDTH 9 0
BBX 9 8 1 0
BITMAP
6780
9400
FC00
8780
9400
9000
F000
1000
ENDCHAR
STARTCHAR uni0915094D0937094D092E094D092F
ENCODING -1
SWIDTH 1283 0
DWIDTH 15 0
BBX 15 8 1 0
BITMAP
67FE
9424
FCC4
8784
9488
9074
F004
1008
ENDCHAR
STARTCHAR uni0915094D0937094D092F
ENCODING -1
SWIDTH 989 0
DWIDTH 12 0
BBX 11 8 1 0
BITMAP
67E0
9240
FE40
8440
9440
93C0
F040
1040
ENDCHAR
STARTCHAR uni0915094D0937094D0935
ENCODING -1
SWIDTH 936 0
DWIDTH 11 0
BBX 10 8 1 0
BITMAP
67C0
9380
FC80
8480
9480
9380
F080
1080
ENDCHAR
STARTCHAR uni091C094D091E
ENCODING -1
SWIDTH 629 0
DWIDTH 8 0
BBX 8 8 0 0
BITMAP
FF
7C
42
42
72
4A
7A
42
ENDCHAR
STARTCHAR uni091C094D091E094D
ENCODING -1
SWIDTH 398 0
DWIDTH 5 0
BBX 6 8 0 0
BITMAP
FC
7C
40
40
70
48
78
40
ENDCHAR
STARTCHAR uni091C094D091E094D092F
ENCODING -1
SWIDTH 975 0
DWIDTH 12 0
BBX 12 8 0 0
BITMAP
FFF0
7D20
4520
4320
7220
49E0
7820
4020
ENDCHAR
STARTCHAR uni0915094D0928
ENCODING -1
SWIDTH 1003 0
DWIDTH 12 0
BBX 12 8 0 0
BITMAP
FFF0
6E20
49E0
4920
4920
4820
7820
0820
ENDCHAR
STARTCHAR uni0916094D0928
ENCODING -1
SWIDTH 958 0
DWIDTH 12 0
BBX 12 8 0 0
BITMAP
FFF0
2C20
2A20
EBC0
4E20
4020
2020
1020
ENDCHAR
STARTCHAR uni0917094D0928
ENCODING -1
SWIDTH 736 0
DWIDTH 9 0
BBX 9 8 0 0
BITMAP
FF80
4100
4F00
5100
C900
0100
0100
0100
ENDCHAR
STARTCHAR uni0918094D0928
ENCODING -1
SWIDTH 814 0
DWIDTH 10 0
BBX 10 8 0 0
BITMAP
FFC0
4080
6080
4780
4880
7C80
0080
0080
ENDCHAR
STARTCHAR uni091A094D0928
ENCODING -1
SWIDTH 829 0
DWIDTH 10 0
BBX 10 8 0 0
BITMAP
FFC0
0080
F080
4780
4480
3C80
0080
0080
ENDCHAR
STARTCHAR uni091B094D0928
ENCODING -1
SWIDTH 977 0
DWIDTH 12 0
BBX 12 8 0 0
BITMAP
FFF0
4C20
45E0
6620
4620
4420
7C20
0020
ENDCHAR
STARTCHAR uni091C094D0928
ENCODING -1
SWIDTH 831 0
DWIDTH 10 0
BBX 10 8 0 0
BITMAP
FFC0
0080
7F80
2480
1480
1080
E080
0080
ENDCHAR
STARTCHAR uni091D094D0928
ENCODING -1
SWIDTH 935 0
DWIDTH 11 0
BBX 11 8 0 0
BITMAP
FFE0
7040
4040
7FC0
0A40
4840
7040
4040
ENDCHAR
STARTCHAR uni091F094D0928
ENCODING -1
SWIDTH 494 0
DWIDTH 6 0
BBX 6 11 0 -3
BITMAP
FC
08
38
40
44
48
38
08
78
48
08
ENDCHAR
STARTCHAR uni0920094D0928
ENCODING -1
SWIDTH 516 0
DWIDTH 6 0
BBX 6 11 0 -3
BITMAP
FC
08
30
48
44
48
78
08
78
48
08
ENDCHAR
STARTCHAR uni0921094D0928
ENCODING -1
SWIDTH 481 0
DWIDTH 6 0
BBX 6 11 0 -3
BITMAP
FC
08
78
40
78
48
78
08
78
48
08
ENDCHAR
STARTCHAR uni0924094D0928
ENCODING -1
SWIDTH 756 0
DWIDTH 9 0
BBX 9 8 0 0
BITMAP
FF80
0100
7F00
4900
4900
4100
4100
2100
ENDCHAR
STARTCHAR uni0925094D0928
ENCODING -1
SWIDTH 855 0
DWIDTH 10 0
BBX 9 8 1 0
BITMAP
EF80
A100
E700
8900
8900
7900
0100
0100
ENDCHAR
STARTCHAR uni0926094D0928
ENCODING -1
SWIDTH 955 0
DWIDTH 11 0
BBX 12 10 0 -2
BITMAP
FFF0
3820
41C0
4220
4A20
4820
3820
0820
0800
0400
ENDCHAR
STARTCHAR uni0927094D0928
ENCODING -1
SWIDTH 814 0
DWIDTH 10 0
BBX 10 8 0 0
BITMAP
EFC0
4080
6080
4780
4880
7880
0080
0080
ENDCHAR
STARTCHAR uni0928094D0928
ENCODING -1
SWIDTH 738 0
DWIDTH 9 0
BBX 9 8 0 0
BITMAP
FF80
0100
7F00
8900
8900
0100
0100
0100
ENDCHAR
STARTCHAR uni092A094D0928
ENCODING -1
SWIDTH 782 0
DWIDTH 9 0
BBX 10 8 0 0
BITMAP
FFC0
4100
4700
4900
3900
0100
0100
0100
ENDCHAR
STARTCHAR uni092B094D0928
ENCODING -1
SWIDTH 1013 0
DWIDTH 12 0
BBX 12 8 0 0
BITMAP
FFF0
4E20
49E0
4920
3920
0820
0820
0820
ENDCHAR
STARTCHAR uni092C094D0928
ENCODING -1
SWIDTH 810 0
DWIDTH 10 0
BBX 10 8 0 0
BITMAP
FFC0
6080
4780
6880
5880
4880
7080
0080
ENDCHAR
STARTCHAR uni092D094D0928
ENCODING -1
SWIDTH 757 0
DWIDTH 9 0
BBX 9 8 0 0
BITMAP
9F80
4100
4F00
7900
4900
0100
0100
0100
ENDCHAR
STARTCHAR uni092E094D0928
ENCODING -1
SWIDTH 757 0
DWIDTH 9 0
BBX 9 8 0 0
BITMAP
FF80
4100
4F00
7900
4900
0100
0100
0100
ENDCHAR
STARTCHAR uni092F094D0928
ENCODING -1
SWIDTH 829 0
DWIDTH 10 0
BBX 10 8 0 0
BITMAP
FFC0
2080
6080
4780
4480
3C80
0080
0080
ENDCHAR
STARTCHAR uni0935094D0928
ENCODING -1
SWIDTH 798 0
DWIDTH 10 0
BBX 10 8 0 0
BITMAP
FFC0
6080
4700
4880
4880
4880
7080
0080
ENDCHAR
STARTCHAR uni0936094D0928
ENCODING -1
SWIDTH 845 0
DWIDTH 10 0
BBX 9 8 1 0
BITMAP
EF80
A100
2F00
C900
8900
8100
4100
2100
ENDCHAR
STARTCHAR uni0938094D0928
ENCODING -1
SWIDTH 831 0
DWIDTH 10 0
BBX 10 8 0 0
BITMAP
FFC0
2080
2780
F880
4480
4080
2080
2080
ENDCHAR
STARTCHAR uni0939094D0928
ENCODING -1
SWIDTH 500 0
DWIDTH 6 0
BBX 6 9 0 -1
BITMAP
FC
38
40
40
38
54
54
50
38
ENDCHAR
STARTCHAR uni0915094D0930
ENCODING -1
SWIDTH 725 0
DWIDTH 9 0
BBX 9 8 0 0
BITMAP
FF80
6E00
4900
4900
4900
7A00
2800
4800
ENDCHAR
STARTCHAR uni0916094D0930
ENCODING -1
SWIDTH 698 0
DWIDTH 8 0
BBX 9 8 0 0
BITMAP
FF80
2600
2A00
EA00
4A00
4600
2600
1A00
ENDCHAR
STARTCHAR uni0917094D0930
ENCODING -1
SWIDTH 494 0
DWIDTH 6 0
BBX 6 8 0 0
BITMAP
FC
48
48
48
C8
18
28
48
ENDCHAR
STARTCHAR uni0918094D0930
ENCODING -1
SWIDTH 559 0
DWIDTH 7 0
BBX 7 8 0 0
BITMAP
FE
44
24
44
44
44
3C
24
ENDCHAR
STARTCHAR uni0919094D0930
ENCODING -1
SWIDTH 505 0
DWIDTH 6 0
BBX 6 10 0 -2
BITMAP
FC
78
40
44
70
08
48
30
30
48
ENDCHAR
STARTCHAR uni091A094D0930
ENCODING -1
SWIDTH 563 0
DWIDTH 7 0
BBX 7 8 0 0
BITMAP
FE
04
F4
44
44
3C
14
24
ENDCHAR
STARTCHAR uni091B094D0930
ENCODING -1
SWIDTH 581 0
DWIDTH 7 0
BBX 7 9 0 -1
BITMAP
FE
44
4C
24
44
44
7C
28
28
ENDCHAR
STARTCHAR uni091C094D0930
ENCODING -1
SWIDTH 547 0
DWIDTH 7 0
BBX 7 8 0 0
BITMAP
FE
04
78
24
14
24
E8
34
ENDCHAR
STARTCHAR uni091D094D0930
ENCODING -1
SWIDTH 684 0
DWIDTH 8 0
BBX 8 8 0 0
BITMAP
FF
72
42
7E
0A
4A
76
4A
ENDCHAR
STARTCHAR uni091E094D0930
ENCODING -1
SWIDTH 598 0
DWIDTH 7 0
BBX 7 8 0 0
BITMAP
FE
64
14
1C
14
6C
14
14
ENDCHAR
STARTCHAR uni091F094D0930
ENCODING -1
SWIDTH 485 0
DWIDTH 6 0
BBX 6 9 0 -1
BITMAP
FC
08
78
40
40
48
78
30
48
ENDCHAR
STARTCHAR uni0920094D0930
ENCODING -1
SWIDTH 512 0
DWIDTH 6 0
BBX 6 9 0 -1
BITMAP
FC
08
70
48
48
48
78
30
48
ENDCHAR
STARTCHAR uni0921094D0930
ENCODING -1
SWIDTH 475 0
DWIDTH 6 0
BBX 6 9 0 -1
BITMAP
FC
78
40
40
70
48
48
30
48
ENDCHAR
STARTCHAR uni0922094D0930
ENCODING -1
SWIDTH 485 0
DWIDTH 6 0
BBX 6 9 0 -1
BITMAP
FC
08
78
58
58
48
78
30
48
ENDCHAR
STARTCHAR uni0923094D0930
ENCODING -1
SWIDTH 681 0
DWIDTH 8 0
BBX 8 8 0 0
BITMAP
FF
4A
4A
4A
32
06
0A
12
ENDCHAR
STARTCHAR uni0924094D0930
ENCODING -1
SWIDTH 493 0
DWIDTH 6 0
BBX 6 8 0 0
BITMAP
FC
08
78
48
48
18
28
48
ENDCHAR
STARTCHAR uni0925094D0930
ENCODING -1
SWIDTH 593 0
DWIDTH 7 0
BBX 6 8 1 0
BITMAP
EC
A8
28
C8
88
F8
28
48
ENDCHAR
STARTCHAR uni0926094D0930
ENCODING -1
SWIDTH 489 0
DWIDTH 6 0
BBX 6 8 0 0
BITMAP
FC
38
40
40
48
48
38
28
ENDCHAR
STARTCHAR uni0927094D0930
ENCODING -1
SWIDTH 560 0
DWIDTH 7 0
BBX 7 8 0 0
BITMAP
EE
44
24
44
44
44
3C
24
ENDCHAR
STARTCHAR uni0928094D0930
ENCODING -1
SWIDTH 473 0
DWIDTH 6 0
BBX 6 8 0 0
BITMAP
FC
08
78
88
98
28
48
48
ENDCHAR
STARTCHAR uni092A094D0930
ENCODING -1
SWIDTH 503 0
DWIDTH 6 0
BBX 6 8 0 0
BITMAP
FC
48
48
48
38
18
28
48
ENDCHAR
STARTCHAR uni092B094D0930
ENCODING -1
SWIDTH 741 0
DWIDTH 9 0
BBX 9 8 0 0
BITMAP
FF80
4E00
4900
4900
3900
2A00
2800
4800
ENDCHAR
STARTCHAR uni092C094D0930
ENCODING -1
SWIDTH 491 0
DWIDTH 6 0
BBX 6 8 0 0
BITMAP
FC
68
48
68
58
48
78
68
ENDCHAR
STARTCHAR uni092D094D0930
ENCODING -1
SWIDTH 491 0
DWIDTH 6 0
BBX 6 8 0 0
BITMAP
9C
48
48
78
48
18
28
48
ENDCHAR
STARTCHAR uni092E094D0930
ENCODING -1
SWIDTH 490 0
DWIDTH 6 0
BBX 6 8 0 0
BITMAP
FC
48
48
78
48
18
28
48
ENDCHAR
STARTCHAR uni092F094D0930
ENCODING -1
SWIDTH 564 0
DWIDTH 7 0
BBX 7 8 0 0
BITMAP
FE
24
64
44
44
3C
14
24
ENDCHAR
STARTCHAR uni0935094D0930
ENCODING -1
SWIDTH 484 0
DWIDTH 6 0
BBX 6 8 0 0
BITMAP
FC
68
48
48
48
48
78
68
ENDCHAR
STARTCHAR uni0936094D0930
ENCODING -1
SWIDTH 558 0
DWIDTH 7 0
BBX 7 8 0 0
BITMAP
76
54
54
24
DC
14
24
04
ENDCHAR
STARTCHAR uni0938094D0930
ENCODING -1
SWIDTH 604 0
DWIDTH 7 0
BBX 7 8 0 0
BITMAP
FE
24
24
FC
4C
5C
24
24
ENDCHAR
STARTCHAR uni0939094D0930
ENCODING -1
SWIDTH 505 0
DWIDTH 6 0
BBX 6 9 0 -1
BITMAP
FC
78
40
40
38
54
74
40
78
ENDCHAR
STARTCHAR uni0915093C094D0930
ENCODING -1
SWIDTH 725 0
DWIDTH 9 0
BBX 9 9 0 -1
BITMAP
FF80
6E00
4900
4900
4900
7A00
2800
4800
2000
ENDCHAR
STARTCHAR uni0916093C094D0930
ENCODING -1
SWIDTH 698 0
DWIDTH 8 0
BBX 9 9 0 -1
BITMAP
FF80
2600
2A00
EA00
4A00
4600
2600
1A00
0400
ENDCHAR
STARTCHAR uni0917093C094D0930
ENCODING -1
SWIDTH 494 0
DWIDTH 6 0
BBX 6 9 0 -1
BITMAP
FC
48
48
48
C8
18
28
48
20
ENDCHAR
STARTCHAR uni091C093C094D0930
ENCODING -1
SWIDTH 547 0
DWIDTH 7 0
BBX 7 8 0 0
BITMAP
FE
04
78
24
14
24
FC
A4
ENDCHAR
STARTCHAR uni0921093C094D0930
ENCODING -1
SWIDTH 475 0
DWIDTH 6 0
BBX 6 9 0 -1
BITMAP
FC
78
40
40
70
48
48
30
C8
ENDCHAR
STARTCHAR uni0922093C094D0930
ENCODING -1
SWIDTH 485 0
DWIDTH 6 0
BBX 6 9 0 -1
BITMAP
FC
08
78
58
58
48
78
B0
48
ENDCHAR
STARTCHAR uni0928093C094D0930
ENCODING -1
SWIDTH 473 0
DWIDTH 6 0
BBX 6 9 0 -1
BITMAP
FC
08
78
88
98
28
48
48
20
ENDCHAR
STARTCHAR uni092B093C094D0930
ENCODING -1
SWIDTH 741 0
DWIDTH 9 0
BBX 9 9 0 -1
BITMAP
FF80
4E00
4900
4900
3900
2A00
2800
4800
2000
ENDCHAR
STARTCHAR uni092F093C094D0930
ENCODING -1
SWIDTH 564 0
DWIDTH 7 0
BBX 7 9 0 -1
BITMAP
FE
24
64
44
44
3C
14
24
10
ENDCHAR
STARTCHAR uni0915094D0930094D
ENCODING -1
SWIDTH 518 0
DWIDTH 6 0
BBX 8 8 0 0
BITMAP
FF
6E
49
48
48
78
28
48
ENDCHAR
STARTCHAR uni0916094D0930094D
ENCODING -1
SWIDTH 469 0
DWIDTH 6 0
BBX 7 8 0 0
BITMAP
FE
24
28
E8
4A
46
24
18
ENDCHAR
STARTCHAR uni0917094D0930094D
ENCODING -1
SWIDTH 264 0
DWIDTH 3 0
BBX 5 8 0 0
BITMAP
E0
40
40
48
D0
10
20
40
ENDCHAR
STARTCHAR uni0918094D0930094D
ENCODING -1
SWIDTH 319 0
DWIDTH 4 0
BBX 5 9 0 -1
BITMAP
F8
40
40
20
40
48
78
10
20
ENDCHAR
STARTCHAR uni091A094D0930094D
ENCODING -1
SWIDTH 331 0
DWIDTH 4 0
BBX 5 9 0 -1
BITMAP
F8
00
F0
40
40
48
38
10
20
ENDCHAR
STARTCHAR uni091C094D0930094D
ENCODING -1
SWIDTH 312 0
DWIDTH 4 0
BBX 5 9 0 -1
BITMAP
F8
00
78
20
10
20
E8
10
20
ENDCHAR
STARTCHAR uni091D094D0930094D
ENCODING -1
SWIDTH 441 0
DWIDTH 5 0
BBX 7 8 0 0
BITMAP
FE
70
40
7E
0A
4A
74
48
ENDCHAR
STARTCHAR uni091E094D0930094D
ENCODING -1
SWIDTH 374 0
DWIDTH 4 0
BBX 6 8 0 0
BITMAP
FC
60
10
1C
14
68
08
10
ENDCHAR
STARTCHAR uni091F094D0930094D
ENCODING -1
SWIDTH 485 0
DWIDTH 6 0
BBX 6 11 0 -3
BITMAP
FC
08
78
40
40
48
78
30
48
10
18
ENDCHAR
STARTCHAR uni0920094D0930094D
ENCODING -1
SWIDTH 512 0
DWIDTH 6 0
BBX 6 11 0 -3
BITMAP
FC
08
70
48
48
48
78
30
48
10
08
ENDCHAR
STARTCHAR uni0921094D0930094D
ENCODING -1
SWIDTH 475 0
DWIDTH 6 0
BBX 6 11 0 -3
BITMAP
FC
78
40
40
70
08
48
30
30
48
10
ENDCHAR
STARTCHAR uni0922094D0930094D
ENCODING -1
SWIDTH 485 0
DWIDTH 6 0
BBX 6 11 0 -3
BITMAP
FC
08
78
58
58
48
78
30
48
10
08
ENDCHAR
STARTCHAR uni0923094D0930094D
ENCODING -1
SWIDTH 457 0
DWIDTH 5 0
BBX 7 8 0 0
BITMAP
FC
48
48
4A
32
04
08
10
ENDCHAR
STARTCHAR uni0924094D0930094D
ENCODING -1
SWIDTH 268 0
DWIDTH 3 0
BBX 5 8 0 0
BITMAP
F8
00
70
48
48
10
20
40
ENDCHAR
STARTCHAR uni0925094D0930094D
ENCODING -1
SWIDTH 358 0
DWIDTH 4 0
BBX 5 9 1 -1
BITMAP
E0
A0
20
C0
80
88
70
20
40
ENDCHAR
STARTCHAR uni0926094D0930094D
ENCODING -1
SWIDTH 489 0
DWIDTH 6 0
BBX 6 10 0 -2
BITMAP
FC
38
40
40
48
48
38
28
10
08
ENDCHAR
STARTCHAR uni0927094D0930094D
ENCODING -1
SWIDTH 322 0
DWIDTH 4 0
BBX 5 9 0 -1
BITMAP
E8
40
40
20
40
48
78
10
20
ENDCHAR
STARTCHAR uni0928094D0930094D
ENCODING -1
SWIDTH 247 0
DWIDTH 3 0
BBX 5 8 0 0
BITMAP
F8
00
78
88
90
20
40
40
ENDCHAR
STARTCHAR uni092A094D0930094D
ENCODING -1
SWIDTH 270 0
DWIDTH 3 0
BBX 5 8 0 0
BITMAP
F0
40
40
48
30
10
20
40
ENDCHAR
STARTCHAR uni092B094D0930094D
ENCODING -1
SWIDTH 523 0
DWIDTH 6 0
BBX 8 8 0 0
BITMAP
FF
4E
49
48
78
28
48
48
ENDCHAR
STARTCHAR uni092C094D0930094D
ENCODING -1
SWIDTH 267 0
DWIDTH 3 0
BBX 5 9 0 -1
BITMAP
F8
00
60
40
60
58
70
20
40
ENDCHAR
STARTCHAR uni092D094D0930094D
ENCODING -1
SWIDTH 257 0
DWIDTH 3 0
BBX 5 8 0 0
BITMAP
98
40
40
78
50
10
20
40
ENDCHAR
STARTCHAR uni092E094D0930094D
ENCODING -1
SWIDTH 261 0
DWIDTH 3 0
BBX 5 8 0 0
BITMAP
F8
40
40
78
50
10
20
40
ENDCHAR
STARTCHAR uni092F094D0930094D
ENCODING -1
SWIDTH 323 0
DWIDTH 4 0
BBX 5 9 0 -1
BITMAP
F8
20
20
60
40
48
38
10
20
ENDCHAR
STARTCHAR uni0935094D0930094D
ENCODING -1
SWIDTH 255 0
DWIDTH 3 0
BBX 5 9 0 -1
BITMAP
F0
00
60
40
40
48
70
20
40
ENDCHAR
STARTCHAR uni0938094D0930094D
ENCODING -1
SWIDTH 347 0
DWIDTH 4 0
BBX 6 8 0 0
BITMAP
F8
20
20
FC
48
50
20
20
ENDCHAR
STARTCHAR uni0915093C094D0930094D
ENCODING -1
SWIDTH 518 0
DWIDTH 6 0
BBX 8 9 0 -1
BITMAP
FF
6E
49
48
48
78
28
48
20
ENDCHAR
STARTCHAR uni0916093C094D0930094D
ENCODING -1
SWIDTH 466 0
DWIDTH 6 0
BBX 7 9 0 -1
BITMAP
FE
24
28
E8
4A
46
24
18
04
ENDCHAR
STARTCHAR uni0917093C094D0930094D
ENCODING -1
SWIDTH 264 0
DWIDTH 3 0
BBX 5 9 0 -1
BITMAP
E0
40
40
48
D0
10
20
40
20
ENDCHAR
STARTCHAR uni091C093C094D0930094D
ENCODING -1
SWIDTH 320 0
DWIDTH 4 0
BBX 5 9 0 -1
BITMAP
F8
00
78
20
10
28
E8
30
80
ENDCHAR
STARTCHAR uni0928093C094D0930094D
ENCODING -1
SWIDTH 247 0
DWIDTH 3 0
BBX 5 9 0 -1
BITMAP
F8
00
78
88
90
20
40
40
20
ENDCHAR
STARTCHAR uni092B093C094D0930094D
ENCODING -1
SWIDTH 523 0
DWIDTH 6 0
BBX 8 9 0 -1
BITMAP
FF
4E
49
48
78
28
48
48
20
ENDCHAR
STARTCHAR uni092F093C094D0930094D
ENCODING -1
SWIDTH 323 0
DWIDTH 4 0
BBX 5 9 0 -1
BITMAP
F8
20
20
60
40
48
30
20
10
ENDCHAR
STARTCHAR uni0915094D0915
ENCODING -1
SWIDTH 1255 0
DWIDTH 15 0
BBX 15 8 0 0
BITMAP
FFFE
6EFC
4924
4922
4922
4924
78EC
0820
ENDCHAR
STARTCHAR uni0915094D0916
ENCODING -1
SWIDTH 1256 0
DWIDTH 15 0
BBX 15 8 0 0
BITMAP
FFFE
6E5C
4964
49A4
4924
489C
7844
0844
ENDCHAR
STARTCHAR uni0915094D091A
ENCODING -1
SWIDTH 1086 0
DWIDTH 13 0
BBX 13 8 0 0
BITMAP
FFF8
6E10
49D0
4910
4910
48F0
7810
0810
ENDCHAR
STARTCHAR uni0915094D091C
ENCODING -1
SWIDTH 1071 0
DWIDTH 13 0
BBX 13 8 0 0
BITMAP
FFF8
6810
4FF0
4850
4850
4850
7990
0810
ENDCHAR
STARTCHAR uni0915094D091F
ENCODING -1
SWIDTH 984 0
DWIDTH 12 0
BBX 12 8 0 0
BITMAP
FFF0
6E20
49E0
4900
4900
4920
39E0
0800
ENDCHAR
STARTCHAR uni0915094D0923
ENCODING -1
SWIDTH 1183 0
DWIDTH 14 0
BBX 14 8 0 0
BITMAP
FFFC
6F28
4928
4928
48C8
4808
7808
0808
ENDCHAR
STARTCHAR uni0915094D0924
ENCODING -1
SWIDTH 761 0
DWIDTH 9 0
BBX 9 8 0 0
BITMAP
FF80
0800
7F00
4880
4880
4880
3B00
0800
ENDCHAR
STARTCHAR uni0915094D0925
ENCODING -1
SWIDTH 1118 0
DWIDTH 13 0
BBX 14 8 0 0
BITMAP
FDCC
6848
4FC8
4908
4910
48E8
7808
0808
ENDCHAR
STARTCHAR uni0915094D0926
ENCODING -1
SWIDTH 1009 0
DWIDTH 12 0
BBX 12 8 0 0
BITMAP
FFF0
6EE0
4900
4900
4920
4920
78E0
0820
ENDCHAR
STARTCHAR uni0915094D092A
ENCODING -1
SWIDTH 1007 0
DWIDTH 12 0
BBX 12 8 0 0
BITMAP
FFF0
6F20
4920
4920
48E0
4820
7820
0820
ENDCHAR
STARTCHAR uni0915094D092B
ENCODING -1
SWIDTH 1242 0
DWIDTH 15 0
BBX 15 8 0 0
BITMAP
FFFE
6F38
4924
4924
48E4
4824
7828
0820
ENDCHAR
STARTCHAR uni0915094D092E
ENCODING -1
SWIDTH 994 0
DWIDTH 12 0
BBX 12 8 0 0
BITMAP
FFF0
6F20
4920
49E0
4920
4920
7820
0820
ENDCHAR
STARTCHAR uni0915094D092F
ENCODING -1
SWIDTH 1076 0
DWIDTH 13 0
BBX 13 8 0 0
BITMAP
FFF8
6850
4F90
4910
4910
48F0
7810
0810
ENDCHAR
STARTCHAR uni0915094D0932
ENCODING -1
SWIDTH 1178 0
DWIDTH 14 0
BBX 14 8 0 0
BITMAP
FFFC
6E08
49F8
4948
4948
4908
3988
0808
ENDCHAR
STARTCHAR uni0915094D0935
ENCODING -1
SWIDTH 1013 0
DWIDTH 12 0
BBX 12 8 0 0
BITMAP
FFF0
6EE0
4920
4920
4920
4920
78E0
0820
ENDCHAR
STARTCHAR uni0915094D0936
ENCODING -1
SWIDTH 1194 0
DWIDTH 14 0
BBX 15 8 0 0
BITMAP
FEE6
6E28
4928
49C8
4888
4888
7848
0848
ENDCHAR
STARTCHAR uni0915094D0938
ENCODING -1
SWIDTH 1143 0
DWIDTH 14 0
BBX 14 8 0 0
BITMAP
FFFC
6E48
4948
49F8
4908
4888
7848
0848
ENDCHAR
STARTCHAR uni0916094D0916
ENCODING -1
SWIDTH 1223 0
DWIDTH 15 0
BBX 15 8 0 0
BITMAP
FFFE
2454
2864
E9A4
4924
469C
2084
1044
ENDCHAR
STARTCHAR uni0916094D0924
ENCODING -1
SWIDTH 984 0
DWIDTH 12 0
BBX 12 8 0 0
BITMAP
FFF0
2420
29E0
EA20
4A20
4620
2120
10A0
ENDCHAR
STARTCHAR uni0916094D092E
ENCODING -1
SWIDTH 965 0
DWIDTH 12 0
BBX 12 8 0 0
BITMAP
FFF0
2620
2A20
E9C0
4A20
4620
2020
1020
ENDCHAR
STARTCHAR uni0916094D092F
ENCODING -1
SWIDTH 1047 0
DWIDTH 13 0
BBX 13 8 0 0
BITMAP
FFF8
2490
2990
EA10
4A10
45E0
2010
1010
ENDCHAR
STARTCHAR uni0916094D0935
ENCODING -1
SWIDTH 975 0
DWIDTH 12 0
BBX 12 8 0 0
BITMAP
FFF0
2DA0
2920
EA20
4A20
4D20
20E0
1020
ENDCHAR
STARTCHAR uni0916094D0936
ENCODING -1
SWIDTH 1123 0
DWIDTH 13 0
BBX 14 8 0 0
BITMAP
FDCC
2548
2848
EBC8
4A08
4508
2088
1088
ENDCHAR
STARTCHAR uni0917094D0917
ENCODING -1
SWIDTH 744 0
DWIDTH 9 0
BBX 9 8 0 0
BITMAP
FF80
4900
4900
4900
D900
0100
0100
0100
ENDCHAR
STARTCHAR uni0917094D0918
ENCODING -1
SWIDTH 823 0
DWIDTH 10 0
BBX 10 8 0 0
BITMAP
FFC0
4880
4480
4880
C880
0880
0780
0080
ENDCHAR
STARTCHAR uni0917094D091C
ENCODING -1
SWIDTH 801 0
DWIDTH 10 0
BBX 10 8 0 0
BITMAP
FFC0
4080
4F80
4280
C280
0280
1C80
0080
ENDCHAR
STARTCHAR uni0917094D0923
ENCODING -1
SWIDTH 945 0
DWIDTH 11 0
BBX 12 8 0 0
BITMAP
FFF0
4940
4940
4940
C640
0040
0040
0040
ENDCHAR
STARTCHAR uni0917094D0926
ENCODING -1
SWIDTH 748 0
DWIDTH 9 0
BBX 9 8 0 0
BITMAP
FF80
4700
4800
4800
8900
0900
0700
0100
ENDCHAR
STARTCHAR uni0917094D0927
ENCODING -1
SWIDTH 823 0
DWIDTH 10 0
BBX 10 8 0 0
BITMAP
FDC0
4880
4480
4880
C880
0880
0780
0080
ENDCHAR
STARTCHAR uni0917094D092C
ENCODING -1
SWIDTH 755 0
DWIDTH 9 0
BBX 9 8 0 0
BITMAP
FF80
4500
4900
4D00
CB00
0900
0700
0100
ENDCHAR
STARTCHAR uni0917094D092D
ENCODING -1
SWIDTH 755 0
DWIDTH 9 0
BBX 9 8 0 0
BITMAP
F380
4900
4900
4F00
C900
0100
0100
0100
ENDCHAR
STARTCHAR uni0917094D092E
ENCODING -1
SWIDTH 754 0
DWIDTH 9 0
BBX 9 8 0 0
BITMAP
FF80
4900
4900
4F00
C900
0100
0100
0100
ENDCHAR
STARTCHAR uni0917094D092F
ENCODING -1
SWIDTH 828 0
DWIDTH 10 0
BBX 10 8 0 0
BITMAP
FFC0
4280
4C80
4880
C880
0780
0080
0080
ENDCHAR
STARTCHAR uni0917094D0932
ENCODING -1
SWIDTH 924 0
DWIDTH 11 0
BBX 11 8 0 0
BITMAP
FFE0
4040
4FC0
4A40
CA40
0840
0C40
0040
ENDCHAR
STARTCHAR uni0917094D0935
ENCODING -1
SWIDTH 747 0
DWIDTH 9 0
BBX 9 8 0 0
BITMAP
FF80
4500
4900
4900
C900
0900
0700
0100
ENDCHAR
STARTCHAR uni0917094D0938
ENCODING -1
SWIDTH 839 0
DWIDTH 10 0
BBX 10 8 0 0
BITMAP
FFC0
4480
4480
4F80
C880
0880
0480
0480
ENDCHAR
STARTCHAR uni0918094D092E
ENCODING -1
SWIDTH 818 0
DWIDTH 10 0
BBX 10 8 0 0
BITMAP
FFC0
4480
6480
4780
4480
4480
3880
0080
ENDCHAR
STARTCHAR uni0918094D092F
ENCODING -1
SWIDTH 867 0
DWIDTH 10 0
BBX 11 8 0 0
BITMAP
FFE0
4240
6C40
4840
4880
4740
3840
0040
ENDCHAR
STARTCHAR uni091A094D091A
ENCODING -1
SWIDTH 868 0
DWIDTH 10 0
BBX 11 8 0 0
BITMAP
FFE0
0040
EF40
4440
4480
3B40
0040
0040
ENDCHAR
STARTCHAR uni091A094D091B
ENCODING -1
SWIDTH 922 0
DWIDTH 11 0
BBX 11 7 0 1
BITMAP
FFE0
0440
F4C0
4240
4440
3C40
07C0
ENDCHAR
STARTCHAR uni091A094D092E
ENCODING -1
SWIDTH 830 0
DWIDTH 10 0
BBX 10 8 0 0
BITMAP
FFC0
0480
F480
4780
4480
3880
0080
0080
ENDCHAR
STARTCHAR uni091A094D092F
ENCODING -1
SWIDTH 904 0
DWIDTH 11 0
BBX 11 8 0 0
BITMAP
FFE0
0240
F640
4440
4440
3BC0
0040
0040
ENDCHAR
STARTCHAR uni091B094D092F
ENCODING -1
SWIDTH 1068 0
DWIDTH 13 0
BBX 13 8 0 0
BITMAP
FFF8
4F90
4450
2450
4590
4510
7CF0
0010
ENDCHAR
STARTCHAR uni091B094D0935
ENCODING -1
SWIDTH 581 0
DWIDTH 7 0
BBX 7 9 0 -1
BITMAP
FE
44
4C
24
44
44
7C
44
38
ENDCHAR
STARTCHAR uni091C094D0915
ENCODING -1
SWIDTH 1054 0
DWIDTH 13 0
BBX 13 8 0 0
BITMAP
FFF8
06E0
7890
2890
1890
2490
E7E0
0080
ENDCHAR
STARTCHAR uni091C094D091C
ENCODING -1
SWIDTH 903 0
DWIDTH 11 0
BBX 11 8 0 0
BITMAP
FFE0
0040
7FC0
2140
1140
2140
EE40
0040
ENDCHAR
STARTCHAR uni091C094D091D
ENCODING -1
SWIDTH 990 0
DWIDTH 12 0
BBX 12 8 0 0
BITMAP
FFF0
0720
7820
27E0
10A0
24A0
E720
0420
ENDCHAR
STARTCHAR uni091C094D091F
ENCODING -1
SWIDTH 815 0
DWIDTH 10 0
BBX 10 7 0 1
BITMAP
FFC0
0080
7F80
2400
2400
2480
E780
ENDCHAR
STARTCHAR uni091C094D0921
ENCODING -1
SWIDTH 797 0
DWIDTH 10 0
BBX 10 8 0 0
BITMAP
FFC0
0700
7800
2400
2700
2080
E880
0700
ENDCHAR
STARTCHAR uni091C094D0924
ENCODING -1
SWIDTH 830 0
DWIDTH 10 0
BBX 10 8 0 0
BITMAP
FFC0
0080
7F80
2480
2480
2480
E480
0280
ENDCHAR
STARTCHAR uni091C094D0926
ENCODING -1
SWIDTH 817 0
DWIDTH 10 0
BBX 10 8 0 0
BITMAP
FFC0
0380
7C00
2400
1480
2480
E780
0080
ENDCHAR
STARTCHAR uni091C094D092C
ENCODING -1
SWIDTH 820 0
DWIDTH 10 0
BBX 10 8 0 0
BITMAP
FFC0
0680
7C80
2A80
1980
2480
E780
0080
ENDCHAR
STARTCHAR uni091C094D092E
ENCODING -1
SWIDTH 813 0
DWIDTH 10 0
BBX 10 8 0 0
BITMAP
FFC0
0480
7880
2780
1480
2080
E080
0080
ENDCHAR
STARTCHAR uni091C094D092F
ENCODING -1
SWIDTH 893 0
DWIDTH 11 0
BBX 11 8 0 0
BITMAP
FFE0
0240
7E40
2840
2440
23C0
E040
0040
ENDCHAR
STARTCHAR uni091C094D0935
ENCODING -1
SWIDTH 813 0
DWIDTH 10 0
BBX 10 8 0 0
BITMAP
FFC0
0680
7880
2880
1880
2480
E780
0080
ENDCHAR
STARTCHAR uni091D094D092E
ENCODING -1
SWIDTH 936 0
DWIDTH 11 0
BBX 11 8 0 0
BITMAP
FFE0
7240
4240
7FC0
0A40
4840
7040
4040
ENDCHAR
STARTCHAR uni091D094D092F
ENCODING -1
SWIDTH 1000 0
DWIDTH 12 0
BBX 12 8 0 0
BITMAP
FFF0
70A0
4320
7E20
0A20
49E0
7020
4020
ENDCHAR
STARTCHAR uni091E094D091B
ENCODING -1
SWIDTH 913 0
DWIDTH 11 0
BBX 11 7 0 1
BITMAP
FFE0
6440
14C0
1E40
1440
E440
07C0
ENDCHAR
STARTCHAR uni091E094D091C
ENCODING -1
SWIDTH 932 0
DWIDTH 11 0
BBX 11 8 0 0
BITMAP
FFE0
0040
67C0
1140
1940
1140
6640
0040
ENDCHAR
STARTCHAR uni091E094D0936
ENCODING -1
SWIDTH 975 0
DWIDTH 12 0
BBX 12 8 0 0
BITMAP
F730
64A0
10A0
1F20
1420
6220
0220
0120
ENDCHAR
STARTCHAR uni091F094D091F
ENCODING -1
SWIDTH 494 0
DWIDTH 6 0
BBX 6 11 0 -3
BITMAP
FC
78
40
40
48
78
08
70
40
48
78
ENDCHAR
STARTCHAR uni091F094D0920
ENCODING -1
SWIDTH 495 0
DWIDTH 6 0
BBX 6 11 0 -3
BITMAP
FC
78
40
40
48
78
08
78
48
48
78
ENDCHAR
STARTCHAR uni091F094D092F
ENCODING -1
SWIDTH 990 0
DWIDTH 12 0
BBX 12 8 0 0
BITMAP
FFF0
0820
7F20
40A0
4320
4A20
79E0
0020
ENDCHAR
STARTCHAR uni091F094D0935
ENCODING -1
SWIDTH 501 0
DWIDTH 6 0
BBX 6 9 0 -1
BITMAP
FC
08
38
40
44
48
38
48
70
ENDCHAR
STARTCHAR uni0920094D092F
ENCODING -1
SWIDTH 998 0
DWIDTH 12 0
BBX 12 8 0 0
BITMAP
FFF0
0820
7720
48A0
4B20
4A20
79E0
0020
ENDCHAR
STARTCHAR uni0921094D0921
ENCODING -1
SWIDTH 493 0
DWIDTH 6 0
BBX 6 12 0 -4
BITMAP
FC
08
78
40
78
48
78
40
78
08
48
70
ENDCHAR
STARTCHAR uni0921094D0922
ENCODING -1
SWIDTH 493 0
DWIDTH 6 0
BBX 6 11 0 -3
BITMAP
FC
08
78
40
78
48
78
58
58
48
78
ENDCHAR
STARTCHAR uni0921094D092F
ENCODING -1
SWIDTH 973 0
DWIDTH 12 0
BBX 12 8 0 0
BITMAP
FFF0
7F20
40A0
40A0
7B20
0A20
49E0
3020
ENDCHAR
STARTCHAR uni0921094D0935
ENCODING -1
SWIDTH 493 0
DWIDTH 6 0
BBX 6 10 0 -2
BITMAP
FC
08
78
40
78
48
78
48
48
30
ENDCHAR
STARTCHAR uni0922094D092F
ENCODING -1
SWIDTH 981 0
DWIDTH 12 0
BBX 12 8 0 0
BITMAP
FFF0
0820
7F20
58A0
5B20
5A20
79E0
0020
ENDCHAR
STARTCHAR uni0923094D091F
ENCODING -1
SWIDTH 908 0
DWIDTH 11 0
BBX 11 7 0 1
BITMAP
FFE0
4840
49C0
4A00
3220
0240
03C0
ENDCHAR
STARTCHAR uni0923094D0920
ENCODING -1
SWIDTH 936 0
DWIDTH 11 0
BBX 11 7 0 1
BITMAP
FFE0
4840
49C0
4A40
3220
0220
03C0
ENDCHAR
STARTCHAR uni0923094D0921
ENCODING -1
SWIDTH 892 0
DWIDTH 11 0
BBX 11 8 0 0
BITMAP
FFE0
4BC0
4A00
4A00
31C0
0240
0240
0180
ENDCHAR
STARTCHAR uni0923094D0922
ENCODING -1
SWIDTH 908 0
DWIDTH 11 0
BBX 11 7 0 1
BITMAP
FFE0
4840
49C0
4AC0
32A0
0220
03C0
ENDCHAR
STARTCHAR uni0923094D0923
ENCODING -1
SWIDTH 1127 0
DWIDTH 14 0
BBX 14 8 0 0
BITMAP
FFFC
4A48
4A48
4A48
3188
0008
0008
0008
ENDCHAR
STARTCHAR uni0923094D092E
ENCODING -1
SWIDTH 932 0
DWIDTH 11 0
BBX 11 8 0 0
BITMAP
FFE0
4A40
4A40
4BC0
7240
0040
0040
0040
ENDCHAR
STARTCHAR uni0923094D092F
ENCODING -1
SWIDTH 998 0
DWIDTH 12 0
BBX 12 8 0 0
BITMAP
FFF0
48A0
4B20
4A20
3220
01E0
0020
0020
ENDCHAR
STARTCHAR uni0923094D0935
ENCODING -1
SWIDTH 923 0
DWIDTH 11 0
BBX 11 8 0 0
BITMAP
FFE0
49C0
4A40
4A40
3240
0240
01C0
0040
ENDCHAR
STARTCHAR uni0924094D0915
ENCODING -1
SWIDTH 992 0
DWIDTH 12 0
BBX 12 8 0 0
BITMAP
FFF0
05C0
7920
4920
4920
4920
4740
2100
ENDCHAR
STARTCHAR uni0924094D0916
ENCODING -1
SWIDTH 1014 0
DWIDTH 12 0
BBX 12 8 0 0
BITMAP
FFF0
02E0
72A0
4D20
44A0
44E0
4220
2220
ENDCHAR
STARTCHAR uni0924094D0924
ENCODING -1
SWIDTH 542 0
DWIDTH 7 0
BBX 7 8 0 0
BITMAP
FE
04
F8
44
44
44
44
34
ENDCHAR
STARTCHAR uni0924094D0925
ENCODING -1
SWIDTH 869 0
DWIDTH 10 0
BBX 11 8 0 0
BITMAP
E660
0A40
7E40
4840
4880
4740
4040
2040
ENDCHAR
STARTCHAR uni0924094D092A
ENCODING -1
SWIDTH 757 0
DWIDTH 9 0
BBX 9 8 0 0
BITMAP
FF80
0900
7900
4900
4700
4100
4100
2100
ENDCHAR
STARTCHAR uni0924094D092B
ENCODING -1
SWIDTH 992 0
DWIDTH 12 0
BBX 12 8 0 0
BITMAP
FFF0
09C0
7920
4920
4720
4120
4140
2100
ENDCHAR
STARTCHAR uni0924094D092E
ENCODING -1
SWIDTH 764 0
DWIDTH 9 0
BBX 9 8 0 0
BITMAP
FF80
0900
7900
4F00
4900
4100
4100
2100
ENDCHAR
STARTCHAR uni0924094D092F
ENCODING -1
SWIDTH 830 0
DWIDTH 10 0
BBX 10 8 0 0
BITMAP
FFC0
0280
7C80
4880
4880
4780
4080
2080
ENDCHAR
STARTCHAR uni0924094D0932
ENCODING -1
SWIDTH 957 0
DWIDTH 11 0
BBX 12 8 0 0
BITMAP
FFF0
0020
76C0
4920
4920
4820
4620
2020
ENDCHAR
STARTCHAR uni0924094D0935
ENCODING -1
SWIDTH 751 0
DWIDTH 9 0
BBX 9 8 0 0
BITMAP
FF80
0500
7900
4900
4900
4900
4700
2100
ENDCHAR
STARTCHAR uni0924094D0938
ENCODING -1
SWIDTH 876 0
DWIDTH 11 0
BBX 11 8 0 0
BITMAP
FFE0
0240
7240
4F80
4840
4440
4440
2240
ENDCHAR
STARTCHAR uni0925094D092F
ENCODING -1
SWIDTH 931 0
DWIDTH 11 0
BBX 10 8 1 0
BITMAP
EFC0
A280
2C80
C880
8880
F780
0080
0080
ENDCHAR
STARTCHAR uni0925094D0935
ENCODING -1
SWIDTH 862 0
DWIDTH 10 0
BBX 10 8 1 0
BITMAP
EFC0
A700
2900
C900
8900
F900
0700
0100
ENDCHAR
STARTCHAR uni0926094D0917
ENCODING -1
SWIDTH 489 0
DWIDTH 6 0
BBX 6 9 0 -1
BITMAP
FC
78
40
40
48
38
28
28
40
ENDCHAR
STARTCHAR uni0926094D0918
ENCODING -1
SWIDTH 686 0
DWIDTH 8 0
BBX 8 8 0 0
BITMAP
FF
0E
70
90
91
71
8E
71
ENDCHAR
STARTCHAR uni0926094D0926
ENCODING -1
SWIDTH 506 0
DWIDTH 6 0
BBX 6 8 0 0
BITMAP
FC
78
40
40
30
48
78
08
ENDCHAR
STARTCHAR uni0926094D0927
ENCODING -1
SWIDTH 686 0
DWIDTH 8 0
BBX 8 8 0 0
BITMAP
FF
0E
50
90
91
71
8E
71
ENDCHAR
STARTCHAR uni0926094D092C
ENCODING -1
SWIDTH 481 0
DWIDTH 6 0
BBX 6 10 0 -2
BITMAP
FC
08
78
40
40
48
38
68
58
30
ENDCHAR
STARTCHAR uni0926094D092D
ENCODING -1
SWIDTH 499 0
DWIDTH 6 0
BBX 6 10 0 -2
BITMAP
FC
08
78
40
48
38
C8
48
38
48
ENDCHAR
STARTCHAR uni0926094D092E
ENCODING -1
SWIDTH 706 0
DWIDTH 8 0
BBX 9 8 0 0
BITMAP
FF80
7100
8100
8900
7900
0E00
0900
0100
ENDCHAR
STARTCHAR uni0926094D092F
ENCODING -1
SWIDTH 583 0
DWIDTH 7 0
BBX 7 8 0 0
BITMAP
FE
74
44
24
44
44
7C
04
ENDCHAR
STARTCHAR uni0926094D0935
ENCODING -1
SWIDTH 483 0
DWIDTH 6 0
BBX 6 10 0 -2
BITMAP
FC
08
78
40
40
48
38
48
48
30
ENDCHAR
STARTCHAR uni0927094D092E
ENCODING -1
SWIDTH 817 0
DWIDTH 10 0
BBX 10 8 0 0
BITMAP
EFC0
4480
2480
4780
4480
4480
3880
0080
ENDCHAR
STARTCHAR uni0927094D092F
ENCODING -1
SWIDTH 886 0
DWIDTH 11 0
BBX 11 8 0 0
BITMAP
EFE0
4240
6640
4840
4440
47C0
3840
0040
ENDCHAR
STARTCHAR uni0927094D0935
ENCODING -1
SWIDTH 810 0
DWIDTH 10 0
BBX 10 8 0 0
BITMAP
EFC0
4680
2480
4880
4880
4480
3F80
0080
ENDCHAR
STARTCHAR uni0928094D0915
ENCODING -1
SWIDTH 973 0
DWIDTH 12 0
BBX 12 8 0 0
BITMAP
FFF0
0DC0
7120
9120
9120
0920
0FC0
0100
ENDCHAR
STARTCHAR uni0928094D091A
ENCODING -1
SWIDTH 820 0
DWIDTH 10 0
BBX 10 8 0 0
BITMAP
FFC0
0080
0E80
7880
8880
0780
0080
0080
ENDCHAR
STARTCHAR uni0928094D091B
ENCODING -1
SWIDTH 781 0
DWIDTH 9 0
BBX 10 7 0 1
BITMAP
FFC0
1100
1300
7C80
9080
1080
0F00
ENDCHAR
STARTCHAR uni0928094D091F
ENCODING -1
SWIDTH 715 0
DWIDTH 9 0
BBX 9 7 0 1
BITMAP
FF80
0100
7E00
9000
9100
1100
0E00
ENDCHAR
STARTCHAR uni0928094D0921
ENCODING -1
SWIDTH 705 0
DWIDTH 8 0
BBX 9 8 0 0
BITMAP
FF80
0E00
7000
9000
8E00
0100
1100
0E00
ENDCHAR
STARTCHAR uni0928094D0924
ENCODING -1
SWIDTH 717 0
DWIDTH 9 0
BBX 9 8 0 0
BITMAP
FF80
0100
7F00
9100
9100
1100
1100
0D00
ENDCHAR
STARTCHAR uni0928094D0925
ENCODING -1
SWIDTH 804 0
DWIDTH 10 0
BBX 10 8 0 0
BITMAP
ECC0
1280
0280
7C80
9080
0F80
0080
0080
ENDCHAR
STARTCHAR uni0928094D0926
ENCODING -1
SWIDTH 724 0
DWIDTH 9 0
BBX 9 8 0 0
BITMAP
FF80
0F00
7000
9000
9100
0900
0F00
0100
ENDCHAR
STARTCHAR uni0928094D0927
ENCODING -1
SWIDTH 753 0
DWIDTH 9 0
BBX 9 8 0 0
BITMAP
FB80
1100
7D00
9100
9100
1100
0F00
0100
ENDCHAR
STARTCHAR uni0928094D092A
ENCODING -1
SWIDTH 742 0
DWIDTH 9 0
BBX 9 8 0 0
BITMAP
FF80
0900
0900
7100
8F00
0100
0100
0100
ENDCHAR
STARTCHAR uni0928094D092B
ENCODING -1
SWIDTH 970 0
DWIDTH 12 0
BBX 12 8 0 0
BITMAP
FFF0
09C0
7120
8920
8F20
0120
01C0
0100
ENDCHAR
STARTCHAR uni0928094D092D
ENCODING -1
SWIDTH 739 0
DWIDTH 9 0
BBX 9 8 0 0
BITMAP
F380
0900
0900
7F00
8900
0100
0100
0100
ENDCHAR
STARTCHAR uni0928094D092E
ENCODING -1
SWIDTH 735 0
DWIDTH 9 0
BBX 9 8 0 0
BITMAP
FF80
0900
0900
7F00
8900
0100
0100
0100
ENDCHAR
STARTCHAR uni0928094D092F
ENCODING -1
SWIDTH 801 0
DWIDTH 10 0
BBX 10 8 0 0
BITMAP
FFC0
0480
7C80
9080
0880
0F80
0080
0080
ENDCHAR
STARTCHAR uni0928094D0935
ENCODING -1
SWIDTH 732 0
DWIDTH 9 0
BBX 9 8 0 0
BITMAP
FF80
0D00
7100
8900
8900
0900
0700
0100
ENDCHAR
STARTCHAR uni0928094D0938
ENCODING -1
SWIDTH 867 0
DWIDTH 10 0
BBX 11 8 0 0
BITMAP
FFE0
0240
7440
8F80
8840
0440
0440
0240
ENDCHAR
STARTCHAR uni0928094D0939
ENCODING -1
SWIDTH 714 0
DWIDTH 9 0
BBX 9 9 0 -1
BITMAP
FF80
0100
0E00
7000
8E00
0900
1100
0800
0F00
ENDCHAR
STARTCHAR uni092A094D091F
ENCODING -1
SWIDTH 489 0
DWIDTH 6 0
BBX 6 8 0 0
BITMAP
FC
48
48
38
40
48
48
30
ENDCHAR
STARTCHAR uni092A094D0920
ENCODING -1
SWIDTH 506 0
DWIDTH 6 0
BBX 6 8 0 0
BITMAP
FC
48
48
78
48
48
48
30
ENDCHAR
STARTCHAR uni092A094D0924
ENCODING -1
SWIDTH 495 0
DWIDTH 6 0
BBX 6 8 0 0
BITMAP
FC
48
48
78
48
48
48
28
ENDCHAR
STARTCHAR uni092A094D092A
ENCODING -1
SWIDTH 770 0
DWIDTH 9 0
BBX 9 8 0 0
BITMAP
FF80
4900
4900
4900
3700
0100
0100
0100
ENDCHAR
STARTCHAR uni092A094D092B
ENCODING -1
SWIDTH 1003 0
DWIDTH 12 0
BBX 12 8 0 0
BITMAP
FFF0
49E0
4920
4910
3710
0120
0160
0100
ENDCHAR
STARTCHAR uni092A094D092E
ENCODING -1
SWIDTH 774 0
DWIDTH 9 0
BBX 9 8 0 0
BITMAP
FF80
4900
4900
4F00
3900
0100
0100
0100
ENDCHAR
STARTCHAR uni092A094D092F
ENCODING -1
SWIDTH 855 0
DWIDTH 10 0
BBX 10 8 0 0
BITMAP
FFC0
4280
4C80
4880
3880
0780
0080
0080
ENDCHAR
STARTCHAR uni092A094D0932
ENCODING -1
SWIDTH 960 0
DWIDTH 12 0
BBX 12 8 0 0
BITMAP
FFF0
4020
46C0
4920
3820
0820
0620
0020
ENDCHAR
STARTCHAR uni092A094D0935
ENCODING -1
SWIDTH 780 0
DWIDTH 9 0
BBX 10 8 0 0
BITMAP
FFC0
4700
4900
4900
3900
0900
0700
0100
ENDCHAR
STARTCHAR uni092A094D0938
ENCODING -1
SWIDTH 880 0
DWIDTH 11 0
BBX 11 8 0 0
BITMAP
FFE0
4240
4240
4F80
3840
0440
0440
0240
ENDCHAR
STARTCHAR uni092B094D091C
ENCODING -1
SWIDTH 1100 0
DWIDTH 13 0
BBX 13 8 0 0
BITMAP
FFF8
4810
4EF0
4850
3850
0850
0990
0810
ENDCHAR
STARTCHAR uni092B094D091F
ENCODING -1
SWIDTH 1006 0
DWIDTH 12 0
BBX 12 8 0 0
BITMAP
FFF0
4E20
49E0
4900
3910
0910
09E0
0800
ENDCHAR
STARTCHAR uni092B094D0924
ENCODING -1
SWIDTH 1034 0
DWIDTH 12 0
BBX 13 8 0 0
BITMAP
FFF8
4E10
49E0
4910
3910
0910
0910
08D0
ENDCHAR
STARTCHAR uni092B094D092A
ENCODING -1
SWIDTH 1021 0
DWIDTH 12 0
BBX 12 8 0 0
BITMAP
FFF0
4F20
4920
4920
38E0
0820
0820
0820
ENDCHAR
STARTCHAR uni092B094D092B
ENCODING -1
SWIDTH 1256 0
DWIDTH 15 0
BBX 15 8 0 0
BITMAP
FFFE
4F3C
4924
4922
38E2
0824
082C
0820
ENDCHAR
STARTCHAR uni092B094D092F
ENCODING -1
SWIDTH 1120 0
DWIDTH 13 0
BBX 13 8 0 0
BITMAP
FFF8
4850
4F90
4910
3910
08F0
0810
0810
ENDCHAR
STARTCHAR uni092B094D0932
ENCODING -1
SWIDTH 1202 0
DWIDTH 14 0
BBX 15 8 0 0
BITMAP
FFFE
4E04
49D8
4924
3924
0904
08C4
0804
ENDCHAR
STARTCHAR uni092B094D0936
ENCODING -1
SWIDTH 1211 0
DWIDTH 15 0
BBX 15 8 0 0
BITMAP
FEE6
4EA4
4924
49E4
3904
0884
0844
0844
ENDCHAR
STARTCHAR uni092C094D091C
ENCODING -1
SWIDTH 883 0
DWIDTH 11 0
BBX 11 8 0 0
BITMAP
FFE0
6040
4780
6140
5140
5140
7E40
0040
ENDCHAR
STARTCHAR uni092C094D091D
ENCODING -1
SWIDTH 962 0
DWIDTH 12 0
BBX 12 9 0 -1
BITMAP
FFF0
6720
4820
6820
5FC0
7120
0920
0E20
0800
ENDCHAR
STARTCHAR uni092C094D0924
ENCODING -1
SWIDTH 786 0
DWIDTH 9 0
BBX 10 8 0 0
BITMAP
FFC0
6080
4700
6880
5880
4880
7880
0680
ENDCHAR
STARTCHAR uni092C094D0926
ENCODING -1
SWIDTH 775 0
DWIDTH 9 0
BBX 9 8 0 0
BITMAP
FF80
6700
4800
6800
5880
4880
7700
0080
ENDCHAR
STARTCHAR uni092C094D0927
ENCODING -1
SWIDTH 844 0
DWIDTH 10 0
BBX 10 8 0 0
BITMAP
FDC0
6880
4680
6880
5880
4880
7780
0080
ENDCHAR
STARTCHAR uni092C094D092C
ENCODING -1
SWIDTH 783 0
DWIDTH 9 0
BBX 10 8 0 0
BITMAP
FFC0
6680
4C80
6A80
5A80
4900
3680
0080
ENDCHAR
STARTCHAR uni092C094D092D
ENCODING -1
SWIDTH 764 0
DWIDTH 9 0
BBX 9 8 0 0
BITMAP
FB80
6900
4900
6F00
5900
4900
3100
0100
ENDCHAR
STARTCHAR uni092C094D092F
ENCODING -1
SWIDTH 852 0
DWIDTH 10 0
BBX 10 8 0 0
BITMAP
FFC0
6280
4C80
6880
5880
4F80
7080
0080
ENDCHAR
STARTCHAR uni092C094D0932
ENCODING -1
SWIDTH 961 0
DWIDTH 12 0
BBX 12 8 0 0
BITMAP
FFF0
6020
46C0
6920
5920
4820
3620
0020
ENDCHAR
STARTCHAR uni092C094D0935
ENCODING -1
SWIDTH 776 0
DWIDTH 9 0
BBX 9 8 0 0
BITMAP
FF80
6700
4900
6900
5900
4900
3700
0100
ENDCHAR
STARTCHAR uni092C094D0936
ENCODING -1
SWIDTH 926 0
DWIDTH 11 0
BBX 11 8 0 0
BITMAP
F760
6940
4140
6E40
5840
4C40
7240
0240
ENDCHAR
STARTCHAR uni092C094D0938
ENCODING -1
SWIDTH 897 0
DWIDTH 11 0
BBX 11 8 0 0
BITMAP
FFE0
6240
4240
6FC0
5840
4C40
7240
0240
ENDCHAR
STARTCHAR uni092D094D092F
ENCODING -1
SWIDTH 827 0
DWIDTH 10 0
BBX 10 8 0 0
BITMAP
9FC0
4280
4C80
7880
4880
0780
0080
0080
ENDCHAR
STARTCHAR uni092D094D0932
ENCODING -1
SWIDTH 941 0
DWIDTH 11 0
BBX 11 8 0 0
BITMAP
9FE0
4040
47C0
7940
4940
0840
0C40
0040
ENDCHAR
STARTCHAR uni092D094D0935
ENCODING -1
SWIDTH 755 0
DWIDTH 9 0
BBX 9 8 0 0
BITMAP
9F80
4700
4900
7900
4900
4900
0700
0100
ENDCHAR
STARTCHAR uni092E094D0924
ENCODING -1
SWIDTH 765 0
DWIDTH 9 0
BBX 9 8 0 0
BITMAP
FF80
4100
4700
7900
4900
0900
0900
0500
ENDCHAR
STARTCHAR uni092E094D0926
ENCODING -1
SWIDTH 766 0
DWIDTH 9 0
BBX 9 8 0 0
BITMAP
FF80
4700
4800
7800
4880
4900
0700
0080
ENDCHAR
STARTCHAR uni092E094D092A
ENCODING -1
SWIDTH 762 0
DWIDTH 9 0
BBX 9 8 0 0
BITMAP
FF80
4900
4900
7900
4700
0100
0100
0100
ENDCHAR
STARTCHAR uni092E094D092C
ENCODING -1
SWIDTH 768 0
DWIDTH 9 0
BBX 9 8 0 0
BITMAP
FF80
4700
4900
7D00
4B00
4900
0700
0100
ENDCHAR
STARTCHAR uni092E094D092D
ENCODING -1
SWIDTH 768 0
DWIDTH 9 0
BBX 9 8 0 0
BITMAP
FB80
4900
4900
7F00
4900
0100
0100
0100
ENDCHAR
STARTCHAR uni092E094D092E
ENCODING -1
SWIDTH 759 0
DWIDTH 9 0
BBX 9 8 0 0
BITMAP
FF80
4900
4900
7F00
4900
0100
0100
0100
ENDCHAR
STARTCHAR uni092E094D092F
ENCODING -1
SWIDTH 834 0
DWIDTH 10 0
BBX 10 8 0 0
BITMAP
FFC0
4280
4C80
7880
4880
0780
0080
0080
ENDCHAR
STARTCHAR uni092E094D0932
ENCODING -1
SWIDTH 945 0
DWIDTH 11 0
BBX 12 8 0 0
BITMAP
FFF0
4040
47C0
7940
4940
0840
0E40
0040
ENDCHAR
STARTCHAR uni092E094D0935
ENCODING -1
SWIDTH 761 0
DWIDTH 9 0
BBX 9 8 0 0
BITMAP
FF80
4700
4900
7900
4900
4900
0700
0100
ENDCHAR
STARTCHAR uni092E094D0936
ENCODING -1
SWIDTH 884 0
DWIDTH 11 0
BBX 11 8 0 0
BITMAP
EE60
4A40
4240
7E40
4840
0440
0440
0240
ENDCHAR
STARTCHAR uni092E094D0938
ENCODING -1
SWIDTH 816 0
DWIDTH 10 0
BBX 10 8 0 0
BITMAP
FFC0
4480
4480
7F80
4880
0880
0480
0480
ENDCHAR
STARTCHAR uni092E094D0939
ENCODING -1
SWIDTH 758 0
DWIDTH 9 0
BBX 9 9 0 -1
BITMAP
FF80
4100
4700
7800
4700
4900
0900
0800
0700
ENDCHAR
STARTCHAR uni092F094D092F
ENCODING -1
SWIDTH 897 0
DWIDTH 11 0
BBX 11 8 0 0
BITMAP
FFE0
2240
6640
4440
4440
3BC0
0040
0040
ENDCHAR
STARTCHAR uni0930094D092F
ENCODING -1
SWIDTH 713 0
DWIDTH 9 0
BBX 9 8 0 0
BITMAP
FF80
0900
F900
2100
2100
1E00
0100
0100
ENDCHAR
STARTCHAR uni0930094D0939
ENCODING -1
SWIDTH 619 0
DWIDTH 7 0
BBX 8 9 0 -1
BITMAP
FF
02
9C
60
1C
22
22
20
1C
ENDCHAR
STARTCHAR uni0932094D0915
ENCODING -1
SWIDTH 1182 0
DWIDTH 14 0
BBX 14 8 0 0
BITMAP
FFFC
01B8
7E44
5244
5244
4244
61D8
0040
ENDCHAR
STARTCHAR uni0932094D0916
ENCODING -1
SWIDTH 1195 0
DWIDTH 14 0
BBX 15 8 0 0
BITMAP
FFFE
00B8
7CA8
53A8
5128
4138
6088
0088
ENDCHAR
STARTCHAR uni0932094D0917
ENCODING -1
SWIDTH 950 0
DWIDTH 11 0
BBX 12 8 0 0
BITMAP
FFF0
0120
7D20
5120
5220
4020
6020
0020
ENDCHAR
STARTCHAR uni0932094D091C
ENCODING -1
SWIDTH 1035 0
DWIDTH 12 0
BBX 13 8 0 0
BITMAP
FFF8
0010
7DE0
5090
5090
4090
6390
0010
ENDCHAR
STARTCHAR uni0932094D091F
ENCODING -1
SWIDTH 929 0
DWIDTH 11 0
BBX 11 7 0 1
BITMAP
FFE0
0040
7DC0
5200
5200
4220
61C0
ENDCHAR
STARTCHAR uni0932094D0920
ENCODING -1
SWIDTH 953 0
DWIDTH 11 0
BBX 12 7 0 1
BITMAP
FFF0
0040
7DC0
5220
5220
4220
61C0
ENDCHAR
STARTCHAR uni0932094D0921
ENCODING -1
SWIDTH 916 0
DWIDTH 11 0
BBX 11 8 0 0
BITMAP
FFE0
01C0
7E00
5200
51C0
4040
6240
0180
ENDCHAR
STARTCHAR uni0932094D0922
ENCODING -1
SWIDTH 924 0
DWIDTH 11 0
BBX 11 7 0 1
BITMAP
FFE0
0040
7DC0
5240
52A0
4220
61C0
ENDCHAR
STARTCHAR uni0932094D0924
ENCODING -1
SWIDTH 929 0
DWIDTH 11 0
BBX 11 8 0 0
BITMAP
FFE0
0040
7DC0
5240
5240
4240
6240
0140
ENDCHAR
STARTCHAR uni0932094D0925
ENCODING -1
SWIDTH 1061 0
DWIDTH 13 0
BBX 13 8 0 0
BITMAP
FD98
0250
7C50
5390
5210
41F0
6010
0010
ENDCHAR
STARTCHAR uni0932094D0926
ENCODING -1
SWIDTH 939 0
DWIDTH 11 0
BBX 11 8 0 0
BITMAP
FFE0
01C0
7E00
5200
5220
4220
61E0
0020
ENDCHAR
STARTCHAR uni0932094D092A
ENCODING -1
SWIDTH 939 0
DWIDTH 11 0
BBX 11 8 0 0
BITMAP
FFE0
0240
7E40
5240
41C0
4040
6040
0040
ENDCHAR
STARTCHAR uni0932094D092B
ENCODING -1
SWIDTH 1176 0
DWIDTH 14 0
BBX 14 8 0 0
BITMAP
FFFC
0278
7E48
5244
51C4
4048
6050
0040
ENDCHAR
STARTCHAR uni0932094D092C
ENCODING -1
SWIDTH 949 0
DWIDTH 11 0
BBX 12 8 0 0
BITMAP
FFF0
01A0
7E20
5320
52A0
4240
61A0
0020
ENDCHAR
STARTCHAR uni0932094D092D
ENCODING -1
SWIDTH 931 0
DWIDTH 11 0
BBX 11 8 0 0
BITMAP
FEE0
0240
7E40
53C0
5240
4040
6040
0040
ENDCHAR
STARTCHAR uni0932094D092E
ENCODING -1
SWIDTH 931 0
DWIDTH 11 0
BBX 11 8 0 0
BITMAP
FFE0
0240
7E40
53C0
5240
4040
6040
0040
ENDCHAR
STARTCHAR uni0932094D092F
ENCODING -1
SWIDTH 1033 0
DWIDTH 12 0
BBX 13 8 0 0
BITMAP
FFF8
2C90
5290
5310
5220
41D0
6010
0020
ENDCHAR
STARTCHAR uni0932094D0932
ENCODING -1
SWIDTH 1112 0
DWIDTH 13 0
BBX 14 8 0 0
BITMAP
FFFC
0010
7DB0
5250
5250
4210
6390
0010
ENDCHAR
STARTCHAR uni0932094D0935
ENCODING -1
SWIDTH 940 0
DWIDTH 11 0
BBX 11 8 0 0
BITMAP
FFE0
01C0
7E40
5240
5240
4240
61C0
0040
ENDCHAR
STARTCHAR uni0932094D0938
ENCODING -1
SWIDTH 1068 0
DWIDTH 13 0
BBX 13 8 0 0
BITMAP
FFF8
0090
7C90
53F0
5110
4110
6090
0090
ENDCHAR
STARTCHAR uni0932094D0939
ENCODING -1
SWIDTH 922 0
DWIDTH 11 0
BBX 11 8 0 0
BITMAP
FFE0
01C0
7E00
5200
51C0
4240
6200
01C0
ENDCHAR
STARTCHAR uni0933094D092F
ENCODING -1
SWIDTH 1050 0
DWIDTH 13 0
BBX 13 8 0 0
BITMAP
FFF8
3E90
4990
4A10
4A10
51F0
2E10
0010
ENDCHAR
STARTCHAR uni0935094D092F
ENCODING -1
SWIDTH 852 0
DWIDTH 10 0
BBX 10 8 0 0
BITMAP
FFC0
6280
4C80
4880
4880
4F80
7080
0080
ENDCHAR
STARTCHAR uni0935094D0932
ENCODING -1
SWIDTH 961 0
DWIDTH 12 0
BBX 12 8 0 0
BITMAP
FFF0
66C0
4920
4920
4920
4820
7620
0020
ENDCHAR
STARTCHAR uni0935094D0935
ENCODING -1
SWIDTH 776 0
DWIDTH 9 0
BBX 9 8 0 0
BITMAP
FF80
6700
4900
4900
4900
4900
3700
0100
ENDCHAR
STARTCHAR uni0935094D0939
ENCODING -1
SWIDTH 754 0
DWIDTH 9 0
BBX 9 9 0 -1
BITMAP
FF80
0100
6700
4800
4700
4900
7800
0800
0700
ENDCHAR
STARTCHAR uni0936094D0915
ENCODING -1
SWIDTH 1093 0
DWIDTH 13 0
BBX 12 8 1 0
BITMAP
EFF0
A7E0
2920
C910
8910
8920
4760
2100
ENDCHAR
STARTCHAR uni0936094D091A
ENCODING -1
SWIDTH 950 0
DWIDTH 11 0
BBX 11 8 1 0
BITMAP
EFE0
A040
2F40
C440
8480
8340
4040
2040
ENDCHAR
STARTCHAR uni0936094D091B
ENCODING -1
SWIDTH 968 0
DWIDTH 12 0
BBX 12 8 0 0
BITMAP
77F0
5420
1440
E320
4420
4420
23C0
1000
ENDCHAR
STARTCHAR uni0936094D091F
ENCODING -1
SWIDTH 854 0
DWIDTH 10 0
BBX 9 8 1 0
BITMAP
EF80
A100
2700
C800
8880
8880
4700
2000
ENDCHAR
STARTCHAR uni0936094D0924
ENCODING -1
SWIDTH 864 0
DWIDTH 10 0
BBX 10 8 1 0
BITMAP
EFC0
A100
2700
C900
8900
8900
4900
2500
ENDCHAR
STARTCHAR uni0936094D092E
ENCODING -1
SWIDTH 885 0
DWIDTH 11 0
BBX 10 8 1 0
BITMAP
EFC0
A880
2880
C780
8880
8080
4080
2080
ENDCHAR
STARTCHAR uni0936094D092F
ENCODING -1
SWIDTH 940 0
DWIDTH 11 0
BBX 10 8 1 0
BITMAP
EFC0
A280
2C80
C880
8880
8780
4080
2080
ENDCHAR
STARTCHAR uni0936094D0932
ENCODING -1
SWIDTH 1039 0
DWIDTH 12 0
BBX 12 8 1 0
BITMAP
EFF0
A020
26C0
C920
8920
8820
4620
2020
ENDCHAR
STARTCHAR uni0936094D0935
ENCODING -1
SWIDTH 850 0
DWIDTH 10 0
BBX 9 8 1 0
BITMAP
EF80
A700
2900
C900
8900
8900
4700
2100
ENDCHAR
STARTCHAR uni0936094D0936
ENCODING -1
SWIDTH 1009 0
DWIDTH 12 0
BBX 11 8 1 0
BITMAP
E760
A940
2140
CE40
8440
8440
4240
2240
ENDCHAR
STARTCHAR uni0937094D0915
ENCODING -1
SWIDTH 1039 0
DWIDTH 12 0
BBX 13 8 0 0
BITMAP
FFF8
66E0
5890
4890
3890
0890
07E0
0080
ENDCHAR
STARTCHAR uni0937094D091F
ENCODING -1
SWIDTH 493 0
DWIDTH 6 0
BBX 6 8 0 0
BITMAP
FC
68
58
78
40
44
48
30
ENDCHAR
STARTCHAR uni0937094D0920
ENCODING -1
SWIDTH 511 0
DWIDTH 6 0
BBX 6 8 0 0
BITMAP
FC
78
78
78
48
48
48
30
ENDCHAR
STARTCHAR uni0937094D0923
ENCODING -1
SWIDTH 980 0
DWIDTH 12 0
BBX 12 8 0 0
BITMAP
FFF0
6920
5920
4920
3620
0020
0020
0020
ENDCHAR
STARTCHAR uni0937094D092A
ENCODING -1
SWIDTH 980 0
DWIDTH 12 0
BBX 12 8 0 0
BITMAP
FFF0
6920
5920
4920
3620
0020
0020
0020
ENDCHAR
STARTCHAR uni0937094D092B
ENCODING -1
SWIDTH 1036 0
DWIDTH 12 0
BBX 13 8 0 0
BITMAP
FFF8
68E0
5890
4890
3790
0090
00E0
0080
ENDCHAR
STARTCHAR uni0937094D092E
ENCODING -1
SWIDTH 791 0
DWIDTH 9 0
BBX 10 8 0 0
BITMAP
FFC0
6880
5880
4F00
3880
0080
0080
0080
ENDCHAR
STARTCHAR uni0937094D092F
ENCODING -1
SWIDTH 877 0
DWIDTH 11 0
BBX 11 8 0 0
BITMAP
FFE0
6240
5640
4840
3840
07C0
0040
0040
ENDCHAR
STARTCHAR uni0937094D0935
ENCODING -1
SWIDTH 802 0
DWIDTH 10 0
BBX 10 8 0 0
BITMAP
FFC0
6680
5880
4880
3880
0480
0780
0080
ENDCHAR
STARTCHAR uni0937094D0937
ENCODING -1
SWIDTH 804 0
DWIDTH 10 0
BBX 10 8 0 0
BITMAP
FFC0
6C80
5A80
4980
3780
0080
0080
0080
ENDCHAR
STARTCHAR uni0938094D0915
ENCODING -1
SWIDTH 1089 0
DWIDTH 13 0
BBX 13 8 0 0
BITMAP
FFF8
23F0
2490
FC88
4488
4490
23B0
2080
ENDCHAR
STARTCHAR uni0938094D0916
ENCODING -1
SWIDTH 990 0
DWIDTH 12 0
BBX 12 8 0 0
BITMAP
FFF0
22A0
2320
FD20
4920
44E0
2420
2220
ENDCHAR
STARTCHAR uni0938094D091C
ENCODING -1
SWIDTH 970 0
DWIDTH 12 0
BBX 12 8 0 0
BITMAP
FFF0
2020
23E0
F8A0
40A0
40A0
2720
2020
ENDCHAR
STARTCHAR uni0938094D091F
ENCODING -1
SWIDTH 844 0
DWIDTH 10 0
BBX 10 8 0 0
BITMAP
FFC0
2080
2380
FC00
4440
4440
2380
2000
ENDCHAR
STARTCHAR uni0938094D0924
ENCODING -1
SWIDTH 852 0
DWIDTH 10 0
BBX 10 8 0 0
BITMAP
FFC0
2080
2380
FC80
4480
4480
2480
2280
ENDCHAR
STARTCHAR uni0938094D0925
ENCODING -1
SWIDTH 960 0
DWIDTH 12 0
BBX 12 8 0 0
BITMAP
FB30
24A0
20A0
FF20
4420
43E0
2020
2020
ENDCHAR
STARTCHAR uni0938094D0926
ENCODING -1
SWIDTH 851 0
DWIDTH 10 0
BBX 10 8 0 0
BITMAP
FFC0
2380
2400
FC00
4440
4480
2380
2040
ENDCHAR
STARTCHAR uni0938094D092A
ENCODING -1
SWIDTH 857 0
DWIDTH 10 0
BBX 10 8 0 0
BITMAP
FFC0
2480
2480
FC80
4380
4080
2080
2080
ENDCHAR
STARTCHAR uni0938094D092B
ENCODING -1
SWIDTH 1092 0
DWIDTH 13 0
BBX 13 8 0 0
BITMAP
FFF8
24F0
2490
FC88
4388
4090
20B0
2080
ENDCHAR
STARTCHAR uni0938094D092C
ENCODING -1
SWIDTH 857 0
DWIDTH 10 0
BBX 10 8 0 0
BITMAP
FFC0
2380
2680
FD80
4580
4480
2380
2080
ENDCHAR
STARTCHAR uni0938094D092E
ENCODING -1
SWIDTH 850 0
DWIDTH 10 0
BBX 10 8 0 0
BITMAP
FFC0
2480
2480
FF80
4480
4080
2080
2080
ENDCHAR
STARTCHAR uni0938094D092F
ENCODING -1
SWIDTH 920 0
DWIDTH 11 0
BBX 11 8 0 0
BITMAP
FFE0
2140
2640
FC40
4440
43C0
2040
2040
ENDCHAR
STARTCHAR uni0938094D0932
ENCODING -1
SWIDTH 1027 0
DWIDTH 12 0
BBX 12 8 0 0
BITMAP
FFF0
2020
27E0
FCA0
44A0
4420
2720
2020
ENDCHAR
STARTCHAR uni0938094D0935
ENCODING -1
SWIDTH 842 0
DWIDTH 10 0
BBX 10 8 0 0
BITMAP
FFC0
2380
2480
FC80
4480
4480
2380
2080
ENDCHAR
STARTCHAR uni0938094D0938
ENCODING -1
SWIDTH 871 0
DWIDTH 10 0
BBX 11 8 0 0
BITMAP
FFE0
2240
2240
FF80
4840
4440
2440
2240
ENDCHAR
STARTCHAR uni0939094D0923
ENCODING -1
SWIDTH 1136 0
DWIDTH 14 0
BBX 14 11 0 -3
BITMAP
FFFC
0A48
7A48
4248
3248
4988
4808
4008
3800
1000
0800
ENDCHAR
STARTCHAR uni0939094D092E
ENCODING -1
SWIDTH 746 0
DWIDTH 9 0
BBX 9 9 0 -1
BITMAP
FF80
7900
4100
4100
3900
4F00
4900
4900
3800
ENDCHAR
STARTCHAR uni0939094D092F
ENCODING -1
SWIDTH 785 0
DWIDTH 9 0
BBX 10 10 0 -2
BITMAP
FFC0
0880
7880
4080
3C80
4480
4C80
4900
4680
3080
ENDCHAR
STARTCHAR uni0939094D0932
ENCODING -1
SWIDTH 1110 0
DWIDTH 13 0
BBX 13 11 0 -3
BITMAP
FFF8
7810
41B0
4250
3250
4A10
4390
3810
0000
1000
0800
ENDCHAR
STARTCHAR uni0939094D0935
ENCODING -1
SWIDTH 920 0
DWIDTH 11 0
BBX 11 11 0 -3
BITMAP
FFE0
39C0
4240
4240
3240
4A40
49C0
4040
3800
1000
1800
ENDCHAR
STARTCHAR uni0915093C094D0915093C
ENCODING -1
SWIDTH 1275 0
DWIDTH 15 0
BBX 15 8 0 0
BITMAP
FFFE
6EFC
4922
4922
4922
4922
78EC
48A0
ENDCHAR
STARTCHAR uni0915093C094D0924
ENCODING -1
SWIDTH 1016 0
DWIDTH 12 0
BBX 12 8 0 0
BITMAP
FFF0
6E20
49E0
4920
4920
4920
7920
48A0
ENDCHAR
STARTCHAR uni0915093C094D092B
ENCODING -1
SWIDTH 1246 0
DWIDTH 15 0
BBX 15 8 0 0
BITMAP
FFFE
6F38
4924
4924
48E4
4824
7828
4820
ENDCHAR
STARTCHAR uni0915093C094D092B093C
ENCODING -1
SWIDTH 1247 0
DWIDTH 15 0
BBX 15 8 0 0
BITMAP
FFFE
6F38
4924
4924
48E4
4824
7828
48A0
ENDCHAR
STARTCHAR uni0915093C094D092C
ENCODING -1
SWIDTH 1043 0
DWIDTH 13 0
BBX 13 8 0 0
BITMAP
FFF8
6ED0
4990
4950
4950
4920
78E0
4810
ENDCHAR
STARTCHAR uni0915093C094D092E
ENCODING -1
SWIDTH 998 0
DWIDTH 12 0
BBX 12 8 0 0
BITMAP
FFF0
6F20
4920
49E0
4920
4920
7820
4820
ENDCHAR
STARTCHAR uni0916093C094D0924
ENCODING -1
SWIDTH 984 0
DWIDTH 12 0
BBX 12 8 0 0
BITMAP
FFF0
2420
29E0
EA20
4A20
4620
2120
14A0
ENDCHAR
STARTCHAR uni0916093C094D092E
ENCODING -1
SWIDTH 965 0
DWIDTH 12 0
BBX 12 8 0 0
BITMAP
FFF0
2620
2A20
E9C0
4A20
4620
2020
1420
ENDCHAR
STARTCHAR uni0916093C094D092F
ENCODING -1
SWIDTH 1045 0
DWIDTH 13 0
BBX 13 8 0 0
BITMAP
FFF8
2490
2990
EA10
4A10
45E0
2010
1410
ENDCHAR
STARTCHAR uni0916093C094D0935
ENCODING -1
SWIDTH 972 0
DWIDTH 12 0
BBX 12 8 0 0
BITMAP
FFF0
25A0
2A20
EA20
4A20
4520
21E0
1420
ENDCHAR
STARTCHAR uni0916093C094D0936
ENCODING -1
SWIDTH 1123 0
DWIDTH 13 0
BBX 14 8 0 0
BITMAP
FDCC
2548
2848
EBC8
4A08
4508
2088
1488
ENDCHAR
STARTCHAR uni0916093C094D0938
ENCODING -1
SWIDTH 1066 0
DWIDTH 13 0
BBX 13 8 0 0
BITMAP
FFF8
2490
2890
EBF0
4910
4710
2090
1490
ENDCHAR
STARTCHAR uni091C093C094D091C093C
ENCODING -1
SWIDTH 934 0
DWIDTH 11 0
BBX 11 8 0 0
BITMAP
FFE0
0040
7FC0
2140
1140
2140
EE40
4440
ENDCHAR
STARTCHAR uni091C093C094D092F
ENCODING -1
SWIDTH 893 0
DWIDTH 11 0
BBX 11 8 0 0
BITMAP
FFE0
0240
7E40
2440
2440
23C0
E040
4040
ENDCHAR
STARTCHAR uni092B093C094D091C093C
ENCODING -1
SWIDTH 1100 0
DWIDTH 13 0
BBX 13 8 0 0
BITMAP
FFF8
4810
4EF0
4850
3850
0850
0990
4890
ENDCHAR
STARTCHAR uni092B093C094D0924
ENCODING -1
SWIDTH 1036 0
DWIDTH 12 0
BBX 13 8 0 0
BITMAP
FFF8
4E10
49E0
4910
3910
0910
0910
48D0
ENDCHAR
STARTCHAR uni092B093C094D092B093C
ENCODING -1
SWIDTH 1256 0
DWIDTH 15 0
BBX 15 8 0 0
BITMAP
FFFE
4F3C
4924
4922
38E2
0824
082C
48A0
ENDCHAR
STARTCHAR uni092B093C094D0938
ENCODING -1
SWIDTH 1141 0
DWIDTH 14 0
BBX 14 8 0 0
BITMAP
FFFC
4E48
4948
49F8
3908
0888
0848
4848
ENDCHAR
STARTCHAR uni092C094D091C093C
ENCODING -1
SWIDTH 883 0
DWIDTH 11 0
BBX 11 8 0 0
BITMAP
FFE0
6040
4780
6140
5140
5140
7E40
0440
ENDCHAR
STARTCHAR uni0932094D091C093C
ENCODING -1
SWIDTH 1062 0
DWIDTH 13 0
BBX 13 8 0 0
BITMAP
FFF8
0010
7DE0
5090
5090
4090
6390
0110
ENDCHAR
STARTCHAR uni0936094D0915093C
ENCODING -1
SWIDTH 1093 0
DWIDTH 13 0
BBX 12 8 1 0
BITMAP
EFF0
A7E0
2920
C910
8910
8920
4760
2500
ENDCHAR
STARTCHAR uni0924094D0924094D
ENCODING -1
SWIDTH 309 0
DWIDTH 4 0
BBX 5 8 0 0
BITMAP
F8
00
F8
40
40
40
40
30
ENDCHAR
STARTCHAR uni0928094D092D094D
ENCODING -1
SWIDTH 505 0
DWIDTH 6 0
BBX 7 6 0 2
BITMAP
F2
08
08
7E
88
08
ENDCHAR
STARTCHAR uni0928094D0938094D
ENCODING -1
SWIDTH 635 0
DWIDTH 8 0
BBX 9 8 0 0
BITMAP
FF80
0200
7200
8F80
8800
0400
0400
0200
ENDCHAR
STARTCHAR uni092E094D092D094D
ENCODING -1
SWIDTH 533 0
DWIDTH 6 0
BBX 8 6 0 2
BITMAP
FB
48
48
7F
48
48
ENDCHAR
STARTCHAR uni0932094D092D094D
ENCODING -1
SWIDTH 694 0
DWIDTH 8 0
BBX 10 7 0 1
BITMAP
FEC0
0200
7E00
53C0
5200
4000
6000
ENDCHAR
STARTCHAR uni0938094D0924094D0930094D
ENCODING -1
SWIDTH 575 0
DWIDTH 7 0
BBX 8 8 0 0
BITMAP
FE
20
27
F9
41
41
26
28
ENDCHAR
STARTCHAR uni0915094D0924094D092F
ENCODING -1
SWIDTH 1356 0
DWIDTH 16 0
BBX 16 8 0 0
BITMAP
FFFF
6E0A
49F2
4922
4922
491E
7902
0882
ENDCHAR
STARTCHAR uni0915094D0924094D0930
ENCODING -1
SWIDTH 997 0
DWIDTH 12 0
BBX 12 8 0 0
BITMAP
FFF0
6E20
49E0
4920
4920
4860
78A0
0920
ENDCHAR
STARTCHAR uni0915094D0924094D0935
ENCODING -1
SWIDTH 1242 0
DWIDTH 15 0
BBX 15 8 0 0
BITMAP
FFFE
6E14
49E4
4924
4A24
4A24
791C
0884
ENDCHAR
STARTCHAR uni0915094D092A094D0930
ENCODING -1
SWIDTH 1007 0
DWIDTH 12 0
BBX 12 8 0 0
BITMAP
FFF0
6F20
4920
4920
48E0
7860
08A0
0920
ENDCHAR
STARTCHAR uni0915094D0935094D092F
ENCODING -1
SWIDTH 1384 0
DWIDTH 17 0
BBX 17 8 0 0
BITMAP
FFFF80
6EC900
491900
492100
492100
493F00
78C100
080100
ENDCHAR
STARTCHAR uni0915094D0938094D091F
ENCODING -1
SWIDTH 1376 0
DWIDTH 17 0
BBX 17 8 0 0
BITMAP
FFFF80
6E4200
494E00
49F000
489000
489100
384E00
084000
ENDCHAR
STARTCHAR uni0915094D0938094D0921
ENCODING -1
SWIDTH 1388 0
DWIDTH 17 0
BBX 17 8 0 0
BITMAP
FFFF80
6E4F00
494800
49F000
488E00
788900
084900
084600
ENDCHAR
STARTCHAR uni0915094D0938094D0924
ENCODING -1
SWIDTH 1423 0
DWIDTH 17 0
BBX 17 8 0 0
BITMAP
FFFF80
6E4100
494F00
49F900
488900
488900
784900
084500
ENDCHAR
STARTCHAR uni0915094D0938094D092A094D0930
ENCODING -1
SWIDTH 1437 0
DWIDTH 17 0
BBX 17 8 0 0
BITMAP
FFFF80
6E4900
494900
49F900
488700
788300
084500
084900
ENDCHAR
STARTCHAR uni0915094D0938094D092A094D0932
ENCODING -1
SWIDTH 1866 0
DWIDTH 22 0
BBX 23 8 0 0
BITMAP
FFFFFE
6E4804
4948D8
49F928
488704
488104
3840C4
084004
ENDCHAR
STARTCHAR uni0917094D0927094D092F
ENCODING -1
SWIDTH 1156 0
DWIDTH 14 0
BBX 14 8 0 0
BITMAP
FDFC
4848
4EC8
4888
C888
08F8
0708
0008
ENDCHAR
STARTCHAR uni0917094D0927094D0935
ENCODING -1
SWIDTH 1084 0
DWIDTH 13 0
BBX 13 8 0 0
BITMAP
FDF8
4850
4690
4890
C890
0890
0770
0010
ENDCHAR
STARTCHAR uni0917094D0928094D092F
ENCODING -1
SWIDTH 1069 0
DWIDTH 13 0
BBX 13 8 0 0
BITMAP
FFF8
4090
4F90
5110
C910
00F0
0010
0010
ENDCHAR
STARTCHAR uni0917094D092D094D092F
ENCODING -1
SWIDTH 1102 0
DWIDTH 13 0
BBX 13 8 0 0
BITMAP
FBF8
4850
4990
4F10
C910
00F0
0010
0010
ENDCHAR
STARTCHAR uni0917094D0930094D092F
ENCODING -1
SWIDTH 817 0
DWIDTH 10 0
BBX 10 8 0 0
BITMAP
FFC0
4480
4C80
4880
C880
0780
0280
0480
ENDCHAR
STARTCHAR uni091A094D091B094D0935
ENCODING -1
SWIDTH 913 0
DWIDTH 11 0
BBX 11 9 0 -1
BITMAP
FFE0
0440
F4C0
4240
4440
4440
3BC0
0440
0380
ENDCHAR
STARTCHAR uni091C094D091C094D091E
ENCODING -1
SWIDTH 945 0
DWIDTH 11 0
BBX 12 8 0 0
BITMAP
FFF0
07C0
7840
2440
1740
28C0
E740
0840
ENDCHAR
STARTCHAR uni091C094D091C094D092F
ENCODING -1
SWIDTH 1252 0
DWIDTH 15 0
BBX 15 8 0 0
BITMAP
FFFE
0014
7FE4
1144
1144
113C
EE04
0004
ENDCHAR
STARTCHAR uni091C094D091C094D0935
ENCODING -1
SWIDTH 1243 0
DWIDTH 15 0
BBX 14 8 0 0
BITMAP
FFFC
0038
7FC8
1148
1148
1148
EE38
0008
ENDCHAR
STARTCHAR uni0924094D0915094D092F
ENCODING -1
SWIDTH 1346 0
DWIDTH 16 0
BBX 16 8 0 0
BITMAP
FFFF
050A
79F2
4922
4922
491E
4702
2102
ENDCHAR
STARTCHAR uni0924094D0915094D0930
ENCODING -1
SWIDTH 995 0
DWIDTH 12 0
BBX 12 8 0 0
BITMAP
FFF0
05C0
7920
4920
4920
4920
4740
2500
ENDCHAR
STARTCHAR uni0924094D0915094D0935
ENCODING -1
SWIDTH 1282 0
DWIDTH 15 0
BBX 16 8 0 0
BITMAP
FFFF
05FC
7924
4924
4924
4924
471C
2104
ENDCHAR
STARTCHAR uni0924094D0915094D0937
ENCODING -1
SWIDTH 943 0
DWIDTH 11 0
BBX 11 8 0 0
BITMAP
F720
0540
77C0
4840
4940
4940
4740
2140
ENDCHAR
STARTCHAR uni0924094D0916094D0930
ENCODING -1
SWIDTH 1008 0
DWIDTH 12 0
BBX 12 8 0 0
BITMAP
FFF0
02E0
7320
4D20
4920
44E0
4260
22A0
ENDCHAR
STARTCHAR uni0924094D0924094D092F
ENCODING -1
SWIDTH 888 0
DWIDTH 11 0
BBX 11 8 0 0
BITMAP
FFE0
0240
FA40
4640
4840
47C0
4040
3040
ENDCHAR
STARTCHAR uni0924094D0924094D0935
ENCODING -1
SWIDTH 788 0
DWIDTH 9 0
BBX 10 8 0 0
BITMAP
FFC0
0680
F880
4880
4880
4880
4780
3080
ENDCHAR
STARTCHAR uni0924094D0928094D092F
ENCODING -1
SWIDTH 1098 0
DWIDTH 13 0
BBX 13 8 0 0
BITMAP
FFF8
0050
7790
4910
4110
40F0
4010
2010
ENDCHAR
STARTCHAR uni0924094D092A094D0930
ENCODING -1
SWIDTH 763 0
DWIDTH 9 0
BBX 9 8 0 0
BITMAP
FF80
0900
7900
4900
4700
4300
4500
2900
ENDCHAR
STARTCHAR uni0924094D092A094D0932
ENCODING -1
SWIDTH 1219 0
DWIDTH 15 0
BBX 15 8 0 0
BITMAP
FFFE
0804
78DC
4924
4704
4104
40C4
2004
ENDCHAR
STARTCHAR uni0924094D092E094D092F
ENCODING -1
SWIDTH 1096 0
DWIDTH 13 0
BBX 13 8 0 0
BITMAP
FFF8
0850
7990
4F10
4910
40F0
4010
2010
ENDCHAR
STARTCHAR uni0924094D0930094D092F
ENCODING -1
SWIDTH 848 0
DWIDTH 10 0
BBX 10 8 0 0
BITMAP
FFC0
0280
7280
4C80
0880
1780
2080
4080
ENDCHAR
STARTCHAR uni0924094D0938094D092F
ENCODING -1
SWIDTH 1234 0
DWIDTH 15 0
BBX 15 8 0 0
BITMAP
FFFE
0224
7264
4F84
4444
443C
4204
2204
ENDCHAR
STARTCHAR uni0924094D0938094D0935
ENCODING -1
SWIDTH 1155 0
DWIDTH 14 0
BBX 14 8 0 0
BITMAP
FFFC
0268
7248
4F88
4448
4448
4238
2208
ENDCHAR
STARTCHAR uni0926094D0917094D0930
ENCODING -1
SWIDTH 493 0
DWIDTH 6 0
BBX 6 11 0 -3
BITMAP
FC
08
78
40
40
48
38
28
28
58
20
ENDCHAR
STARTCHAR uni0926094D092C094D0930
ENCODING -1
SWIDTH 483 0
DWIDTH 6 0
BBX 6 11 0 -3
BITMAP
FC
08
78
40
40
48
78
68
58
30
20
ENDCHAR
STARTCHAR uni0926094D092F094D092D
ENCODING -1
SWIDTH 607 0
DWIDTH 7 0
BBX 7 10 0 -2
BITMAP
FE
34
44
34
44
44
3C
D4
24
10
ENDCHAR
STARTCHAR uni0926094D092F094D0930
ENCODING -1
SWIDTH 595 0
DWIDTH 7 0
BBX 7 8 0 0
BITMAP
FE
74
44
24
44
44
7C
14
ENDCHAR
STARTCHAR uni0927094D0928094D092F
ENCODING -1
SWIDTH 1138 0
DWIDTH 14 0
BBX 14 8 0 0
BITMAP
EFFC
4048
67C8
4908
4888
3478
0008
0008
ENDCHAR
STARTCHAR uni0928094D0915094D0938
ENCODING -1
SWIDTH 1384 0
DWIDTH 17 0
BBX 17 8 0 0
BITMAP
FFFF80
0DC900
712900
893F00
892100
091100
071100
010900
ENDCHAR
STARTCHAR uni0928094D0924094D092F
ENCODING -1
SWIDTH 1073 0
DWIDTH 13 0
BBX 13 8 0 0
BITMAP
FFF8
0090
0F90
7110
9110
10F0
0810
0410
ENDCHAR
STARTCHAR uni0928094D0924094D0930
ENCODING -1
SWIDTH 732 0
DWIDTH 9 0
BBX 9 8 0 0
BITMAP
FF80
0100
7F00
9100
8100
0300
0500
0900
ENDCHAR
STARTCHAR uni0928094D0924094D0938
ENCODING -1
SWIDTH 1134 0
DWIDTH 14 0
BBX 14 8 0 0
BITMAP
FFFC
0048
7F48
91F8
9108
1088
0888
0448
ENDCHAR
STARTCHAR uni0928094D0925094D092F
ENCODING -1
SWIDTH 1168 0
DWIDTH 14 0
BBX 14 8 0 0
BITMAP
EEFC
0A28
02C8
7C88
9088
0F78
0008
0008
ENDCHAR
STARTCHAR uni0928094D0925094D0935
ENCODING -1
SWIDTH 1089 0
DWIDTH 13 0
BBX 13 8 0 0
BITMAP
EEF8
0A70
0290
7C90
9090
0F90
0070
0010
ENDCHAR
STARTCHAR uni0928094D0926094D0930
ENCODING -1
SWIDTH 734 0
DWIDTH 9 0
BBX 9 8 0 0
BITMAP
FF80
0F00
7000
8800
8900
0900
0700
0500
ENDCHAR
STARTCHAR uni0928094D0926094D0935
ENCODING -1
SWIDTH 732 0
DWIDTH 9 0
BBX 9 10 0 -2
BITMAP
FF80
0100
0F00
7000
8800
0900
0F00
0900
0900
0E00
ENDCHAR
STARTCHAR uni0928094D0927094D092F
ENCODING -1
SWIDTH 1097 0
DWIDTH 13 0
BBX 13 8 0 0
BITMAP
FBF8
1050
7D90
9110
5110
11F0
0E10
0010
ENDCHAR
STARTCHAR uni0928094D0927094D0930
ENCODING -1
SWIDTH 783 0
DWIDTH 9 0
BBX 10 8 0 0
BITMAP
FBC0
1080
7C80
9080
9080
1100
0E80
0500
ENDCHAR
STARTCHAR uni0928094D0927094D0935
ENCODING -1
SWIDTH 1036 0
DWIDTH 12 0
BBX 13 8 0 0
BITMAP
FBF8
10D0
7D10
9110
9110
1110
0EF0
0010
ENDCHAR
STARTCHAR uni0928094D0928094D092F
ENCODING -1
SWIDTH 1071 0
DWIDTH 13 0
BBX 13 8 0 0
BITMAP
FFF8
0090
7F90
9110
0110
00F0
0010
0010
ENDCHAR
STARTCHAR uni0928094D092A094D0930
ENCODING -1
SWIDTH 737 0
DWIDTH 9 0
BBX 9 8 0 0
BITMAP
FF80
0900
7100
8900
8F00
0500
0500
0900
ENDCHAR
STARTCHAR uni0928094D092B094D0930
ENCODING -1
SWIDTH 975 0
DWIDTH 12 0
BBX 12 8 0 0
BITMAP
FFF0
09C0
7120
8920
8F20
0540
0900
0900
ENDCHAR
STARTCHAR uni0928094D092D094D092F
ENCODING -1
SWIDTH 1071 0
DWIDTH 13 0
BBX 13 8 0 0
BITMAP
F3F8
0890
7190
8E10
8910
00F0
0010
0010
ENDCHAR
STARTCHAR uni0928094D092D094D0935
ENCODING -1
SWIDTH 995 0
DWIDTH 12 0
BBX 12 8 0 0
BITMAP
F3F0
08A0
7120
8E20
8920
0920
00E0
0020
ENDCHAR
STARTCHAR uni0928094D092E094D092F
ENCODING -1
SWIDTH 1071 0
DWIDTH 13 0
BBX 13 8 0 0
BITMAP
FFF8
0890
7190
8E10
8910
00F0
0010
0010
ENDCHAR
STARTCHAR uni0928094D0938094D091F
ENCODING -1
SWIDTH 1113 0
DWIDTH 13 0
BBX 14 8 0 0
BITMAP
FFFC
0410
7460
8F80
8888
0488
0470
0200
ENDCHAR
STARTCHAR uni0928094D0938094D092E094D092F
ENCODING -1
SWIDTH 1453 0
DWIDTH 17 0
BBX 18 8 0 0
BITMAP
FFFFC0
048480
749880
8FF080
889100
080E80
040080
040080
ENDCHAR
STARTCHAR uni0928094D0938094D092F
ENCODING -1
SWIDTH 1194 0
DWIDTH 14 0
BBX 14 8 0 0
BITMAP
FFFC
0428
74C8
8F88
8888
0878
0408
0408
ENDCHAR
STARTCHAR uni092A094D0924094D092F
ENCODING -1
SWIDTH 1119 0
DWIDTH 13 0
BBX 14 8 0 0
BITMAP
FFFC
4048
4788
4908
3910
08E8
0808
0608
ENDCHAR
STARTCHAR uni092C094D091C094D092F
ENCODING -1
SWIDTH 1235 0
DWIDTH 15 0
BBX 15 8 0 0
BITMAP
FFFE
6024
47E4
6144
5144
513C
7E04
0004
ENDCHAR
STARTCHAR uni092C094D0927094D0935
ENCODING -1
SWIDTH 1097 0
DWIDTH 13 0
BBX 13 8 0 0
BITMAP
FCF8
6870
4690
6890
5890
4890
7770
0010
ENDCHAR
STARTCHAR uni092C094D092D094D0930
ENCODING -1
SWIDTH 764 0
DWIDTH 9 0
BBX 9 8 0 0
BITMAP
FB80
6900
4900
6F00
5900
4B00
3500
0900
ENDCHAR
STARTCHAR uni092C094D0932094D092F
ENCODING -1
SWIDTH 480 0
DWIDTH 6 0
BBX 16 8 0 0
BITMAP
FFFF
66D2
4932
6932
5922
481E
7602
0002
ENDCHAR
STARTCHAR uni092D094D0930094D092F
ENCODING -1
SWIDTH 830 0
DWIDTH 10 0
BBX 10 8 0 0
BITMAP
9FC0
4280
4C80
7880
4880
1780
2080
4080
ENDCHAR
STARTCHAR uni092E094D092A094D0930
ENCODING -1
SWIDTH 765 0
DWIDTH 9 0
BBX 9 8 0 0
BITMAP
FF80
4900
4900
7900
4700
0300
0500
0900
ENDCHAR
STARTCHAR uni092E094D092C094D092F
ENCODING -1
SWIDTH 1124 0
DWIDTH 13 0
BBX 14 8 0 0
BITMAP
FFFC
4648
4C88
7B08
4908
09F8
0608
0008
ENDCHAR
STARTCHAR uni092E094D092C094D0930
ENCODING -1
SWIDTH 768 0
DWIDTH 9 0
BBX 9 8 0 0
BITMAP
FF80
4700
4900
7D00
4B00
4900
0700
0500
ENDCHAR
STARTCHAR uni092E094D092D094D092F
ENCODING -1
SWIDTH 1101 0
DWIDTH 13 0
BBX 13 8 0 0
BITMAP
FBF8
4850
4990
7F10
4910
00F0
0010
0010
ENDCHAR
STARTCHAR uni092E094D092D094D0930
ENCODING -1
SWIDTH 759 0
DWIDTH 9 0
BBX 9 8 0 0
BITMAP
FB80
4900
4900
7F00
4900
0300
0500
0900
ENDCHAR
STARTCHAR uni092E094D092D094D0935
ENCODING -1
SWIDTH 1028 0
DWIDTH 12 0
BBX 13 8 0 0
BITMAP
FBF8
48E0
4920
7F20
4920
4920
00E0
0020
ENDCHAR
STARTCHAR uni0932094D0915094D092F
ENCODING -1
SWIDTH 1534 0
DWIDTH 18 0
BBX 19 8 0 0
BITMAP
FFFFE0
01C240
7E3C40
524840
524880
424740
61C040
004040
ENDCHAR
STARTCHAR uni0932094D0925094D092F
ENCODING -1
SWIDTH 1397 0
DWIDTH 17 0
BBX 17 8 0 0
BITMAP
FDBF80
024900
7E5900
539100
521100
41EF00
600100
000100
ENDCHAR
STARTCHAR uni0932094D0926094D0930
ENCODING -1
SWIDTH 933 0
DWIDTH 11 0
BBX 11 8 0 0
BITMAP
FFE0
01C0
7E00
5200
5220
4240
61A0
01A0
ENDCHAR
STARTCHAR uni0932094D0932094D092F
ENCODING -1
SWIDTH 1476 0
DWIDTH 18 0
BBX 18 8 0 0
BITMAP
FFFFC0
2DA480
525480
524C80
524880
420780
618080
000080
ENDCHAR
STARTCHAR uni0932094D0935094D0921
ENCODING -1
SWIDTH 1247 0
DWIDTH 15 0
BBX 15 8 0 0
BITMAP
FFFE
019C
7E20
5220
521C
4244
61C4
0038
ENDCHAR
STARTCHAR uni0937094D0915094D0930
ENCODING -1
SWIDTH 1042 0
DWIDTH 13 0
BBX 13 8 0 0
BITMAP
FFF8
66E0
5890
4890
3890
0890
0760
0480
ENDCHAR
STARTCHAR uni0937094D091F094D092F
ENCODING -1
SWIDTH 997 0
DWIDTH 12 0
BBX 12 8 0 0
BITMAP
FFF0
6F20
58A0
6320
4220
45E0
4820
3020
ENDCHAR
STARTCHAR uni0937094D091F094D0930
ENCODING -1
SWIDTH 493 0
DWIDTH 6 0
BBX 6 9 0 -1
BITMAP
FC
68
58
78
40
44
48
30
68
ENDCHAR
STARTCHAR uni0937094D091F094D0935
ENCODING -1
SWIDTH 493 0
DWIDTH 6 0
BBX 6 10 0 -2
BITMAP
FC
68
58
38
40
48
78
48
48
30
ENDCHAR
STARTCHAR uni0937094D0920094D092F
ENCODING -1
SWIDTH 1006 0
DWIDTH 12 0
BBX 12 8 0 0
BITMAP
FFF0
7F20
78A0
78A0
4B20
4620
49E0
3020
ENDCHAR
STARTCHAR uni0937094D0920094D0930
ENCODING -1
SWIDTH 512 0
DWIDTH 6 0
BBX 6 9 0 -1
BITMAP
FC
78
78
78
48
44
48
30
68
ENDCHAR
STARTCHAR uni0937094D0923094D092F
ENCODING -1
SWIDTH 1273 0
DWIDTH 15 0
BBX 15 8 0 0
BITMAP
FFFE
6914
5964
4944
3644
003C
0004
0004
ENDCHAR
STARTCHAR uni0937094D092A094D0930
ENCODING -1
SWIDTH 798 0
DWIDTH 10 0
BBX 10 8 0 0
BITMAP
FFC0
6880
5880
4880
3700
0280
0480
0880
ENDCHAR
STARTCHAR uni0937094D092E094D092F
ENCODING -1
SWIDTH 1121 0
DWIDTH 13 0
BBX 14 8 0 0
BITMAP
FFFC
6848
5988
4F08
3908
00F8
0008
0008
ENDCHAR
STARTCHAR uni0938094D0915094D0930
ENCODING -1
SWIDTH 1084 0
DWIDTH 13 0
BBX 13 8 0 0
BITMAP
FFF8
22F0
2490
FC90
4490
4490
23B0
2280
ENDCHAR
STARTCHAR uni0938094D0915094D0935
ENCODING -1
SWIDTH 1369 0
DWIDTH 16 0
BBX 17 8 0 0
BITMAP
FFFF80
22FD00
249100
FC9100
449100
449100
238F00
208100
ENDCHAR
STARTCHAR uni0938094D0924094D092F
ENCODING -1
SWIDTH 1185 0
DWIDTH 14 0
BBX 14 8 0 0
BITMAP
FFFC
2028
23C8
FC88
4488
4478
2408
2208
ENDCHAR
STARTCHAR uni0938094D0924094D0930
ENCODING -1
SWIDTH 818 0
DWIDTH 10 0
BBX 10 8 0 0
BITMAP
FFC0
2080
2780
F880
4080
4180
2280
2480
ENDCHAR
STARTCHAR uni0938094D0924094D0935
ENCODING -1
SWIDTH 1126 0
DWIDTH 14 0
BBX 14 8 0 0
BITMAP
FFFC
2068
2388
FC88
4488
4488
2470
2208
ENDCHAR
STARTCHAR uni0938094D0925094D092F
ENCODING -1
SWIDTH 1303 0
DWIDTH 16 0
BBX 16 8 0 0
BITMAP
FB7F
2492
20B2
FF42
4422
43FE
2002
2002
ENDCHAR
STARTCHAR uni0938094D092A094D0930
ENCODING -1
SWIDTH 850 0
DWIDTH 10 0
BBX 10 8 0 0
BITMAP
FFC0
2480
2480
FC80
4380
4180
2280
2480
ENDCHAR
STARTCHAR uni0938094D092E094D092F
ENCODING -1
SWIDTH 1189 0
DWIDTH 14 0
BBX 14 8 0 0
BITMAP
FFFC
2428
24C8
FF88
4488
4078
2008
2008
ENDCHAR
STARTCHAR uni093F.a01
ENCODING -1
SWIDTH 231 0
DWIDTH 3 0
BBX 6 11 0 0
BITMAP
7C
44
40
E0
40
40
40
40
40
40
40
ENDCHAR
STARTCHAR uni093F.a04
ENCODING -1
SWIDTH 231 0
DWIDTH 3 0
BBX 8 11 0 0
BITMAP
7E
41
40
E0
40
40
40
40
40
40
40
ENDCHAR
STARTCHAR uni093F.a05
ENCODING -1
SWIDTH 231 0
DWIDTH 3 0
BBX 8 11 0 0
BITMAP
7F
41
40
E0
40
40
40
40
40
40
40
ENDCHAR
STARTCHAR uni093F.a06
ENCODING -1
SWIDTH 231 0
DWIDTH 3 0
BBX 9 11 0 0
BITMAP
7F00
4080
4000
E000
4000
4000
4000
4000
4000
4000
4000
ENDCHAR
STARTCHAR uni093F.a07
ENCODING -1
SWIDTH 231 0
DWIDTH 3 0
BBX 9 11 0 0
BITMAP
7F80
4080
4000
E000
4000
4000
4000
4000
4000
4000
4000
ENDCHAR
STARTCHAR uni093F.a08
ENCODING -1
SWIDTH 231 0
DWIDTH 3 0
BBX 10 11 0 0
BITMAP
7F80
4040
4000
E000
4000
4000
4000
4000
4000
4000
4000
ENDCHAR
STARTCHAR uni093F.a09
ENCODING -1
SWIDTH 231 0
DWIDTH 3 0
BBX 10 11 0 0
BITMAP
7FC0
4040
4000
E000
4000
4000
4000
4000
4000
4000
4000
ENDCHAR
STARTCHAR uni093F.a10
ENCODING -1
SWIDTH 231 0
DWIDTH 3 0
BBX 11 11 0 0
BITMAP
7FE0
4020
4000
E000
4000
4000
4000
4000
4000
4000
4000
ENDCHAR
STARTCHAR uni093F.a11
ENCODING -1
SWIDTH 231 0
DWIDTH 3 0
BBX 12 11 0 0
BITMAP
7FE0
4010
4000
E000
4000
4000
4000
4000
4000
4000
4000
ENDCHAR
STARTCHAR uni093F.a12
ENCODING -1
SWIDTH 231 0
DWIDTH 3 0
BBX 12 11 0 0
BITMAP
7FF0
4010
4000
E000
4000
4000
4000
4000
4000
4000
4000
ENDCHAR
STARTCHAR uni093F.a13
ENCODING -1
SWIDTH 231 0
DWIDTH 3 0
BBX 13 11 0 0
BITMAP
7FF0
4008
4000
E000
4000
4000
4000
4000
4000
4000
4000
ENDCHAR
STARTCHAR uni093F.a14
ENCODING -1
SWIDTH 231 0
DWIDTH 3 0
BBX 13 11 0 0
BITMAP
7FF8
4008
4000
E000
4000
4000
4000
4000
4000
4000
4000
ENDCHAR
STARTCHAR uni093F.a15
ENCODING -1
SWIDTH 231 0
DWIDTH 3 0
BBX 14 11 0 0
BITMAP
7FF8
4004
4000
E000
4000
4000
4000
4000
4000
4000
4000
ENDCHAR
STARTCHAR uni093F.a16
ENCODING -1
SWIDTH 231 0
DWIDTH 3 0
BBX 14 11 0 0
BITMAP
7FFC
4004
4000
E000
4000
4000
4000
4000
4000
4000
4000
ENDCHAR
STARTCHAR uni093F.a17
ENCODING -1
SWIDTH 231 0
DWIDTH 3 0
BBX 15 11 0 0
BITMAP
7FFE
4002
4000
E000
4000
4000
4000
4000
4000
4000
4000
ENDCHAR
STARTCHAR uni093F.a18
ENCODING -1
SWIDTH 231 0
DWIDTH 3 0
BBX 15 11 0 0
BITMAP
7FFE
4002
4000
E000
4000
4000
4000
4000
4000
4000
4000
ENDCHAR
STARTCHAR uni093F.a19
ENCODING -1
SWIDTH 231 0
DWIDTH 3 0
BBX 16 11 0 0
BITMAP
7FFF
4001
4000
E000
4000
4000
4000
4000
4000
4000
4000
ENDCHAR
STARTCHAR uni093F.a20
ENCODING -1
SWIDTH 231 0
DWIDTH 3 0
BBX 17 11 0 0
BITMAP
7FFF00
400080
400000
E00000
400000
400000
400000
400000
400000
400000
400000
ENDCHAR
STARTCHAR uni093F.a21
ENCODING -1
SWIDTH 231 0
DWIDTH 3 0
BBX 17 11 0 0
BITMAP
7FFF80
400080
400000
E00000
400000
400000
400000
400000
400000
400000
400000
ENDCHAR
STARTCHAR uni093F.a22
ENCODING -1
SWIDTH 231 0
DWIDTH 3 0
BBX 18 11 0 0
BITMAP
7FFF80
400040
400000
E00000
400000
400000
400000
400000
400000
400000
400000
ENDCHAR
STARTCHAR uni093F.a23
ENCODING -1
SWIDTH 231 0
DWIDTH 3 0
BBX 18 11 0 0
BITMAP
7FFFC0
400040
400000
E00000
400000
400000
400000
400000
400000
400000
400000
ENDCHAR
STARTCHAR uni093F.a24
ENCODING -1
SWIDTH 231 0
DWIDTH 3 0
BBX 19 11 0 0
BITMAP
7FFFE0
400020
400000
E00000
400000
400000
400000
400000
400000
400000
400000
ENDCHAR
STARTCHAR uni093F.a25
ENCODING -1
SWIDTH 231 0
DWIDTH 3 0
BBX 19 11 0 0
BITMAP
7FFFE0
400020
400000
E00000
400000
400000
400000
400000
400000
400000
400000
ENDCHAR
STARTCHAR uni093F.a26
ENCODING -1
SWIDTH 231 0
DWIDTH 3 0
BBX 20 11 0 0
BITMAP
7FFFF0
400010
400000
E00000
400000
400000
400000
400000
400000
400000
400000
ENDCHAR
STARTCHAR uni093F.a32
ENCODING -1
SWIDTH 231 0
DWIDTH 3 0
BBX 24 11 0 0
BITMAP
7FFFFF
400001
400000
E00000
400000
400000
400000
400000
400000
400000
400000
ENDCHAR
STARTCHAR uni093E0901
ENCODING -1
SWIDTH 231 0
DWIDTH 3 0
BBX 3 11 0 0
BITMAP
40
E0
00
E0
40
40
40
40
40
40
40
ENDCHAR
STARTCHAR dvNG_GA
ENCODING -1
SWIDTH 562 0
DWIDTH 7 0
BBX 7 11 0 -3
BITMAP
FE
78
42
78
04
44
78
28
28
48
08
ENDCHAR
STARTCHAR dvNG_MA
ENCODING -1
SWIDTH 728 0
DWIDTH 9 0
BBX 9 11 0 -3
BITMAP
FF80
7900
4100
4500
7900
4900
7900
1100
0F00
1100
0100
ENDCHAR
STARTCHAR dvNY_CA
ENCODING -1
SWIDTH 963 0
DWIDTH 12 0
BBX 12 8 0 0
BITMAP
FFF0
6020
17A0
1A20
1220
11C0
6020
0020
ENDCHAR
STARTCHAR dvTT_GA
ENCODING -1
SWIDTH 510 0
DWIDTH 6 0
BBX 6 11 0 -3
BITMAP
FC
08
38
40
44
44
38
28
28
48
08
ENDCHAR
STARTCHAR dvTTH_TTHA
ENCODING -1
SWIDTH 511 0
DWIDTH 6 0
BBX 6 12 0 -4
BITMAP
FC
30
48
48
48
38
08
78
48
48
48
30
ENDCHAR
STARTCHAR dvDD_GA
ENCODING -1
SWIDTH 541 0
DWIDTH 6 0
BBX 7 11 0 -3
BITMAP
FE
78
40
78
04
44
78
28
28
48
08
ENDCHAR
STARTCHAR dvDDH_DDHA
ENCODING -1
SWIDTH 487 0
DWIDTH 6 0
BBX 6 10 0 -2
BITMAP
FC
38
40
58
58
38
40
58
48
38
ENDCHAR
STARTCHAR dvSHA_MatraVocalicR
ENCODING -1
SWIDTH 558 0
DWIDTH 7 0
BBX 7 11 0 -3
BITMAP
76
54
54
24
DC
04
04
08
10
12
0C
ENDCHAR
STARTCHAR dvT_KH_NA
ENCODING -1
SWIDTH 1341 0
DWIDTH 16 0
BBX 16 8 0 0
BITMAP
FFFF
02C2
7B3E
4D32
4932
44C2
4202
2202
ENDCHAR
STARTCHAR dvT_S_NA
ENCODING -1
SWIDTH 1169 0
DWIDTH 14 0
BBX 14 8 0 0
BITMAP
FFFC
0208
7A78
4F88
4448
4408
4208
2208
ENDCHAR
ENDFONT
